<?xml version="1.0" encoding="UTF-8" standalone="no"?><svg xmlns="http://www.w3.org/2000/svg" xmlns:xlink="http://www.w3.org/1999/xlink" contentScriptType="application/ecmascript" contentStyleType="text/css" height="322px" preserveAspectRatio="none" style="width:355px;height:322px;" version="1.1" viewBox="0 0 355 322" width="355px" zoomAndPan="magnify"><defs><filter height="300%" id="flegg6zx3kiop" width="300%" x="-1" y="-1"><feGaussianBlur result="blurOut" stdDeviation="2.0"/><feColorMatrix in="blurOut" result="blurOut2" type="matrix" values="0 0 0 0 0 0 0 0 0 0 0 0 0 0 0 0 0 0 .4 0"/><feOffset dx="4.0" dy="4.0" in="blurOut2" result="blurOut3"/><feBlend in="SourceGraphic" in2="blurOut3" mode="normal"/></filter></defs><g><!--MD5=[d5ac3844f66b12d9e08170e47495e096]
cluster app--><polygon fill="#FFFFFF" filter="url(#flegg6zx3kiop)" points="103,24,229,24,236,46.2969,257,46.2969,257,163,103,163,103,24" style="stroke: #000000; stroke-width: 1.5;"/><line style="stroke: #000000; stroke-width: 1.5;" x1="103" x2="236" y1="46.2969" y2="46.2969"/><text fill="#000000" font-family="sans-serif" font-size="14" font-weight="bold" lengthAdjust="spacingAndGlyphs" textLength="120" x="107" y="38.9951">Business Layer</text><text fill="#000000" font-family="sans-serif" font-size="14" font-style="italic" lengthAdjust="spacingAndGlyphs" textLength="51" x="158.5" y="61.292">«layer»</text><!--MD5=[b33ebb3c75309ea43744ace0f7f7d9ae]
cluster mid--><polygon fill="#FFFFFF" filter="url(#flegg6zx3kiop)" points="22,187,168,187,175,209.2969,333,209.2969,333,310,22,310,22,187" style="stroke: #000000; stroke-width: 1.5;"/><line style="stroke: #000000; stroke-width: 1.5;" x1="22" x2="175" y1="209.2969" y2="209.2969"/><text fill="#000000" font-family="sans-serif" font-size="14" font-weight="bold" lengthAdjust="spacingAndGlyphs" textLength="140" x="26" y="201.9951">Middleware Layer</text><text fill="#000000" font-family="sans-serif" font-size="14" font-style="italic" lengthAdjust="spacingAndGlyphs" textLength="51" x="156" y="224.292">«layer»</text><!--MD5=[0d482ad21d5c7c11aa976e45da5ecfe6]
entity core--><polygon fill="#FEFECE" filter="url(#flegg6zx3kiop)" points="119,75,161,75,168,97.2969,241,97.2969,241,146.8906,119,146.8906,119,75" style="stroke: #000000; stroke-width: 1.5;"/><line style="stroke: #000000; stroke-width: 1.5;" x1="119" x2="168" y1="97.2969" y2="97.2969"/><text fill="#000000" font-family="sans-serif" font-size="14" font-weight="bold" lengthAdjust="spacingAndGlyphs" textLength="36" x="123" y="90.9951">core</text><text fill="#000000" font-family="sans-serif" font-size="14" font-style="italic" lengthAdjust="spacingAndGlyphs" textLength="92" x="129" y="117.292">«subsystem»</text><text fill="#000000" font-family="sans-serif" font-size="14" font-weight="bold" lengthAdjust="spacingAndGlyphs" textLength="38" x="156" y="133.5889">Core</text><!--MD5=[25fdbc256ceb9e3bdcb330150c9533c0]
entity sec--><polygon fill="#FEFECE" filter="url(#flegg6zx3kiop)" points="207,238,241,238,248,260.2969,317,260.2969,317,293.5938,207,293.5938,207,238" style="stroke: #000000; stroke-width: 1.5;"/><line style="stroke: #000000; stroke-width: 1.5;" x1="207" x2="248" y1="260.2969" y2="260.2969"/><text fill="#000000" font-family="sans-serif" font-size="14" font-weight="bold" lengthAdjust="spacingAndGlyphs" textLength="28" x="211" y="253.9951">sec</text><text fill="#000000" font-family="sans-serif" font-size="14" font-weight="bold" lengthAdjust="spacingAndGlyphs" textLength="80" x="217" y="280.292">Werkzeug</text><!--MD5=[bea2a68a126f07da28eb9f190a9ea435]
entity orm--><polygon fill="#FEFECE" filter="url(#flegg6zx3kiop)" points="38.5,238,75.5,238,82.5,260.2969,171.5,260.2969,171.5,293.5938,38.5,293.5938,38.5,238" style="stroke: #000000; stroke-width: 1.5;"/><line style="stroke: #000000; stroke-width: 1.5;" x1="38.5" x2="82.5" y1="260.2969" y2="260.2969"/><text fill="#000000" font-family="sans-serif" font-size="14" font-weight="bold" lengthAdjust="spacingAndGlyphs" textLength="31" x="42.5" y="253.9951">orm</text><text fill="#000000" font-family="sans-serif" font-size="14" font-weight="bold" lengthAdjust="spacingAndGlyphs" textLength="103" x="48.5" y="280.292">SQLALchemy</text><!--MD5=[c20ee5df3b20d1d42b8899b56730bfa3]
link core to sec--><path d="M198.81,147.1 C212.7,173.01 231.45,208 244.91,233.11 " fill="none" id="core-&gt;sec" style="stroke: #A80036; stroke-width: 1.0;"/><polygon fill="#A80036" points="247.36,237.69,246.6359,227.8678,244.9989,233.2826,239.5841,231.6456,247.36,237.69" style="stroke: #A80036; stroke-width: 1.0;"/><!--MD5=[a86ec888cf68b42300a3c973adec5db5]
link core to orm--><path d="M162.79,147.1 C150.09,173.01 132.94,208 120.63,233.11 " fill="none" id="core-&gt;orm" style="stroke: #A80036; stroke-width: 1.0;"/><polygon fill="#A80036" points="118.39,237.69,125.9444,231.3709,120.5917,233.2008,118.7617,227.8482,118.39,237.69" style="stroke: #A80036; stroke-width: 1.0;"/><!--MD5=[62ce314debe05f84a4b24c076b1fe6df]
@startuml
package "Business Layer" as app <<layer>> {
    package "Core" as core <<subsystem>>
}
package "Middleware Layer" as mid <<layer>> {
    package "Werkzeug" as sec
    package "SQLALchemy" as orm
}

core - -> sec
core - -> orm
@enduml

PlantUML version 1.2020.02(Sun Mar 01 10:22:07 GMT 2020)
(GPL source distribution)
Java Runtime: OpenJDK Runtime Environment
JVM: OpenJDK 64-Bit Server VM
Java Version: 11.0.8+10-post-Ubuntu-0ubuntu1
Operating System: Linux
Default Encoding: ANSI_X3.4-1968
Language: en
Country: US
--></g></svg>