<?xml version="1.0" encoding="UTF-8" standalone="no"?><svg xmlns="http://www.w3.org/2000/svg" xmlns:xlink="http://www.w3.org/1999/xlink" contentScriptType="application/ecmascript" contentStyleType="text/css" height="283px" preserveAspectRatio="none" style="width:356px;height:283px;" version="1.1" viewBox="0 0 356 283" width="356px" zoomAndPan="magnify"><defs><filter height="300%" id="fz983fftlim7t" width="300%" x="-1" y="-1"><feGaussianBlur result="blurOut" stdDeviation="2.0"/><feColorMatrix in="blurOut" result="blurOut2" type="matrix" values="0 0 0 0 0 0 0 0 0 0 0 0 0 0 0 0 0 0 .4 0"/><feOffset dx="4.0" dy="4.0" in="blurOut2" result="blurOut3"/><feBlend in="SourceGraphic" in2="blurOut3" mode="normal"/></filter></defs><g><!--MD5=[3fd616f346a44cd59a91eb10b19e157c]
class User--><rect fill="#FEFECE" filter="url(#fz983fftlim7t)" height="48" id="User" style="stroke: #A80036; stroke-width: 1.5;" width="61" x="24" y="8"/><ellipse cx="39" cy="24" fill="#ADD1B2" rx="11" ry="11" style="stroke: #A80036; stroke-width: 1.0;"/><path d="M41.9688,29.6406 Q41.3906,29.9375 40.75,30.0781 Q40.1094,30.2344 39.4063,30.2344 Q36.9063,30.2344 35.5781,28.5938 Q34.2656,26.9375 34.2656,23.8125 Q34.2656,20.6875 35.5781,19.0313 Q36.9063,17.375 39.4063,17.375 Q40.1094,17.375 40.75,17.5313 Q41.4063,17.6875 41.9688,17.9844 L41.9688,20.7031 Q41.3438,20.125 40.75,19.8594 Q40.1563,19.5781 39.5313,19.5781 Q38.1875,19.5781 37.5,20.6563 Q36.8125,21.7188 36.8125,23.8125 Q36.8125,25.9063 37.5,26.9844 Q38.1875,28.0469 39.5313,28.0469 Q40.1563,28.0469 40.75,27.7813 Q41.3438,27.5 41.9688,26.9219 L41.9688,29.6406 Z "/><text fill="#000000" font-family="sans-serif" font-size="12" lengthAdjust="spacingAndGlyphs" textLength="29" x="53" y="28.1543">User</text><line style="stroke: #A80036; stroke-width: 1.5;" x1="25" x2="84" y1="40" y2="40"/><line style="stroke: #A80036; stroke-width: 1.5;" x1="25" x2="84" y1="48" y2="48"/><!--MD5=[c655d808c408fb7bc0183267d75644d6]
class Superuser--><rect fill="#FEFECE" filter="url(#fz983fftlim7t)" height="48" id="Superuser" style="stroke: #A80036; stroke-width: 1.5;" width="97" x="120" y="8"/><ellipse cx="135" cy="24" fill="#ADD1B2" rx="11" ry="11" style="stroke: #A80036; stroke-width: 1.0;"/><path d="M137.9688,29.6406 Q137.3906,29.9375 136.75,30.0781 Q136.1094,30.2344 135.4063,30.2344 Q132.9063,30.2344 131.5781,28.5938 Q130.2656,26.9375 130.2656,23.8125 Q130.2656,20.6875 131.5781,19.0313 Q132.9063,17.375 135.4063,17.375 Q136.1094,17.375 136.75,17.5313 Q137.4063,17.6875 137.9688,17.9844 L137.9688,20.7031 Q137.3438,20.125 136.75,19.8594 Q136.1563,19.5781 135.5313,19.5781 Q134.1875,19.5781 133.5,20.6563 Q132.8125,21.7188 132.8125,23.8125 Q132.8125,25.9063 133.5,26.9844 Q134.1875,28.0469 135.5313,28.0469 Q136.1563,28.0469 136.75,27.7813 Q137.3438,27.5 137.9688,26.9219 L137.9688,29.6406 Z "/><text fill="#000000" font-family="sans-serif" font-size="12" lengthAdjust="spacingAndGlyphs" textLength="65" x="149" y="28.1543">Superuser</text><line style="stroke: #A80036; stroke-width: 1.5;" x1="121" x2="216" y1="40" y2="40"/><line style="stroke: #A80036; stroke-width: 1.5;" x1="121" x2="216" y1="48" y2="48"/><!--MD5=[307826e84df62655848937446801c250]
class Moderator--><rect fill="#FEFECE" filter="url(#fz983fftlim7t)" height="48" id="Moderator" style="stroke: #A80036; stroke-width: 1.5;" width="97" x="6" y="116"/><ellipse cx="21" cy="132" fill="#ADD1B2" rx="11" ry="11" style="stroke: #A80036; stroke-width: 1.0;"/><path d="M23.9688,137.6406 Q23.3906,137.9375 22.75,138.0781 Q22.1094,138.2344 21.4063,138.2344 Q18.9063,138.2344 17.5781,136.5938 Q16.2656,134.9375 16.2656,131.8125 Q16.2656,128.6875 17.5781,127.0313 Q18.9063,125.375 21.4063,125.375 Q22.1094,125.375 22.75,125.5313 Q23.4063,125.6875 23.9688,125.9844 L23.9688,128.7031 Q23.3438,128.125 22.75,127.8594 Q22.1563,127.5781 21.5313,127.5781 Q20.1875,127.5781 19.5,128.6563 Q18.8125,129.7188 18.8125,131.8125 Q18.8125,133.9063 19.5,134.9844 Q20.1875,136.0469 21.5313,136.0469 Q22.1563,136.0469 22.75,135.7813 Q23.3438,135.5 23.9688,134.9219 L23.9688,137.6406 Z "/><text fill="#000000" font-family="sans-serif" font-size="12" lengthAdjust="spacingAndGlyphs" textLength="65" x="35" y="136.1543">Moderator</text><line style="stroke: #A80036; stroke-width: 1.5;" x1="7" x2="102" y1="148" y2="148"/><line style="stroke: #A80036; stroke-width: 1.5;" x1="7" x2="102" y1="156" y2="156"/><!--MD5=[6e39a85748f9d27ba97d4400548c58d3]
class Subreddit--><rect fill="#FEFECE" filter="url(#fz983fftlim7t)" height="48" id="Subreddit" style="stroke: #A80036; stroke-width: 1.5;" width="93" x="252" y="8"/><ellipse cx="267" cy="24" fill="#ADD1B2" rx="11" ry="11" style="stroke: #A80036; stroke-width: 1.0;"/><path d="M269.9688,29.6406 Q269.3906,29.9375 268.75,30.0781 Q268.1094,30.2344 267.4063,30.2344 Q264.9063,30.2344 263.5781,28.5938 Q262.2656,26.9375 262.2656,23.8125 Q262.2656,20.6875 263.5781,19.0313 Q264.9063,17.375 267.4063,17.375 Q268.1094,17.375 268.75,17.5313 Q269.4063,17.6875 269.9688,17.9844 L269.9688,20.7031 Q269.3438,20.125 268.75,19.8594 Q268.1563,19.5781 267.5313,19.5781 Q266.1875,19.5781 265.5,20.6563 Q264.8125,21.7188 264.8125,23.8125 Q264.8125,25.9063 265.5,26.9844 Q266.1875,28.0469 267.5313,28.0469 Q268.1563,28.0469 268.75,27.7813 Q269.3438,27.5 269.9688,26.9219 L269.9688,29.6406 Z "/><text fill="#000000" font-family="sans-serif" font-size="12" lengthAdjust="spacingAndGlyphs" textLength="61" x="281" y="28.1543">Subreddit</text><line style="stroke: #A80036; stroke-width: 1.5;" x1="253" x2="344" y1="40" y2="40"/><line style="stroke: #A80036; stroke-width: 1.5;" x1="253" x2="344" y1="48" y2="48"/><!--MD5=[9bb0bdd047fba1a3c8d48282c35b4537]
class Post--><rect fill="#FEFECE" filter="url(#fz983fftlim7t)" height="48" id="Post" style="stroke: #A80036; stroke-width: 1.5;" width="60" x="268.5" y="116"/><ellipse cx="283.5" cy="132" fill="#ADD1B2" rx="11" ry="11" style="stroke: #A80036; stroke-width: 1.0;"/><path d="M286.4688,137.6406 Q285.8906,137.9375 285.25,138.0781 Q284.6094,138.2344 283.9063,138.2344 Q281.4063,138.2344 280.0781,136.5938 Q278.7656,134.9375 278.7656,131.8125 Q278.7656,128.6875 280.0781,127.0313 Q281.4063,125.375 283.9063,125.375 Q284.6094,125.375 285.25,125.5313 Q285.9063,125.6875 286.4688,125.9844 L286.4688,128.7031 Q285.8438,128.125 285.25,127.8594 Q284.6563,127.5781 284.0313,127.5781 Q282.6875,127.5781 282,128.6563 Q281.3125,129.7188 281.3125,131.8125 Q281.3125,133.9063 282,134.9844 Q282.6875,136.0469 284.0313,136.0469 Q284.6563,136.0469 285.25,135.7813 Q285.8438,135.5 286.4688,134.9219 L286.4688,137.6406 Z "/><text fill="#000000" font-family="sans-serif" font-size="12" lengthAdjust="spacingAndGlyphs" textLength="28" x="297.5" y="136.1543">Post</text><line style="stroke: #A80036; stroke-width: 1.5;" x1="269.5" x2="327.5" y1="148" y2="148"/><line style="stroke: #A80036; stroke-width: 1.5;" x1="269.5" x2="327.5" y1="156" y2="156"/><!--MD5=[042fa140da40c49659127f611bcff931]
class Comment--><rect fill="#FEFECE" filter="url(#fz983fftlim7t)" height="48" id="Comment" style="stroke: #A80036; stroke-width: 1.5;" width="91" x="253" y="224"/><ellipse cx="268" cy="240" fill="#ADD1B2" rx="11" ry="11" style="stroke: #A80036; stroke-width: 1.0;"/><path d="M270.9688,245.6406 Q270.3906,245.9375 269.75,246.0781 Q269.1094,246.2344 268.4063,246.2344 Q265.9063,246.2344 264.5781,244.5938 Q263.2656,242.9375 263.2656,239.8125 Q263.2656,236.6875 264.5781,235.0313 Q265.9063,233.375 268.4063,233.375 Q269.1094,233.375 269.75,233.5313 Q270.4063,233.6875 270.9688,233.9844 L270.9688,236.7031 Q270.3438,236.125 269.75,235.8594 Q269.1563,235.5781 268.5313,235.5781 Q267.1875,235.5781 266.5,236.6563 Q265.8125,237.7188 265.8125,239.8125 Q265.8125,241.9063 266.5,242.9844 Q267.1875,244.0469 268.5313,244.0469 Q269.1563,244.0469 269.75,243.7813 Q270.3438,243.5 270.9688,242.9219 L270.9688,245.6406 Z "/><text fill="#000000" font-family="sans-serif" font-size="12" lengthAdjust="spacingAndGlyphs" textLength="59" x="282" y="244.1543">Comment</text><line style="stroke: #A80036; stroke-width: 1.5;" x1="254" x2="343" y1="256" y2="256"/><line style="stroke: #A80036; stroke-width: 1.5;" x1="254" x2="343" y1="264" y2="264"/><!--MD5=[de8deb493d7a4bdb4afee61db9def853]
reverse link User to Moderator--><path d="M54.5,76.02 C54.5,89.58 54.5,104.04 54.5,115.68 " fill="none" id="User&lt;-Moderator" style="stroke: #A80036; stroke-width: 1.0;"/><polygon fill="none" points="47.5,76,54.5,56,61.5,76,47.5,76" style="stroke: #A80036; stroke-width: 1.0;"/><!--MD5=[f5e214f972e645fa54cc6d21f81be0cb]
reverse link Subreddit to Post--><path d="M298.5,69.34 C298.5,84.68 298.5,102.1 298.5,115.68 " fill="none" id="Subreddit&lt;-Post" style="stroke: #A80036; stroke-width: 1.0;"/><polygon fill="#FFFFFF" points="298.5,56,294.5,62,298.5,68,302.5,62,298.5,56" style="stroke: #A80036; stroke-width: 1.0;"/><!--MD5=[65e42cb5568afcbba8f3b58fb3575f9c]
reverse link Post to Comment--><path d="M298.5,177.34 C298.5,192.68 298.5,210.1 298.5,223.68 " fill="none" id="Post&lt;-Comment" style="stroke: #A80036; stroke-width: 1.0;"/><polygon fill="#FFFFFF" points="298.5,164,294.5,170,298.5,176,302.5,170,298.5,164" style="stroke: #A80036; stroke-width: 1.0;"/><!--MD5=[f3c267edfc84cc013b26ca3c5f3cb81f]
@startuml
class User
class Superuser
class Moderator
class Subreddit
class Post
class Comment

User <|- - Moderator
Subreddit o- - Post
Post o- - Comment

@enduml

PlantUML version 1.2020.02(Sun Mar 01 10:22:07 GMT 2020)
(GPL source distribution)
Java Runtime: OpenJDK Runtime Environment
JVM: OpenJDK 64-Bit Server VM
Java Version: 11.0.8+10-post-Ubuntu-0ubuntu1
Operating System: Linux
Default Encoding: ANSI_X3.4-1968
Language: en
Country: US
--></g></svg>