<?xml version="1.0" encoding="UTF-8" standalone="no"?><svg xmlns="http://www.w3.org/2000/svg" xmlns:xlink="http://www.w3.org/1999/xlink" contentScriptType="application/ecmascript" contentStyleType="text/css" height="370px" preserveAspectRatio="none" style="width:608px;height:370px;" version="1.1" viewBox="0 0 608 370" width="608px" zoomAndPan="magnify"><defs><filter height="300%" id="fvv3lrb7t8ls6" width="300%" x="-1" y="-1"><feGaussianBlur result="blurOut" stdDeviation="2.0"/><feColorMatrix in="blurOut" result="blurOut2" type="matrix" values="0 0 0 0 0 0 0 0 0 0 0 0 0 0 0 0 0 0 .4 0"/><feOffset dx="4.0" dy="4.0" in="blurOut2" result="blurOut3"/><feBlend in="SourceGraphic" in2="blurOut3" mode="normal"/></filter></defs><g><!--MD5=[29f97d496cbdc4ec81664c6d94dc9bf6]
class UserController--><rect fill="#FEFECE" filter="url(#fvv3lrb7t8ls6)" height="79.5469" id="UserController" style="stroke: #A80036; stroke-width: 1.5;" width="122" x="84" y="8"/><ellipse cx="99" cy="26.9688" fill="#ADD1B2" rx="11" ry="11" style="stroke: #A80036; stroke-width: 1.0;"/><path d="M101.9688,32.6094 Q101.3906,32.9063 100.75,33.0469 Q100.1094,33.2031 99.4063,33.2031 Q96.9063,33.2031 95.5781,31.5625 Q94.2656,29.9063 94.2656,26.7813 Q94.2656,23.6563 95.5781,22 Q96.9063,20.3438 99.4063,20.3438 Q100.1094,20.3438 100.75,20.5 Q101.4063,20.6563 101.9688,20.9531 L101.9688,23.6719 Q101.3438,23.0938 100.75,22.8281 Q100.1563,22.5469 99.5313,22.5469 Q98.1875,22.5469 97.5,23.625 Q96.8125,24.6875 96.8125,26.7813 Q96.8125,28.875 97.5,29.9531 Q98.1875,31.0156 99.5313,31.0156 Q100.1563,31.0156 100.75,30.75 Q101.3438,30.4688 101.9688,29.8906 L101.9688,32.6094 Z "/><text fill="#000000" font-family="sans-serif" font-size="12" font-style="italic" lengthAdjust="spacingAndGlyphs" textLength="79" x="118.5" y="24.1387">«subsystem»</text><text fill="#000000" font-family="sans-serif" font-size="12" lengthAdjust="spacingAndGlyphs" textLength="90" x="113" y="38.1074">UserController</text><line style="stroke: #A80036; stroke-width: 1.5;" x1="85" x2="205" y1="45.9375" y2="45.9375"/><line style="stroke: #A80036; stroke-width: 1.5;" x1="85" x2="205" y1="53.9375" y2="53.9375"/><text fill="#000000" font-family="sans-serif" font-size="11" lengthAdjust="spacingAndGlyphs" textLength="79" x="90" y="68.1479">// block user()</text><text fill="#000000" font-family="sans-serif" font-size="11" lengthAdjust="spacingAndGlyphs" textLength="93" x="90" y="80.9526">// unblock user()</text><!--MD5=[4397ba3f25468a58f081bf0666d83f60]
class IUser--><rect fill="#FEFECE" filter="url(#fvv3lrb7t8ls6)" height="79.5469" id="IUser" style="stroke: #A80036; stroke-width: 1.5;" width="278" x="6" y="165"/><ellipse cx="107.75" cy="183.9688" fill="#ADD1B2" rx="11" ry="11" style="stroke: #A80036; stroke-width: 1.0;"/><path d="M110.7188,189.6094 Q110.1406,189.9063 109.5,190.0469 Q108.8594,190.2031 108.1563,190.2031 Q105.6563,190.2031 104.3281,188.5625 Q103.0156,186.9063 103.0156,183.7813 Q103.0156,180.6563 104.3281,179 Q105.6563,177.3438 108.1563,177.3438 Q108.8594,177.3438 109.5,177.5 Q110.1563,177.6563 110.7188,177.9531 L110.7188,180.6719 Q110.0938,180.0938 109.5,179.8281 Q108.9063,179.5469 108.2813,179.5469 Q106.9375,179.5469 106.25,180.625 Q105.5625,181.6875 105.5625,183.7813 Q105.5625,185.875 106.25,186.9531 Q106.9375,188.0156 108.2813,188.0156 Q108.9063,188.0156 109.5,187.75 Q110.0938,187.4688 110.7188,186.8906 L110.7188,189.6094 Z "/><text fill="#000000" font-family="sans-serif" font-size="12" font-style="italic" lengthAdjust="spacingAndGlyphs" textLength="70" x="126.25" y="181.1387">«interface»</text><text fill="#000000" font-family="sans-serif" font-size="12" lengthAdjust="spacingAndGlyphs" textLength="32" x="145.25" y="195.1074">IUser</text><line style="stroke: #A80036; stroke-width: 1.5;" x1="7" x2="283" y1="202.9375" y2="202.9375"/><line style="stroke: #A80036; stroke-width: 1.5;" x1="7" x2="283" y1="210.9375" y2="210.9375"/><text fill="#000000" font-family="sans-serif" font-size="11" lengthAdjust="spacingAndGlyphs" textLength="238" x="12" y="225.1479">blockUser(blockedUser: User, user: User)</text><text fill="#000000" font-family="sans-serif" font-size="11" lengthAdjust="spacingAndGlyphs" textLength="266" x="12" y="237.9526">unblockUser(unblockedUser: User, user: User)</text><!--MD5=[496b6852bed9e67430d50a4652ca7b04]
class UserProxy--><rect fill="#FEFECE" filter="url(#fvv3lrb7t8ls6)" height="79.5469" id="UserProxy" style="stroke: #A80036; stroke-width: 1.5;" width="278" x="319" y="165"/><ellipse cx="396.75" cy="183.9688" fill="#ADD1B2" rx="11" ry="11" style="stroke: #A80036; stroke-width: 1.0;"/><path d="M399.7188,189.6094 Q399.1406,189.9063 398.5,190.0469 Q397.8594,190.2031 397.1563,190.2031 Q394.6563,190.2031 393.3281,188.5625 Q392.0156,186.9063 392.0156,183.7813 Q392.0156,180.6563 393.3281,179 Q394.6563,177.3438 397.1563,177.3438 Q397.8594,177.3438 398.5,177.5 Q399.1563,177.6563 399.7188,177.9531 L399.7188,180.6719 Q399.0938,180.0938 398.5,179.8281 Q397.9063,179.5469 397.2813,179.5469 Q395.9375,179.5469 395.25,180.625 Q394.5625,181.6875 394.5625,183.7813 Q394.5625,185.875 395.25,186.9531 Q395.9375,188.0156 397.2813,188.0156 Q397.9063,188.0156 398.5,187.75 Q399.0938,187.4688 399.7188,186.8906 L399.7188,189.6094 Z "/><text fill="#000000" font-family="sans-serif" font-size="12" font-style="italic" lengthAdjust="spacingAndGlyphs" textLength="118" x="415.25" y="181.1387">«subsystem proxy»</text><text fill="#000000" font-family="sans-serif" font-size="12" lengthAdjust="spacingAndGlyphs" textLength="62" x="443.25" y="195.1074">UserProxy</text><line style="stroke: #A80036; stroke-width: 1.5;" x1="320" x2="596" y1="202.9375" y2="202.9375"/><line style="stroke: #A80036; stroke-width: 1.5;" x1="320" x2="596" y1="210.9375" y2="210.9375"/><text fill="#000000" font-family="sans-serif" font-size="11" lengthAdjust="spacingAndGlyphs" textLength="238" x="325" y="225.1479">blockUser(blockedUser: User, user: User)</text><text fill="#000000" font-family="sans-serif" font-size="11" lengthAdjust="spacingAndGlyphs" textLength="266" x="325" y="237.9526">unblockUser(unblockedUser: User, user: User)</text><!--MD5=[3fd616f346a44cd59a91eb10b19e157c]
class User--><rect fill="#FEFECE" filter="url(#fvv3lrb7t8ls6)" height="53.9375" id="User" style="stroke: #A80036; stroke-width: 1.5;" width="78" x="262" y="306"/><ellipse cx="277" cy="324.9688" fill="#ADD1B2" rx="11" ry="11" style="stroke: #A80036; stroke-width: 1.0;"/><path d="M279.9688,330.6094 Q279.3906,330.9063 278.75,331.0469 Q278.1094,331.2031 277.4063,331.2031 Q274.9063,331.2031 273.5781,329.5625 Q272.2656,327.9063 272.2656,324.7813 Q272.2656,321.6563 273.5781,320 Q274.9063,318.3438 277.4063,318.3438 Q278.1094,318.3438 278.75,318.5 Q279.4063,318.6563 279.9688,318.9531 L279.9688,321.6719 Q279.3438,321.0938 278.75,320.8281 Q278.1563,320.5469 277.5313,320.5469 Q276.1875,320.5469 275.5,321.625 Q274.8125,322.6875 274.8125,324.7813 Q274.8125,326.875 275.5,327.9531 Q276.1875,329.0156 277.5313,329.0156 Q278.1563,329.0156 278.75,328.75 Q279.3438,328.4688 279.9688,327.8906 L279.9688,330.6094 Z "/><text fill="#000000" font-family="sans-serif" font-size="12" font-style="italic" lengthAdjust="spacingAndGlyphs" textLength="50" x="289" y="322.1387">«entity»</text><text fill="#000000" font-family="sans-serif" font-size="12" lengthAdjust="spacingAndGlyphs" textLength="29" x="299.5" y="336.1074">User</text><line style="stroke: #A80036; stroke-width: 1.5;" x1="263" x2="339" y1="343.9375" y2="343.9375"/><line style="stroke: #A80036; stroke-width: 1.5;" x1="263" x2="339" y1="351.9375" y2="351.9375"/><!--MD5=[b4e0131843db0baec05d176ac8be6907]
link UserController to IUser--><path d="M145,88.11 C145,109.96 145,137.25 145,159.85 " fill="none" id="UserController-&gt;IUser" style="stroke: #A80036; stroke-width: 1.0;"/><polygon fill="#A80036" points="145,164.9,149,155.9,145,159.9,141,155.9,145,164.9" style="stroke: #A80036; stroke-width: 1.0;"/><text fill="#000000" font-family="sans-serif" font-size="13" lengthAdjust="spacingAndGlyphs" textLength="132" x="146" y="131.0669">block other users via</text><text fill="#000000" font-family="sans-serif" font-size="13" lengthAdjust="spacingAndGlyphs" textLength="24" x="119.1625" y="107.512">0..1</text><text fill="#000000" font-family="sans-serif" font-size="13" lengthAdjust="spacingAndGlyphs" textLength="24" x="118.9375" y="153.836">0..1</text><!--MD5=[40787511aadbbba2b47dd78871a4503b]
reverse link IUser to UserProxy--><path d="M304.11,205 C308.98,205 313.85,205 318.73,205 " fill="none" id="IUser&lt;-UserProxy" style="stroke: #A80036; stroke-width: 1.0;"/><polygon fill="none" points="304.08,212,284.08,205,304.08,198,304.08,212" style="stroke: #A80036; stroke-width: 1.0;"/><!--MD5=[9368c36af12e6c47f0176c4e9855b13c]
link IUser to User--><path d="M193.5,245.18 C216.58,263.81 243.68,285.71 264.91,302.85 " fill="none" id="IUser-&gt;User" style="stroke: #A80036; stroke-width: 1.0;"/><polygon fill="#A80036" points="268.8,305.99,264.3179,297.2201,264.9124,302.8457,259.2869,303.4402,268.8,305.99" style="stroke: #A80036; stroke-width: 1.0;"/><!--MD5=[27c106eb0d2740b42c8361fb316008da]
link UserProxy to User--><path d="M409.18,245.18 C385.97,263.81 358.68,285.71 337.33,302.85 " fill="none" id="UserProxy-&gt;User" style="stroke: #A80036; stroke-width: 1.0;"/><polygon fill="#A80036" points="333.41,305.99,342.9332,303.4785,337.3102,302.8613,337.9273,297.2382,333.41,305.99" style="stroke: #A80036; stroke-width: 1.0;"/><!--MD5=[993eab181f9e8bbb1634f3eb23df2be0]
@startuml
class UserController <<subsystem>> {
    // block user()
    // unblock user()
}

class IUser <<interface>> {
    blockUser(blockedUser: User, user: User)
    unblockUser(unblockedUser: User, user: User)
}

class UserProxy <<subsystem proxy>> {
    blockUser(blockedUser: User, user: User)
    unblockUser(unblockedUser: User, user: User)
}

class User <<entity>>

UserController "0..1" - -> "0..1" IUser : block other users via

IUser <|- UserProxy
IUser - -> User
UserProxy - -> User

@enduml

PlantUML version 1.2020.02(Sun Mar 01 10:22:07 GMT 2020)
(GPL source distribution)
Java Runtime: OpenJDK Runtime Environment
JVM: OpenJDK 64-Bit Server VM
Java Version: 11.0.8+10-post-Ubuntu-0ubuntu1
Operating System: Linux
Default Encoding: ANSI_X3.4-1968
Language: en
Country: US
--></g></svg>