<?xml version="1.0" encoding="UTF-8" standalone="no"?><svg xmlns="http://www.w3.org/2000/svg" xmlns:xlink="http://www.w3.org/1999/xlink" contentScriptType="application/ecmascript" contentStyleType="text/css" height="370px" preserveAspectRatio="none" style="width:678px;height:370px;" version="1.1" viewBox="0 0 678 370" width="678px" zoomAndPan="magnify"><defs><filter height="300%" id="f1fs7o9ckjq5m4" width="300%" x="-1" y="-1"><feGaussianBlur result="blurOut" stdDeviation="2.0"/><feColorMatrix in="blurOut" result="blurOut2" type="matrix" values="0 0 0 0 0 0 0 0 0 0 0 0 0 0 0 0 0 0 .4 0"/><feOffset dx="4.0" dy="4.0" in="blurOut2" result="blurOut3"/><feBlend in="SourceGraphic" in2="blurOut3" mode="normal"/></filter></defs><g><!--MD5=[2c8b070088f9e9a5dfda32644ea219c6]
class AuthenticationController--><rect fill="#FEFECE" filter="url(#f1fs7o9ckjq5m4)" height="79.5469" id="AuthenticationController" style="stroke: #A80036; stroke-width: 1.5;" width="185" x="70" y="8"/><ellipse cx="85" cy="26.9688" fill="#ADD1B2" rx="11" ry="11" style="stroke: #A80036; stroke-width: 1.0;"/><path d="M87.9688,32.6094 Q87.3906,32.9063 86.75,33.0469 Q86.1094,33.2031 85.4063,33.2031 Q82.9063,33.2031 81.5781,31.5625 Q80.2656,29.9063 80.2656,26.7813 Q80.2656,23.6563 81.5781,22 Q82.9063,20.3438 85.4063,20.3438 Q86.1094,20.3438 86.75,20.5 Q87.4063,20.6563 87.9688,20.9531 L87.9688,23.6719 Q87.3438,23.0938 86.75,22.8281 Q86.1563,22.5469 85.5313,22.5469 Q84.1875,22.5469 83.5,23.625 Q82.8125,24.6875 82.8125,26.7813 Q82.8125,28.875 83.5,29.9531 Q84.1875,31.0156 85.5313,31.0156 Q86.1563,31.0156 86.75,30.75 Q87.3438,30.4688 87.9688,29.8906 L87.9688,32.6094 Z "/><text fill="#000000" font-family="sans-serif" font-size="12" font-style="italic" lengthAdjust="spacingAndGlyphs" textLength="58" x="146.5" y="24.1387">«control»</text><text fill="#000000" font-family="sans-serif" font-size="12" lengthAdjust="spacingAndGlyphs" textLength="153" x="99" y="38.1074">AuthenticationController</text><line style="stroke: #A80036; stroke-width: 1.5;" x1="71" x2="254" y1="45.9375" y2="45.9375"/><line style="stroke: #A80036; stroke-width: 1.5;" x1="71" x2="254" y1="53.9375" y2="53.9375"/><text fill="#000000" font-family="sans-serif" font-size="11" lengthAdjust="spacingAndGlyphs" textLength="104" x="76" y="68.1479">// create account()</text><text fill="#000000" font-family="sans-serif" font-size="11" lengthAdjust="spacingAndGlyphs" textLength="55" x="76" y="80.9526">// log in ()</text><!--MD5=[17e524f11340f97eaa6e8f09ee98dae2]
class IAuthentication--><rect fill="#FEFECE" filter="url(#f1fs7o9ckjq5m4)" height="79.5469" id="IAuthentication" style="stroke: #A80036; stroke-width: 1.5;" width="313" x="6" y="165"/><ellipse cx="110.75" cy="183.9688" fill="#ADD1B2" rx="11" ry="11" style="stroke: #A80036; stroke-width: 1.0;"/><path d="M113.7188,189.6094 Q113.1406,189.9063 112.5,190.0469 Q111.8594,190.2031 111.1563,190.2031 Q108.6563,190.2031 107.3281,188.5625 Q106.0156,186.9063 106.0156,183.7813 Q106.0156,180.6563 107.3281,179 Q108.6563,177.3438 111.1563,177.3438 Q111.8594,177.3438 112.5,177.5 Q113.1563,177.6563 113.7188,177.9531 L113.7188,180.6719 Q113.0938,180.0938 112.5,179.8281 Q111.9063,179.5469 111.2813,179.5469 Q109.9375,179.5469 109.25,180.625 Q108.5625,181.6875 108.5625,183.7813 Q108.5625,185.875 109.25,186.9531 Q109.9375,188.0156 111.2813,188.0156 Q111.9063,188.0156 112.5,187.75 Q113.0938,187.4688 113.7188,186.8906 L113.7188,189.6094 Z "/><text fill="#000000" font-family="sans-serif" font-size="12" font-style="italic" lengthAdjust="spacingAndGlyphs" textLength="70" x="143.75" y="181.1387">«interface»</text><text fill="#000000" font-family="sans-serif" font-size="12" lengthAdjust="spacingAndGlyphs" textLength="95" x="131.25" y="195.1074">IAuthentication</text><line style="stroke: #A80036; stroke-width: 1.5;" x1="7" x2="318" y1="202.9375" y2="202.9375"/><line style="stroke: #A80036; stroke-width: 1.5;" x1="7" x2="318" y1="210.9375" y2="210.9375"/><text fill="#000000" font-family="sans-serif" font-size="11" lengthAdjust="spacingAndGlyphs" textLength="294" x="12" y="225.1479">createAccount(username: String, password: String)</text><text fill="#000000" font-family="sans-serif" font-size="11" lengthAdjust="spacingAndGlyphs" textLength="301" x="12" y="237.9526">verifyPassword(username: String, password: String)</text><!--MD5=[a139e992f8a77546bf37c14edd197f06]
class Authentication--><rect fill="#FEFECE" filter="url(#f1fs7o9ckjq5m4)" height="79.5469" id="Authentication" style="stroke: #A80036; stroke-width: 1.5;" width="313" x="354" y="165"/><ellipse cx="449.25" cy="183.9688" fill="#ADD1B2" rx="11" ry="11" style="stroke: #A80036; stroke-width: 1.0;"/><path d="M452.2188,189.6094 Q451.6406,189.9063 451,190.0469 Q450.3594,190.2031 449.6563,190.2031 Q447.1563,190.2031 445.8281,188.5625 Q444.5156,186.9063 444.5156,183.7813 Q444.5156,180.6563 445.8281,179 Q447.1563,177.3438 449.6563,177.3438 Q450.3594,177.3438 451,177.5 Q451.6563,177.6563 452.2188,177.9531 L452.2188,180.6719 Q451.5938,180.0938 451,179.8281 Q450.4063,179.5469 449.7813,179.5469 Q448.4375,179.5469 447.75,180.625 Q447.0625,181.6875 447.0625,183.7813 Q447.0625,185.875 447.75,186.9531 Q448.4375,188.0156 449.7813,188.0156 Q450.4063,188.0156 451,187.75 Q451.5938,187.4688 452.2188,186.8906 L452.2188,189.6094 Z "/><text fill="#000000" font-family="sans-serif" font-size="12" font-style="italic" lengthAdjust="spacingAndGlyphs" textLength="118" x="467.75" y="181.1387">«subsystem proxy»</text><text fill="#000000" font-family="sans-serif" font-size="12" lengthAdjust="spacingAndGlyphs" textLength="92" x="480.75" y="195.1074">Authentication</text><line style="stroke: #A80036; stroke-width: 1.5;" x1="355" x2="666" y1="202.9375" y2="202.9375"/><line style="stroke: #A80036; stroke-width: 1.5;" x1="355" x2="666" y1="210.9375" y2="210.9375"/><text fill="#000000" font-family="sans-serif" font-size="11" lengthAdjust="spacingAndGlyphs" textLength="294" x="360" y="225.1479">createAccount(username: String, password: String)</text><text fill="#000000" font-family="sans-serif" font-size="11" lengthAdjust="spacingAndGlyphs" textLength="301" x="360" y="237.9526">verifyPassword(username: String, password: String)</text><!--MD5=[3fd616f346a44cd59a91eb10b19e157c]
class User--><rect fill="#FEFECE" filter="url(#f1fs7o9ckjq5m4)" height="53.9375" id="User" style="stroke: #A80036; stroke-width: 1.5;" width="78" x="296.5" y="306"/><ellipse cx="311.5" cy="324.9688" fill="#ADD1B2" rx="11" ry="11" style="stroke: #A80036; stroke-width: 1.0;"/><path d="M314.4688,330.6094 Q313.8906,330.9063 313.25,331.0469 Q312.6094,331.2031 311.9063,331.2031 Q309.4063,331.2031 308.0781,329.5625 Q306.7656,327.9063 306.7656,324.7813 Q306.7656,321.6563 308.0781,320 Q309.4063,318.3438 311.9063,318.3438 Q312.6094,318.3438 313.25,318.5 Q313.9063,318.6563 314.4688,318.9531 L314.4688,321.6719 Q313.8438,321.0938 313.25,320.8281 Q312.6563,320.5469 312.0313,320.5469 Q310.6875,320.5469 310,321.625 Q309.3125,322.6875 309.3125,324.7813 Q309.3125,326.875 310,327.9531 Q310.6875,329.0156 312.0313,329.0156 Q312.6563,329.0156 313.25,328.75 Q313.8438,328.4688 314.4688,327.8906 L314.4688,330.6094 Z "/><text fill="#000000" font-family="sans-serif" font-size="12" font-style="italic" lengthAdjust="spacingAndGlyphs" textLength="50" x="323.5" y="322.1387">«entity»</text><text fill="#000000" font-family="sans-serif" font-size="12" lengthAdjust="spacingAndGlyphs" textLength="29" x="334" y="336.1074">User</text><line style="stroke: #A80036; stroke-width: 1.5;" x1="297.5" x2="373.5" y1="343.9375" y2="343.9375"/><line style="stroke: #A80036; stroke-width: 1.5;" x1="297.5" x2="373.5" y1="351.9375" y2="351.9375"/><!--MD5=[b98e4658a5bdd19654c2897c942533cf]
link AuthenticationController to IAuthentication--><path d="M162.5,88.11 C162.5,109.96 162.5,137.25 162.5,159.85 " fill="none" id="AuthenticationController-&gt;IAuthentication" style="stroke: #A80036; stroke-width: 1.0;"/><polygon fill="#A80036" points="162.5,164.9,166.5,155.9,162.5,159.9,158.5,155.9,162.5,164.9" style="stroke: #A80036; stroke-width: 1.0;"/><text fill="#000000" font-family="sans-serif" font-size="13" lengthAdjust="spacingAndGlyphs" textLength="172" x="163.5" y="131.0669">do authentication tasks via</text><text fill="#000000" font-family="sans-serif" font-size="13" lengthAdjust="spacingAndGlyphs" textLength="24" x="136.6625" y="107.512">0..1</text><text fill="#000000" font-family="sans-serif" font-size="13" lengthAdjust="spacingAndGlyphs" textLength="24" x="136.4375" y="153.836">0..1</text><!--MD5=[293cadbb5b60e9f3d3c719df463068c0]
reverse link IAuthentication to Authentication--><path d="M339.26,205 C344.15,205 349.03,205 353.92,205 " fill="none" id="IAuthentication&lt;-Authentication" style="stroke: #A80036; stroke-width: 1.0;"/><polygon fill="none" points="339.17,212,319.17,205,339.17,198,339.17,212" style="stroke: #A80036; stroke-width: 1.0;"/><!--MD5=[454205620a2a8604de067f1b1b3bd765]
link IAuthentication to User--><path d="M216.29,245.18 C241.88,263.81 271.94,285.71 295.47,302.85 " fill="none" id="IAuthentication-&gt;User" style="stroke: #A80036; stroke-width: 1.0;"/><polygon fill="#A80036" points="299.79,305.99,294.8676,297.4594,295.7476,303.0474,290.1596,303.9274,299.79,305.99" style="stroke: #A80036; stroke-width: 1.0;"/><!--MD5=[a8f48377e31dcd2f482bf854844d5645]
link Authentication to User--><path d="M456.09,245.18 C430.1,263.89 399.54,285.89 375.69,303.06 " fill="none" id="Authentication-&gt;User" style="stroke: #A80036; stroke-width: 1.0;"/><polygon fill="#A80036" points="371.62,305.99,381.2633,303.9881,375.6809,303.073,376.5961,297.4907,371.62,305.99" style="stroke: #A80036; stroke-width: 1.0;"/><!--MD5=[3dca5b637d2856314e97afc9461f9f97]
@startuml
class AuthenticationController <<control>> {
    // create account()
    // log in ()
}

class IAuthentication <<interface>> {
    createAccount(username: String, password: String)
    verifyPassword(username: String, password: String)
}

class Authentication <<subsystem proxy>> {
    createAccount(username: String, password: String)
    verifyPassword(username: String, password: String)
}

class User <<entity>>

AuthenticationController "0..1" - -> "0..1" IAuthentication : do authentication tasks via

IAuthentication <|- Authentication
IAuthentication - -> User
Authentication - -> User

@enduml

PlantUML version 1.2020.02(Sun Mar 01 10:22:07 GMT 2020)
(GPL source distribution)
Java Runtime: OpenJDK Runtime Environment
JVM: OpenJDK 64-Bit Server VM
Java Version: 11.0.8+10-post-Ubuntu-0ubuntu1
Operating System: Linux
Default Encoding: ANSI_X3.4-1968
Language: en
Country: US
--></g></svg>