<?xml version="1.0" encoding="UTF-8" standalone="no"?><svg xmlns="http://www.w3.org/2000/svg" xmlns:xlink="http://www.w3.org/1999/xlink" contentScriptType="application/ecmascript" contentStyleType="text/css" height="586px" preserveAspectRatio="none" style="width:523px;height:586px;" version="1.1" viewBox="0 0 523 586" width="523px" zoomAndPan="magnify"><defs><filter height="300%" id="f1fcrwkgzqamah" width="300%" x="-1" y="-1"><feGaussianBlur result="blurOut" stdDeviation="2.0"/><feColorMatrix in="blurOut" result="blurOut2" type="matrix" values="0 0 0 0 0 0 0 0 0 0 0 0 0 0 0 0 0 0 .4 0"/><feOffset dx="4.0" dy="4.0" in="blurOut2" result="blurOut3"/><feBlend in="SourceGraphic" in2="blurOut3" mode="normal"/></filter></defs><g><!--MD5=[3e002d90817961157d240122581ca1e2]
class PostController--><rect fill="#FEFECE" filter="url(#f1fcrwkgzqamah)" height="105.1563" id="PostController" style="stroke: #A80036; stroke-width: 1.5;" width="121" x="193.2" y="8"/><ellipse cx="208.2" cy="26.9688" fill="#ADD1B2" rx="11" ry="11" style="stroke: #A80036; stroke-width: 1.0;"/><path d="M211.1688,32.6094 Q210.5906,32.9063 209.95,33.0469 Q209.3094,33.2031 208.6063,33.2031 Q206.1063,33.2031 204.7781,31.5625 Q203.4656,29.9063 203.4656,26.7813 Q203.4656,23.6563 204.7781,22 Q206.1063,20.3438 208.6063,20.3438 Q209.3094,20.3438 209.95,20.5 Q210.6063,20.6563 211.1688,20.9531 L211.1688,23.6719 Q210.5438,23.0938 209.95,22.8281 Q209.3563,22.5469 208.7313,22.5469 Q207.3875,22.5469 206.7,23.625 Q206.0125,24.6875 206.0125,26.7813 Q206.0125,28.875 206.7,29.9531 Q207.3875,31.0156 208.7313,31.0156 Q209.3563,31.0156 209.95,30.75 Q210.5438,30.4688 211.1688,29.8906 L211.1688,32.6094 Z "/><text fill="#000000" font-family="sans-serif" font-size="12" font-style="italic" lengthAdjust="spacingAndGlyphs" textLength="79" x="227.2" y="24.1387">«subsystem»</text><text fill="#000000" font-family="sans-serif" font-size="12" lengthAdjust="spacingAndGlyphs" textLength="89" x="222.2" y="38.1074">PostController</text><line style="stroke: #A80036; stroke-width: 1.5;" x1="194.2" x2="313.2" y1="45.9375" y2="45.9375"/><line style="stroke: #A80036; stroke-width: 1.5;" x1="194.2" x2="313.2" y1="53.9375" y2="53.9375"/><text fill="#000000" font-family="sans-serif" font-size="11" lengthAdjust="spacingAndGlyphs" textLength="85" x="199.2" y="68.1479">// create post()</text><text fill="#000000" font-family="sans-serif" font-size="11" lengthAdjust="spacingAndGlyphs" textLength="75" x="199.2" y="80.9526">// read post()</text><text fill="#000000" font-family="sans-serif" font-size="11" lengthAdjust="spacingAndGlyphs" textLength="88" x="199.2" y="93.7573">// update post()</text><text fill="#000000" font-family="sans-serif" font-size="11" lengthAdjust="spacingAndGlyphs" textLength="84" x="199.2" y="106.562">// delete post()</text><!--MD5=[25c836496f866141ec8cd17174dd5711]
class IPost--><rect fill="#FEFECE" filter="url(#f1fcrwkgzqamah)" height="105.1563" id="IPost" style="stroke: #A80036; stroke-width: 1.5;" width="430" x="38.7" y="190"/><ellipse cx="216.45" cy="208.9688" fill="#ADD1B2" rx="11" ry="11" style="stroke: #A80036; stroke-width: 1.0;"/><path d="M219.4188,214.6094 Q218.8406,214.9063 218.2,215.0469 Q217.5594,215.2031 216.8563,215.2031 Q214.3563,215.2031 213.0281,213.5625 Q211.7156,211.9063 211.7156,208.7813 Q211.7156,205.6563 213.0281,204 Q214.3563,202.3438 216.8563,202.3438 Q217.5594,202.3438 218.2,202.5 Q218.8563,202.6563 219.4188,202.9531 L219.4188,205.6719 Q218.7938,205.0938 218.2,204.8281 Q217.6063,204.5469 216.9813,204.5469 Q215.6375,204.5469 214.95,205.625 Q214.2625,206.6875 214.2625,208.7813 Q214.2625,210.875 214.95,211.9531 Q215.6375,213.0156 216.9813,213.0156 Q217.6063,213.0156 218.2,212.75 Q218.7938,212.4688 219.4188,211.8906 L219.4188,214.6094 Z "/><text fill="#000000" font-family="sans-serif" font-size="12" font-style="italic" lengthAdjust="spacingAndGlyphs" textLength="70" x="234.95" y="206.1387">«interface»</text><text fill="#000000" font-family="sans-serif" font-size="12" lengthAdjust="spacingAndGlyphs" textLength="31" x="254.45" y="220.1074">IPost</text><line style="stroke: #A80036; stroke-width: 1.5;" x1="39.7" x2="467.7" y1="227.9375" y2="227.9375"/><line style="stroke: #A80036; stroke-width: 1.5;" x1="39.7" x2="467.7" y1="235.9375" y2="235.9375"/><text fill="#000000" font-family="sans-serif" font-size="11" lengthAdjust="spacingAndGlyphs" textLength="418" x="44.7" y="250.1479">createPost(title: String, content: String, subreddit: Subreddit, user: User)</text><text fill="#000000" font-family="sans-serif" font-size="11" lengthAdjust="spacingAndGlyphs" textLength="316" x="44.7" y="262.9526">updatePost(post: Post, newContent: String, user: User)</text><text fill="#000000" font-family="sans-serif" font-size="11" lengthAdjust="spacingAndGlyphs" textLength="195" x="44.7" y="275.7573">deletePost(post: Post, user: User)</text><text fill="#000000" font-family="sans-serif" font-size="11" lengthAdjust="spacingAndGlyphs" textLength="117" x="44.7" y="288.562">readPost(post: Post)</text><!--MD5=[61a1ff1f2e90e4f5d52417cf735e0e13]
class Core--><rect fill="#FEFECE" filter="url(#f1fcrwkgzqamah)" height="105.1563" id="Core" style="stroke: #A80036; stroke-width: 1.5;" width="430" x="38.7" y="356"/><ellipse cx="192.45" cy="374.9688" fill="#ADD1B2" rx="11" ry="11" style="stroke: #A80036; stroke-width: 1.0;"/><path d="M195.4188,380.6094 Q194.8406,380.9063 194.2,381.0469 Q193.5594,381.2031 192.8563,381.2031 Q190.3563,381.2031 189.0281,379.5625 Q187.7156,377.9063 187.7156,374.7813 Q187.7156,371.6563 189.0281,370 Q190.3563,368.3438 192.8563,368.3438 Q193.5594,368.3438 194.2,368.5 Q194.8563,368.6563 195.4188,368.9531 L195.4188,371.6719 Q194.7938,371.0938 194.2,370.8281 Q193.6063,370.5469 192.9813,370.5469 Q191.6375,370.5469 190.95,371.625 Q190.2625,372.6875 190.2625,374.7813 Q190.2625,376.875 190.95,377.9531 Q191.6375,379.0156 192.9813,379.0156 Q193.6063,379.0156 194.2,378.75 Q194.7938,378.4688 195.4188,377.8906 L195.4188,380.6094 Z "/><text fill="#000000" font-family="sans-serif" font-size="12" font-style="italic" lengthAdjust="spacingAndGlyphs" textLength="118" x="210.95" y="372.1387">«subsystem proxy»</text><text fill="#000000" font-family="sans-serif" font-size="12" lengthAdjust="spacingAndGlyphs" textLength="29" x="255.45" y="386.1074">Core</text><line style="stroke: #A80036; stroke-width: 1.5;" x1="39.7" x2="467.7" y1="393.9375" y2="393.9375"/><line style="stroke: #A80036; stroke-width: 1.5;" x1="39.7" x2="467.7" y1="401.9375" y2="401.9375"/><text fill="#000000" font-family="sans-serif" font-size="11" lengthAdjust="spacingAndGlyphs" textLength="418" x="44.7" y="416.1479">createPost(title: String, content: String, subreddit: Subreddit, user: User)</text><text fill="#000000" font-family="sans-serif" font-size="11" lengthAdjust="spacingAndGlyphs" textLength="316" x="44.7" y="428.9526">updatePost(post: Post, newContent: String, user: User)</text><text fill="#000000" font-family="sans-serif" font-size="11" lengthAdjust="spacingAndGlyphs" textLength="195" x="44.7" y="441.7573">deletePost(post: Post, user: User)</text><text fill="#000000" font-family="sans-serif" font-size="11" lengthAdjust="spacingAndGlyphs" textLength="117" x="44.7" y="454.562">readPost(post: Post)</text><!--MD5=[3fd616f346a44cd59a91eb10b19e157c]
class User--><rect fill="#FEFECE" filter="url(#f1fcrwkgzqamah)" height="53.9375" id="User" style="stroke: #A80036; stroke-width: 1.5;" width="78" x="13.7" y="522"/><ellipse cx="28.7" cy="540.9688" fill="#ADD1B2" rx="11" ry="11" style="stroke: #A80036; stroke-width: 1.0;"/><path d="M31.6688,546.6094 Q31.0906,546.9063 30.45,547.0469 Q29.8094,547.2031 29.1063,547.2031 Q26.6063,547.2031 25.2781,545.5625 Q23.9656,543.9063 23.9656,540.7813 Q23.9656,537.6563 25.2781,536 Q26.6063,534.3438 29.1063,534.3438 Q29.8094,534.3438 30.45,534.5 Q31.1063,534.6563 31.6688,534.9531 L31.6688,537.6719 Q31.0438,537.0938 30.45,536.8281 Q29.8563,536.5469 29.2313,536.5469 Q27.8875,536.5469 27.2,537.625 Q26.5125,538.6875 26.5125,540.7813 Q26.5125,542.875 27.2,543.9531 Q27.8875,545.0156 29.2313,545.0156 Q29.8563,545.0156 30.45,544.75 Q31.0438,544.4688 31.6688,543.8906 L31.6688,546.6094 Z "/><text fill="#000000" font-family="sans-serif" font-size="12" font-style="italic" lengthAdjust="spacingAndGlyphs" textLength="50" x="40.7" y="538.1387">«entity»</text><text fill="#000000" font-family="sans-serif" font-size="12" lengthAdjust="spacingAndGlyphs" textLength="29" x="51.2" y="552.1074">User</text><line style="stroke: #A80036; stroke-width: 1.5;" x1="14.7" x2="90.7" y1="559.9375" y2="559.9375"/><line style="stroke: #A80036; stroke-width: 1.5;" x1="14.7" x2="90.7" y1="567.9375" y2="567.9375"/><!--MD5=[9bb0bdd047fba1a3c8d48282c35b4537]
class Post--><rect fill="#FEFECE" filter="url(#f1fcrwkgzqamah)" height="53.9375" id="Post" style="stroke: #A80036; stroke-width: 1.5;" width="78" x="348.7" y="522"/><ellipse cx="363.7" cy="540.9688" fill="#ADD1B2" rx="11" ry="11" style="stroke: #A80036; stroke-width: 1.0;"/><path d="M366.6688,546.6094 Q366.0906,546.9063 365.45,547.0469 Q364.8094,547.2031 364.1063,547.2031 Q361.6063,547.2031 360.2781,545.5625 Q358.9656,543.9063 358.9656,540.7813 Q358.9656,537.6563 360.2781,536 Q361.6063,534.3438 364.1063,534.3438 Q364.8094,534.3438 365.45,534.5 Q366.1063,534.6563 366.6688,534.9531 L366.6688,537.6719 Q366.0438,537.0938 365.45,536.8281 Q364.8563,536.5469 364.2313,536.5469 Q362.8875,536.5469 362.2,537.625 Q361.5125,538.6875 361.5125,540.7813 Q361.5125,542.875 362.2,543.9531 Q362.8875,545.0156 364.2313,545.0156 Q364.8563,545.0156 365.45,544.75 Q366.0438,544.4688 366.6688,543.8906 L366.6688,546.6094 Z "/><text fill="#000000" font-family="sans-serif" font-size="12" font-style="italic" lengthAdjust="spacingAndGlyphs" textLength="50" x="375.7" y="538.1387">«entity»</text><text fill="#000000" font-family="sans-serif" font-size="12" lengthAdjust="spacingAndGlyphs" textLength="28" x="386.7" y="552.1074">Post</text><line style="stroke: #A80036; stroke-width: 1.5;" x1="349.7" x2="425.7" y1="559.9375" y2="559.9375"/><line style="stroke: #A80036; stroke-width: 1.5;" x1="349.7" x2="425.7" y1="567.9375" y2="567.9375"/><!--MD5=[701492eeee0d6b22f4820e1300316373]
link PostController to IPost--><path d="M253.7,113.08 C253.7,135.49 253.7,161.81 253.7,184.76 " fill="none" id="PostController-&gt;IPost" style="stroke: #A80036; stroke-width: 1.0;"/><polygon fill="#A80036" points="253.7,189.91,257.7,180.91,253.7,184.91,249.7,180.91,253.7,189.91" style="stroke: #A80036; stroke-width: 1.0;"/><text fill="#000000" font-family="sans-serif" font-size="13" lengthAdjust="spacingAndGlyphs" textLength="114" x="254.7" y="156.0669">manage posts via</text><text fill="#000000" font-family="sans-serif" font-size="13" lengthAdjust="spacingAndGlyphs" textLength="24" x="228.0875" y="133.2186">0..1</text><text fill="#000000" font-family="sans-serif" font-size="13" lengthAdjust="spacingAndGlyphs" textLength="24" x="228.0875" y="178.9007">0..1</text><!--MD5=[9529ac5c3bbf725795a4ad27a39d42b0]
reverse link IPost to Core--><path d="M253.7,315.55 C253.7,329.16 253.7,343.13 253.7,355.95 " fill="none" id="IPost&lt;-Core" style="stroke: #A80036; stroke-width: 1.0;"/><polygon fill="none" points="246.7,315.39,253.7,295.39,260.7,315.39,246.7,315.39" style="stroke: #A80036; stroke-width: 1.0;"/><!--MD5=[fbb717ef62b26ca8bcc0917fe84fbd13]
link Core to User--><path d="M178.85,461.07 C150.47,480.63 119.16,502.2 94.83,518.97 " fill="none" id="Core-&gt;User" style="stroke: #A80036; stroke-width: 1.0;"/><polygon fill="#A80036" points="90.68,521.82,100.3625,520.0174,94.8002,518.9874,95.8303,513.4251,90.68,521.82" style="stroke: #A80036; stroke-width: 1.0;"/><!--MD5=[eb96257d0cd764d2f76fa671ce7c0c75]
link Core to Post--><path d="M303.59,461.07 C322.13,480.23 342.54,501.33 358.62,517.94 " fill="none" id="Core-&gt;Post" style="stroke: #A80036; stroke-width: 1.0;"/><polygon fill="#A80036" points="362.19,521.63,358.8032,512.3818,358.7119,518.0379,353.0558,517.9467,362.19,521.63" style="stroke: #A80036; stroke-width: 1.0;"/><!--MD5=[a0d0a38bef52c9ae00c39e573ef4a366]
link IPost to User--><path d="M86.67,295.06 C60.45,310.51 36.75,330.41 20.7,356 C-10.64,405.92 15.58,476.94 35.47,517.14 " fill="none" id="IPost-&gt;User" style="stroke: #A80036; stroke-width: 1.0;"/><polygon fill="#A80036" points="37.86,521.88,37.3876,512.0425,35.6125,517.4136,30.2414,515.6385,37.86,521.88" style="stroke: #A80036; stroke-width: 1.0;"/><!--MD5=[ad85fd8179fa7a06d5e633760e6667dc]
link IPost to Post--><path d="M420.72,295.06 C446.94,310.51 470.64,330.41 486.7,356 C511.5,395.53 505.93,418.48 486.7,461 C475.16,486.5 452.03,507.5 431.04,522.47 " fill="none" id="IPost-&gt;Post" style="stroke: #A80036; stroke-width: 1.0;"/><polygon fill="#A80036" points="426.87,525.39,436.5365,523.5035,430.9655,522.5217,431.9473,516.9507,426.87,525.39" style="stroke: #A80036; stroke-width: 1.0;"/><!--MD5=[39b16f6aec58c689c2c9e9978df09abc]
@startuml
class PostController <<subsystem>> {
    // create post()
    // read post()
    // update post()
    // delete post()
}

class IPost <<interface>> {
    createPost(title: String, content: String, subreddit: Subreddit, user: User)
    updatePost(post: Post, newContent: String, user: User)
    deletePost(post: Post, user: User)
    readPost(post: Post)
}

class Core <<subsystem proxy>> {
    createPost(title: String, content: String, subreddit: Subreddit, user: User)
    updatePost(post: Post, newContent: String, user: User)
    deletePost(post: Post, user: User)
    readPost(post: Post)
}

class User <<entity>>
class Post <<entity>>

PostController "0..1" - -> "0..1" IPost : manage posts via

IPost <|- - Core
Core - -> User
Core - -> Post
IPost - -> User
IPost - -> Post

@enduml

PlantUML version 1.2020.02(Sun Mar 01 10:22:07 GMT 2020)
(GPL source distribution)
Java Runtime: OpenJDK Runtime Environment
JVM: OpenJDK 64-Bit Server VM
Java Version: 11.0.8+10-post-Ubuntu-0ubuntu1
Operating System: Linux
Default Encoding: ANSI_X3.4-1968
Language: en
Country: US
--></g></svg>