<?xml version="1.0" encoding="UTF-8" standalone="no"?><svg xmlns="http://www.w3.org/2000/svg" xmlns:xlink="http://www.w3.org/1999/xlink" contentScriptType="application/ecmascript" contentStyleType="text/css" height="351px" preserveAspectRatio="none" style="width:614px;height:351px;" version="1.1" viewBox="0 0 614 351" width="614px" zoomAndPan="magnify"><defs><filter height="300%" id="fsw7wdl794uuy" width="300%" x="-1" y="-1"><feGaussianBlur result="blurOut" stdDeviation="2.0"/><feColorMatrix in="blurOut" result="blurOut2" type="matrix" values="0 0 0 0 0 0 0 0 0 0 0 0 0 0 0 0 0 0 .4 0"/><feOffset dx="4.0" dy="4.0" in="blurOut2" result="blurOut3"/><feBlend in="SourceGraphic" in2="blurOut3" mode="normal"/></filter></defs><g><rect fill="#FFFFFF" filter="url(#fsw7wdl794uuy)" height="203.9297" style="stroke: #A80036; stroke-width: 1.0;" width="10" x="191.5" y="117.4297"/><rect fill="#FFFFFF" filter="url(#fsw7wdl794uuy)" height="145.6641" style="stroke: #A80036; stroke-width: 1.0;" width="10" x="346.5" y="146.5625"/><rect fill="#FFFFFF" filter="url(#fsw7wdl794uuy)" height="29.1328" style="stroke: #A80036; stroke-width: 1.0;" width="10" x="501.5" y="233.9609"/><rect fill="#FFFFFF" filter="url(#fsw7wdl794uuy)" height="29.1328" style="stroke: #A80036; stroke-width: 1.0;" width="10" x="566.5" y="175.6953"/><line style="stroke: #A80036; stroke-width: 1.0; stroke-dasharray: 5.0,5.0;" x1="46" x2="46" y1="86.2969" y2="339.3594"/><line style="stroke: #A80036; stroke-width: 1.0; stroke-dasharray: 5.0,5.0;" x1="196" x2="196" y1="86.2969" y2="339.3594"/><line style="stroke: #A80036; stroke-width: 1.0; stroke-dasharray: 5.0,5.0;" x1="351.5" x2="351.5" y1="86.2969" y2="339.3594"/><line style="stroke: #A80036; stroke-width: 1.0; stroke-dasharray: 5.0,5.0;" x1="506" x2="506" y1="86.2969" y2="339.3594"/><line style="stroke: #A80036; stroke-width: 1.0; stroke-dasharray: 5.0,5.0;" x1="571" x2="571" y1="86.2969" y2="339.3594"/><text fill="#000000" font-family="sans-serif" font-size="14" lengthAdjust="spacingAndGlyphs" textLength="71" x="8" y="82.9951">Moderator</text><ellipse cx="46.5" cy="13" fill="#FEFECE" filter="url(#fsw7wdl794uuy)" rx="8" ry="8" style="stroke: #A80036; stroke-width: 2.0;"/><path d="M46.5,21 L46.5,48 M33.5,29 L59.5,29 M46.5,48 L33.5,63 M46.5,48 L59.5,63 " fill="none" filter="url(#fsw7wdl794uuy)" style="stroke: #A80036; stroke-width: 2.0;"/><text fill="#000000" font-family="sans-serif" font-size="14" lengthAdjust="spacingAndGlyphs" textLength="63" x="162" y="82.9951">PostView</text><path d="M176,42 L176,66 M176,54 L193,54 " fill="none" filter="url(#fsw7wdl794uuy)" style="stroke: #A80036; stroke-width: 2.0;"/><ellipse cx="205" cy="54" fill="#FEFECE" filter="url(#fsw7wdl794uuy)" rx="12" ry="12" style="stroke: #A80036; stroke-width: 2.0;"/><text fill="#000000" font-family="sans-serif" font-size="14" lengthAdjust="spacingAndGlyphs" textLength="98" x="299.5" y="82.9951">PostController</text><ellipse cx="351.5" cy="54" fill="#FEFECE" filter="url(#fsw7wdl794uuy)" rx="12" ry="12" style="stroke: #A80036; stroke-width: 2.0;"/><polygon fill="#A80036" points="347.5,42,353.5,37,351.5,42,353.5,47,347.5,42" style="stroke: #A80036; stroke-width: 1.0;"/><text fill="#000000" font-family="sans-serif" font-size="14" lengthAdjust="spacingAndGlyphs" textLength="31" x="488" y="82.9951">Post</text><ellipse cx="506.5" cy="54" fill="#FEFECE" filter="url(#fsw7wdl794uuy)" rx="12" ry="12" style="stroke: #A80036; stroke-width: 2.0;"/><line style="stroke: #A80036; stroke-width: 2.0;" x1="494.5" x2="518.5" y1="68" y2="68"/><text fill="#000000" font-family="sans-serif" font-size="14" lengthAdjust="spacingAndGlyphs" textLength="67" x="535" y="82.9951">Subreddit</text><ellipse cx="571.5" cy="54" fill="#FEFECE" filter="url(#fsw7wdl794uuy)" rx="12" ry="12" style="stroke: #A80036; stroke-width: 2.0;"/><line style="stroke: #A80036; stroke-width: 2.0;" x1="559.5" x2="583.5" y1="68" y2="68"/><rect fill="#FFFFFF" filter="url(#fsw7wdl794uuy)" height="203.9297" style="stroke: #A80036; stroke-width: 1.0;" width="10" x="191.5" y="117.4297"/><rect fill="#FFFFFF" filter="url(#fsw7wdl794uuy)" height="145.6641" style="stroke: #A80036; stroke-width: 1.0;" width="10" x="346.5" y="146.5625"/><rect fill="#FFFFFF" filter="url(#fsw7wdl794uuy)" height="29.1328" style="stroke: #A80036; stroke-width: 1.0;" width="10" x="501.5" y="233.9609"/><rect fill="#FFFFFF" filter="url(#fsw7wdl794uuy)" height="29.1328" style="stroke: #A80036; stroke-width: 1.0;" width="10" x="566.5" y="175.6953"/><polygon fill="#A80036" points="179.5,113.4297,189.5,117.4297,179.5,121.4297,183.5,117.4297" style="stroke: #A80036; stroke-width: 1.0;"/><line style="stroke: #A80036; stroke-width: 1.0;" x1="46.5" x2="185.5" y1="117.4297" y2="117.4297"/><text fill="#000000" font-family="sans-serif" font-size="13" font-weight="bold" lengthAdjust="spacingAndGlyphs" textLength="9" x="53.5" y="112.3638">1</text><text fill="#000000" font-family="sans-serif" font-size="13" lengthAdjust="spacingAndGlyphs" textLength="113" x="66.5" y="112.3638">// lock comment()</text><polygon fill="#A80036" points="334.5,142.5625,344.5,146.5625,334.5,150.5625,338.5,146.5625" style="stroke: #A80036; stroke-width: 1.0;"/><line style="stroke: #A80036; stroke-width: 1.0;" x1="201.5" x2="340.5" y1="146.5625" y2="146.5625"/><text fill="#000000" font-family="sans-serif" font-size="13" font-weight="bold" lengthAdjust="spacingAndGlyphs" textLength="9" x="208.5" y="141.4966">2</text><text fill="#000000" font-family="sans-serif" font-size="13" lengthAdjust="spacingAndGlyphs" textLength="113" x="221.5" y="141.4966">// lock comment()</text><polygon fill="#A80036" points="554.5,171.6953,564.5,175.6953,554.5,179.6953,558.5,175.6953" style="stroke: #A80036; stroke-width: 1.0;"/><line style="stroke: #A80036; stroke-width: 1.0;" x1="356.5" x2="560.5" y1="175.6953" y2="175.6953"/><text fill="#000000" font-family="sans-serif" font-size="13" font-weight="bold" lengthAdjust="spacingAndGlyphs" textLength="9" x="363.5" y="170.6294">3</text><text fill="#000000" font-family="sans-serif" font-size="13" lengthAdjust="spacingAndGlyphs" textLength="131" x="376.5" y="170.6294">// check moderator()</text><polygon fill="#A80036" points="367.5,200.8281,357.5,204.8281,367.5,208.8281,363.5,204.8281" style="stroke: #A80036; stroke-width: 1.0;"/><line style="stroke: #A80036; stroke-width: 1.0; stroke-dasharray: 2.0,2.0;" x1="361.5" x2="570.5" y1="204.8281" y2="204.8281"/><text fill="#000000" font-family="sans-serif" font-size="13" font-weight="bold" lengthAdjust="spacingAndGlyphs" textLength="9" x="373.5" y="199.7622">4</text><text fill="#000000" font-family="sans-serif" font-size="13" lengthAdjust="spacingAndGlyphs" textLength="0" x="390.5" y="199.7622"/><polygon fill="#A80036" points="489.5,229.9609,499.5,233.9609,489.5,237.9609,493.5,233.9609" style="stroke: #A80036; stroke-width: 1.0;"/><line style="stroke: #A80036; stroke-width: 1.0;" x1="356.5" x2="495.5" y1="233.9609" y2="233.9609"/><text fill="#000000" font-family="sans-serif" font-size="13" font-weight="bold" lengthAdjust="spacingAndGlyphs" textLength="9" x="363.5" y="228.895">5</text><text fill="#000000" font-family="sans-serif" font-size="13" lengthAdjust="spacingAndGlyphs" textLength="113" x="376.5" y="228.895">// lock comment()</text><polygon fill="#A80036" points="367.5,259.0938,357.5,263.0938,367.5,267.0938,363.5,263.0938" style="stroke: #A80036; stroke-width: 1.0;"/><line style="stroke: #A80036; stroke-width: 1.0; stroke-dasharray: 2.0,2.0;" x1="361.5" x2="505.5" y1="263.0938" y2="263.0938"/><text fill="#000000" font-family="sans-serif" font-size="13" font-weight="bold" lengthAdjust="spacingAndGlyphs" textLength="9" x="373.5" y="258.0278">6</text><text fill="#000000" font-family="sans-serif" font-size="13" lengthAdjust="spacingAndGlyphs" textLength="0" x="390.5" y="258.0278"/><polygon fill="#A80036" points="212.5,288.2266,202.5,292.2266,212.5,296.2266,208.5,292.2266" style="stroke: #A80036; stroke-width: 1.0;"/><line style="stroke: #A80036; stroke-width: 1.0; stroke-dasharray: 2.0,2.0;" x1="206.5" x2="350.5" y1="292.2266" y2="292.2266"/><text fill="#000000" font-family="sans-serif" font-size="13" font-weight="bold" lengthAdjust="spacingAndGlyphs" textLength="9" x="218.5" y="287.1606">7</text><text fill="#000000" font-family="sans-serif" font-size="13" lengthAdjust="spacingAndGlyphs" textLength="0" x="235.5" y="287.1606"/><polygon fill="#A80036" points="57.5,317.3594,47.5,321.3594,57.5,325.3594,53.5,321.3594" style="stroke: #A80036; stroke-width: 1.0;"/><line style="stroke: #A80036; stroke-width: 1.0; stroke-dasharray: 2.0,2.0;" x1="51.5" x2="195.5" y1="321.3594" y2="321.3594"/><text fill="#000000" font-family="sans-serif" font-size="13" font-weight="bold" lengthAdjust="spacingAndGlyphs" textLength="9" x="63.5" y="316.2935">8</text><text fill="#000000" font-family="sans-serif" font-size="13" lengthAdjust="spacingAndGlyphs" textLength="0" x="80.5" y="316.2935"/><!--MD5=[24bc67219f393c4ad4bb7411664e8715]
@startuml

hide footbox
autoactivate on

actor Moderator as mod
boundary PostView as post_view
control PostController as post_ctl
entity Post as post_ent
entity Subreddit as sub_ent

autonumber

mod -> post_view : // lock comment()
post_view -> post_ctl : // lock comment()
post_ctl -> sub_ent : // check moderator()
post_ctl <- - sub_ent
post_ctl -> post_ent : // lock comment()
post_ent - -> post_ctl
post_ctl - -> post_view
post_view - -> mod

@enduml

PlantUML version 1.2020.02(Sun Mar 01 10:22:07 GMT 2020)
(GPL source distribution)
Java Runtime: OpenJDK Runtime Environment
JVM: OpenJDK 64-Bit Server VM
Java Version: 11.0.8+10-post-Ubuntu-0ubuntu1
Operating System: Linux
Default Encoding: ANSI_X3.4-1968
Language: en
Country: US
--></g></svg>