<?xml version="1.0" encoding="UTF-8" standalone="no"?><svg xmlns="http://www.w3.org/2000/svg" xmlns:xlink="http://www.w3.org/1999/xlink" contentScriptType="application/ecmascript" contentStyleType="text/css" height="682px" preserveAspectRatio="none" style="width:660px;height:682px;" version="1.1" viewBox="0 0 660 682" width="660px" zoomAndPan="magnify"><defs><filter height="300%" id="fcv3qffhlihuk" width="300%" x="-1" y="-1"><feGaussianBlur result="blurOut" stdDeviation="2.0"/><feColorMatrix in="blurOut" result="blurOut2" type="matrix" values="0 0 0 0 0 0 0 0 0 0 0 0 0 0 0 0 0 0 .4 0"/><feOffset dx="4.0" dy="4.0" in="blurOut2" result="blurOut3"/><feBlend in="SourceGraphic" in2="blurOut3" mode="normal"/></filter></defs><g><rect fill="#FFFFFF" filter="url(#fcv3qffhlihuk)" height="528.125" style="stroke: #A80036; stroke-width: 1.0;" width="10" x="167" y="117.4297"/><rect fill="#FFFFFF" filter="url(#fcv3qffhlihuk)" height="28" style="stroke: #A80036; stroke-width: 1.0;" width="10" x="172" y="271.0938"/><rect fill="#FFFFFF" filter="url(#fcv3qffhlihuk)" height="275.1953" style="stroke: #A80036; stroke-width: 1.0;" width="10" x="172" y="335.2266"/><rect fill="#FFFFFF" filter="url(#fcv3qffhlihuk)" height="216.9297" style="stroke: #A80036; stroke-width: 1.0;" width="10" x="311" y="393.4922"/><rect fill="#FFFFFF" filter="url(#fcv3qffhlihuk)" height="150.6641" style="stroke: #A80036; stroke-width: 1.0;" width="10" x="316" y="430.625"/><rect fill="#FFFFFF" filter="url(#fcv3qffhlihuk)" height="116.5313" style="stroke: #A80036; stroke-width: 1.0;" width="10" x="321" y="464.7578"/><rect fill="#FFFFFF" filter="url(#fcv3qffhlihuk)" height="87.3984" style="stroke: #A80036; stroke-width: 1.0;" width="10" x="476" y="146.5625"/><rect fill="#FFFFFF" filter="url(#fcv3qffhlihuk)" height="216.9297" style="stroke: #A80036; stroke-width: 1.0;" width="10" x="476" y="364.3594"/><rect fill="#FFFFFF" filter="url(#fcv3qffhlihuk)" height="87.3984" style="stroke: #A80036; stroke-width: 1.0;" width="10" x="481" y="493.8906"/><rect fill="#FFFFFF" filter="url(#fcv3qffhlihuk)" height="29.1328" style="stroke: #A80036; stroke-width: 1.0;" width="10" x="631" y="175.6953"/><rect fill="#FFFFFF" filter="url(#fcv3qffhlihuk)" height="29.1328" style="stroke: #A80036; stroke-width: 1.0;" width="10" x="631" y="523.0234"/><line style="stroke: #A80036; stroke-width: 1.0; stroke-dasharray: 5.0,5.0;" x1="27" x2="27" y1="86.2969" y2="670.5547"/><line style="stroke: #A80036; stroke-width: 1.0; stroke-dasharray: 5.0,5.0;" x1="171.5" x2="171.5" y1="86.2969" y2="670.5547"/><line style="stroke: #A80036; stroke-width: 1.0; stroke-dasharray: 5.0,5.0;" x1="316" x2="316" y1="86.2969" y2="670.5547"/><line style="stroke: #A80036; stroke-width: 1.0; stroke-dasharray: 5.0,5.0;" x1="481" x2="481" y1="86.2969" y2="670.5547"/><line style="stroke: #A80036; stroke-width: 1.0; stroke-dasharray: 5.0,5.0;" x1="635.5" x2="635.5" y1="86.2969" y2="670.5547"/><text fill="#000000" font-family="sans-serif" font-size="14" lengthAdjust="spacingAndGlyphs" textLength="32" x="8" y="82.9951">User</text><ellipse cx="27" cy="13" fill="#FEFECE" filter="url(#fcv3qffhlihuk)" rx="8" ry="8" style="stroke: #A80036; stroke-width: 2.0;"/><path d="M27,21 L27,48 M14,29 L40,29 M27,48 L14,63 M27,48 L40,63 " fill="none" filter="url(#fcv3qffhlihuk)" style="stroke: #A80036; stroke-width: 2.0;"/><text fill="#000000" font-family="sans-serif" font-size="14" lengthAdjust="spacingAndGlyphs" textLength="63" x="137.5" y="82.9951">PostView</text><path d="M151.5,42 L151.5,66 M151.5,54 L168.5,54 " fill="none" filter="url(#fcv3qffhlihuk)" style="stroke: #A80036; stroke-width: 2.0;"/><ellipse cx="180.5" cy="54" fill="#FEFECE" filter="url(#fcv3qffhlihuk)" rx="12" ry="12" style="stroke: #A80036; stroke-width: 2.0;"/><text fill="#000000" font-family="sans-serif" font-size="14" lengthAdjust="spacingAndGlyphs" textLength="66" x="280" y="82.9951">PostForm</text><path d="M295.5,42 L295.5,66 M295.5,54 L312.5,54 " fill="none" filter="url(#fcv3qffhlihuk)" style="stroke: #A80036; stroke-width: 2.0;"/><ellipse cx="324.5" cy="54" fill="#FEFECE" filter="url(#fcv3qffhlihuk)" rx="12" ry="12" style="stroke: #A80036; stroke-width: 2.0;"/><text fill="#000000" font-family="sans-serif" font-size="14" lengthAdjust="spacingAndGlyphs" textLength="98" x="429" y="82.9951">PostController</text><ellipse cx="481" cy="54" fill="#FEFECE" filter="url(#fcv3qffhlihuk)" rx="12" ry="12" style="stroke: #A80036; stroke-width: 2.0;"/><polygon fill="#A80036" points="477,42,483,37,481,42,483,47,477,42" style="stroke: #A80036; stroke-width: 1.0;"/><text fill="#000000" font-family="sans-serif" font-size="14" lengthAdjust="spacingAndGlyphs" textLength="31" x="617.5" y="82.9951">Post</text><ellipse cx="636" cy="54" fill="#FEFECE" filter="url(#fcv3qffhlihuk)" rx="12" ry="12" style="stroke: #A80036; stroke-width: 2.0;"/><line style="stroke: #A80036; stroke-width: 2.0;" x1="624" x2="648" y1="68" y2="68"/><rect fill="#FFFFFF" filter="url(#fcv3qffhlihuk)" height="528.125" style="stroke: #A80036; stroke-width: 1.0;" width="10" x="167" y="117.4297"/><rect fill="#FFFFFF" filter="url(#fcv3qffhlihuk)" height="28" style="stroke: #A80036; stroke-width: 1.0;" width="10" x="172" y="271.0938"/><rect fill="#FFFFFF" filter="url(#fcv3qffhlihuk)" height="275.1953" style="stroke: #A80036; stroke-width: 1.0;" width="10" x="172" y="335.2266"/><rect fill="#FFFFFF" filter="url(#fcv3qffhlihuk)" height="216.9297" style="stroke: #A80036; stroke-width: 1.0;" width="10" x="311" y="393.4922"/><rect fill="#FFFFFF" filter="url(#fcv3qffhlihuk)" height="150.6641" style="stroke: #A80036; stroke-width: 1.0;" width="10" x="316" y="430.625"/><rect fill="#FFFFFF" filter="url(#fcv3qffhlihuk)" height="116.5313" style="stroke: #A80036; stroke-width: 1.0;" width="10" x="321" y="464.7578"/><rect fill="#FFFFFF" filter="url(#fcv3qffhlihuk)" height="87.3984" style="stroke: #A80036; stroke-width: 1.0;" width="10" x="476" y="146.5625"/><rect fill="#FFFFFF" filter="url(#fcv3qffhlihuk)" height="216.9297" style="stroke: #A80036; stroke-width: 1.0;" width="10" x="476" y="364.3594"/><rect fill="#FFFFFF" filter="url(#fcv3qffhlihuk)" height="87.3984" style="stroke: #A80036; stroke-width: 1.0;" width="10" x="481" y="493.8906"/><rect fill="#FFFFFF" filter="url(#fcv3qffhlihuk)" height="29.1328" style="stroke: #A80036; stroke-width: 1.0;" width="10" x="631" y="175.6953"/><rect fill="#FFFFFF" filter="url(#fcv3qffhlihuk)" height="29.1328" style="stroke: #A80036; stroke-width: 1.0;" width="10" x="631" y="523.0234"/><polygon fill="#A80036" points="155,113.4297,165,117.4297,155,121.4297,159,117.4297" style="stroke: #A80036; stroke-width: 1.0;"/><line style="stroke: #A80036; stroke-width: 1.0;" x1="27" x2="161" y1="117.4297" y2="117.4297"/><text fill="#000000" font-family="sans-serif" font-size="13" font-weight="bold" lengthAdjust="spacingAndGlyphs" textLength="9" x="34" y="112.3638">1</text><text fill="#000000" font-family="sans-serif" font-size="13" lengthAdjust="spacingAndGlyphs" textLength="86" x="47" y="112.3638">// open post()</text><polygon fill="#A80036" points="464,142.5625,474,146.5625,464,150.5625,468,146.5625" style="stroke: #A80036; stroke-width: 1.0;"/><line style="stroke: #A80036; stroke-width: 1.0;" x1="177" x2="470" y1="146.5625" y2="146.5625"/><text fill="#000000" font-family="sans-serif" font-size="13" font-weight="bold" lengthAdjust="spacingAndGlyphs" textLength="9" x="184" y="141.4966">2</text><text fill="#000000" font-family="sans-serif" font-size="13" lengthAdjust="spacingAndGlyphs" textLength="75" x="197" y="141.4966">// get post()</text><polygon fill="#A80036" points="619,171.6953,629,175.6953,619,179.6953,623,175.6953" style="stroke: #A80036; stroke-width: 1.0;"/><line style="stroke: #A80036; stroke-width: 1.0;" x1="486" x2="625" y1="175.6953" y2="175.6953"/><text fill="#000000" font-family="sans-serif" font-size="13" font-weight="bold" lengthAdjust="spacingAndGlyphs" textLength="9" x="493" y="170.6294">3</text><text fill="#000000" font-family="sans-serif" font-size="13" lengthAdjust="spacingAndGlyphs" textLength="75" x="506" y="170.6294">// get post()</text><polygon fill="#A80036" points="497,200.8281,487,204.8281,497,208.8281,493,204.8281" style="stroke: #A80036; stroke-width: 1.0;"/><line style="stroke: #A80036; stroke-width: 1.0; stroke-dasharray: 2.0,2.0;" x1="491" x2="635" y1="204.8281" y2="204.8281"/><text fill="#000000" font-family="sans-serif" font-size="13" font-weight="bold" lengthAdjust="spacingAndGlyphs" textLength="9" x="503" y="199.7622">4</text><text fill="#000000" font-family="sans-serif" font-size="13" lengthAdjust="spacingAndGlyphs" textLength="0" x="520" y="199.7622"/><polygon fill="#A80036" points="188,229.9609,178,233.9609,188,237.9609,184,233.9609" style="stroke: #A80036; stroke-width: 1.0;"/><line style="stroke: #A80036; stroke-width: 1.0; stroke-dasharray: 2.0,2.0;" x1="182" x2="480" y1="233.9609" y2="233.9609"/><text fill="#000000" font-family="sans-serif" font-size="13" font-weight="bold" lengthAdjust="spacingAndGlyphs" textLength="9" x="194" y="228.895">5</text><text fill="#000000" font-family="sans-serif" font-size="13" lengthAdjust="spacingAndGlyphs" textLength="0" x="211" y="228.895"/><line style="stroke: #A80036; stroke-width: 1.0;" x1="182" x2="224" y1="263.0938" y2="263.0938"/><line style="stroke: #A80036; stroke-width: 1.0;" x1="224" x2="224" y1="263.0938" y2="276.0938"/><line style="stroke: #A80036; stroke-width: 1.0;" x1="183" x2="224" y1="276.0938" y2="276.0938"/><polygon fill="#A80036" points="193,272.0938,183,276.0938,193,280.0938,189,276.0938" style="stroke: #A80036; stroke-width: 1.0;"/><text fill="#000000" font-family="sans-serif" font-size="13" font-weight="bold" lengthAdjust="spacingAndGlyphs" textLength="9" x="189" y="258.0278">6</text><text fill="#000000" font-family="sans-serif" font-size="13" lengthAdjust="spacingAndGlyphs" textLength="98" x="202" y="258.0278">// display post()</text><polygon fill="#A80036" points="160,331.2266,170,335.2266,160,339.2266,164,335.2266" style="stroke: #A80036; stroke-width: 1.0;"/><line style="stroke: #A80036; stroke-width: 1.0;" x1="27" x2="166" y1="335.2266" y2="335.2266"/><text fill="#000000" font-family="sans-serif" font-size="13" font-weight="bold" lengthAdjust="spacingAndGlyphs" textLength="9" x="34" y="330.1606">7</text><text fill="#000000" font-family="sans-serif" font-size="13" lengthAdjust="spacingAndGlyphs" textLength="103" x="47" y="330.1606">// start editing ()</text><polygon fill="#A80036" points="464,360.3594,474,364.3594,464,368.3594,468,364.3594" style="stroke: #A80036; stroke-width: 1.0;"/><line style="stroke: #A80036; stroke-width: 1.0;" x1="182" x2="470" y1="364.3594" y2="364.3594"/><text fill="#000000" font-family="sans-serif" font-size="13" font-weight="bold" lengthAdjust="spacingAndGlyphs" textLength="9" x="189" y="359.2935">8</text><text fill="#000000" font-family="sans-serif" font-size="13" lengthAdjust="spacingAndGlyphs" textLength="99" x="202" y="359.2935">// start editing()</text><polygon fill="#A80036" points="332,389.4922,322,393.4922,332,397.4922,328,393.4922" style="stroke: #A80036; stroke-width: 1.0;"/><line style="stroke: #A80036; stroke-width: 1.0;" x1="326" x2="475" y1="393.4922" y2="393.4922"/><text fill="#000000" font-family="sans-serif" font-size="13" font-weight="bold" lengthAdjust="spacingAndGlyphs" textLength="9" x="338" y="388.4263">9</text><text fill="#000000" font-family="sans-serif" font-size="13" lengthAdjust="spacingAndGlyphs" textLength="120" x="351" y="388.4263">// open post form()</text><line style="stroke: #A80036; stroke-width: 1.0;" x1="321" x2="368" y1="417.625" y2="417.625"/><line style="stroke: #A80036; stroke-width: 1.0;" x1="368" x2="368" y1="417.625" y2="430.625"/><line style="stroke: #A80036; stroke-width: 1.0;" x1="327" x2="368" y1="430.625" y2="430.625"/><polygon fill="#A80036" points="337,426.625,327,430.625,337,434.625,333,430.625" style="stroke: #A80036; stroke-width: 1.0;"/><text fill="#000000" font-family="sans-serif" font-size="13" font-weight="bold" lengthAdjust="spacingAndGlyphs" textLength="18" x="333" y="412.5591">10</text><text fill="#000000" font-family="sans-serif" font-size="13" lengthAdjust="spacingAndGlyphs" textLength="66" x="355" y="412.5591">// display()</text><polygon fill="#A80036" points="309,460.7578,319,464.7578,309,468.7578,313,464.7578" style="stroke: #A80036; stroke-width: 1.0;"/><line style="stroke: #A80036; stroke-width: 1.0;" x1="27" x2="315" y1="464.7578" y2="464.7578"/><text fill="#000000" font-family="sans-serif" font-size="13" font-weight="bold" lengthAdjust="spacingAndGlyphs" textLength="18" x="34" y="459.6919">11</text><text fill="#000000" font-family="sans-serif" font-size="13" lengthAdjust="spacingAndGlyphs" textLength="126" x="56" y="459.6919">// submit post edit()</text><polygon fill="#A80036" points="469,489.8906,479,493.8906,469,497.8906,473,493.8906" style="stroke: #A80036; stroke-width: 1.0;"/><line style="stroke: #A80036; stroke-width: 1.0;" x1="331" x2="475" y1="493.8906" y2="493.8906"/><text fill="#000000" font-family="sans-serif" font-size="13" font-weight="bold" lengthAdjust="spacingAndGlyphs" textLength="18" x="338" y="488.8247">12</text><text fill="#000000" font-family="sans-serif" font-size="13" lengthAdjust="spacingAndGlyphs" textLength="99" x="360" y="488.8247">// update post()</text><polygon fill="#A80036" points="619,519.0234,629,523.0234,619,527.0234,623,523.0234" style="stroke: #A80036; stroke-width: 1.0;"/><line style="stroke: #A80036; stroke-width: 1.0;" x1="491" x2="625" y1="523.0234" y2="523.0234"/><text fill="#000000" font-family="sans-serif" font-size="13" font-weight="bold" lengthAdjust="spacingAndGlyphs" textLength="18" x="498" y="517.9575">13</text><text fill="#000000" font-family="sans-serif" font-size="13" lengthAdjust="spacingAndGlyphs" textLength="99" x="520" y="517.9575">// update post()</text><polygon fill="#A80036" points="502,548.1563,492,552.1563,502,556.1563,498,552.1563" style="stroke: #A80036; stroke-width: 1.0;"/><line style="stroke: #A80036; stroke-width: 1.0; stroke-dasharray: 2.0,2.0;" x1="496" x2="635" y1="552.1563" y2="552.1563"/><text fill="#000000" font-family="sans-serif" font-size="13" font-weight="bold" lengthAdjust="spacingAndGlyphs" textLength="18" x="508" y="547.0903">14</text><text fill="#000000" font-family="sans-serif" font-size="13" lengthAdjust="spacingAndGlyphs" textLength="0" x="534" y="547.0903"/><polygon fill="#A80036" points="332,577.2891,322,581.2891,332,585.2891,328,581.2891" style="stroke: #A80036; stroke-width: 1.0;"/><line style="stroke: #A80036; stroke-width: 1.0; stroke-dasharray: 2.0,2.0;" x1="326" x2="480" y1="581.2891" y2="581.2891"/><text fill="#000000" font-family="sans-serif" font-size="13" font-weight="bold" lengthAdjust="spacingAndGlyphs" textLength="18" x="338" y="576.2231">15</text><text fill="#000000" font-family="sans-serif" font-size="13" lengthAdjust="spacingAndGlyphs" textLength="0" x="364" y="576.2231"/><polygon fill="#A80036" points="188,606.4219,178,610.4219,188,614.4219,184,610.4219" style="stroke: #A80036; stroke-width: 1.0;"/><line style="stroke: #A80036; stroke-width: 1.0; stroke-dasharray: 2.0,2.0;" x1="182" x2="315" y1="610.4219" y2="610.4219"/><text fill="#000000" font-family="sans-serif" font-size="13" font-weight="bold" lengthAdjust="spacingAndGlyphs" textLength="18" x="194" y="605.356">16</text><text fill="#000000" font-family="sans-serif" font-size="13" lengthAdjust="spacingAndGlyphs" textLength="0" x="220" y="605.356"/><line style="stroke: #A80036; stroke-width: 1.0; stroke-dasharray: 2.0,2.0;" x1="177" x2="219" y1="644.5547" y2="644.5547"/><line style="stroke: #A80036; stroke-width: 1.0; stroke-dasharray: 2.0,2.0;" x1="219" x2="219" y1="644.5547" y2="657.5547"/><line style="stroke: #A80036; stroke-width: 1.0; stroke-dasharray: 2.0,2.0;" x1="172" x2="219" y1="657.5547" y2="657.5547"/><polygon fill="#A80036" points="182,653.5547,172,657.5547,182,661.5547,178,657.5547" style="stroke: #A80036; stroke-width: 1.0;"/><text fill="#000000" font-family="sans-serif" font-size="13" font-weight="bold" lengthAdjust="spacingAndGlyphs" textLength="18" x="184" y="639.4888">17</text><text fill="#000000" font-family="sans-serif" font-size="13" lengthAdjust="spacingAndGlyphs" textLength="98" x="206" y="639.4888">// display post()</text><!--MD5=[0e9745f3a6a2a6e0ba7420074499d70d]
@startuml

hide footbox
autoactivate on

actor User as user
boundary PostView as post_view
boundary PostForm as post_form
control PostController as post_ctl
entity Post as post_ent

autonumber

user -> post_view : // open post()
post_view -> post_ctl : // get post()
post_ctl -> post_ent : // get post()
post_ctl <- - post_ent
post_view <- - post_ctl
post_view -> post_view : // display post()

deactivate post_view
user -> post_view : // start editing ()
post_view -> post_ctl : // start editing()
post_ctl -> post_form : // open post form()
post_form -> post_form : // display()
user -> post_form : // submit post edit()
post_form -> post_ctl : // update post()
post_ctl -> post_ent : // update post()
post_ctl <- - post_ent
post_form <- - post_ctl
deactivate post_ctl
deactivate post_form
deactivate post_form
post_view <- - post_form
deactivate post_view

post_view - -> post_view : // display post()


@enduml

PlantUML version 1.2020.02(Sun Mar 01 10:22:07 GMT 2020)
(GPL source distribution)
Java Runtime: OpenJDK Runtime Environment
JVM: OpenJDK 64-Bit Server VM
Java Version: 11.0.8+10-post-Ubuntu-0ubuntu1
Operating System: Linux
Default Encoding: ANSI_X3.4-1968
Language: en
Country: US
--></g></svg>