<?xml version="1.0" encoding="UTF-8" standalone="no"?><svg xmlns="http://www.w3.org/2000/svg" xmlns:xlink="http://www.w3.org/1999/xlink" contentScriptType="application/ecmascript" contentStyleType="text/css" height="539px" preserveAspectRatio="none" style="width:659px;height:539px;" version="1.1" viewBox="0 0 659 539" width="659px" zoomAndPan="magnify"><defs><filter height="300%" id="fl94mixvkmo32" width="300%" x="-1" y="-1"><feGaussianBlur result="blurOut" stdDeviation="2.0"/><feColorMatrix in="blurOut" result="blurOut2" type="matrix" values="0 0 0 0 0 0 0 0 0 0 0 0 0 0 0 0 0 0 .4 0"/><feOffset dx="4.0" dy="4.0" in="blurOut2" result="blurOut3"/><feBlend in="SourceGraphic" in2="blurOut3" mode="normal"/></filter></defs><g><rect fill="#FFFFFF" filter="url(#fl94mixvkmo32)" height="255.0625" style="stroke: #A80036; stroke-width: 1.0;" width="10" x="213" y="263.0938"/><rect fill="#FFFFFF" filter="url(#fl94mixvkmo32)" height="217.9297" style="stroke: #A80036; stroke-width: 1.0;" width="10" x="218" y="300.2266"/><rect fill="#FFFFFF" filter="url(#fl94mixvkmo32)" height="29.1328" style="stroke: #A80036; stroke-width: 1.0;" width="10" x="223" y="334.3594"/><rect fill="#FFFFFF" filter="url(#fl94mixvkmo32)" height="116.5313" style="stroke: #A80036; stroke-width: 1.0;" width="10" x="223" y="392.625"/><rect fill="#FFFFFF" filter="url(#fl94mixvkmo32)" height="116.5313" style="stroke: #A80036; stroke-width: 1.0;" width="10" x="348" y="117.4297"/><rect fill="#FFFFFF" filter="url(#fl94mixvkmo32)" height="87.3984" style="stroke: #A80036; stroke-width: 1.0;" width="10" x="485" y="146.5625"/><rect fill="#FFFFFF" filter="url(#fl94mixvkmo32)" height="87.3984" style="stroke: #A80036; stroke-width: 1.0;" width="10" x="485" y="421.7578"/><rect fill="#FFFFFF" filter="url(#fl94mixvkmo32)" height="29.1328" style="stroke: #A80036; stroke-width: 1.0;" width="10" x="630" y="175.6953"/><rect fill="#FFFFFF" filter="url(#fl94mixvkmo32)" height="29.1328" style="stroke: #A80036; stroke-width: 1.0;" width="10" x="630" y="450.8906"/><line style="stroke: #A80036; stroke-width: 1.0; stroke-dasharray: 5.0,5.0;" x1="27" x2="27" y1="86.2969" y2="527.1563"/><line style="stroke: #A80036; stroke-width: 1.0; stroke-dasharray: 5.0,5.0;" x1="217.5" x2="217.5" y1="86.2969" y2="527.1563"/><line style="stroke: #A80036; stroke-width: 1.0; stroke-dasharray: 5.0,5.0;" x1="353" x2="353" y1="86.2969" y2="527.1563"/><line style="stroke: #A80036; stroke-width: 1.0; stroke-dasharray: 5.0,5.0;" x1="490" x2="490" y1="86.2969" y2="527.1563"/><line style="stroke: #A80036; stroke-width: 1.0; stroke-dasharray: 5.0,5.0;" x1="634.5" x2="634.5" y1="86.2969" y2="527.1563"/><text fill="#000000" font-family="sans-serif" font-size="14" lengthAdjust="spacingAndGlyphs" textLength="32" x="8" y="82.9951">User</text><ellipse cx="27" cy="13" fill="#FEFECE" filter="url(#fl94mixvkmo32)" rx="8" ry="8" style="stroke: #A80036; stroke-width: 2.0;"/><path d="M27,21 L27,48 M14,29 L40,29 M27,48 L14,63 M27,48 L40,63 " fill="none" filter="url(#fl94mixvkmo32)" style="stroke: #A80036; stroke-width: 2.0;"/><text fill="#000000" font-family="sans-serif" font-size="14" lengthAdjust="spacingAndGlyphs" textLength="63" x="183.5" y="82.9951">PostView</text><path d="M197.5,42 L197.5,66 M197.5,54 L214.5,54 " fill="none" filter="url(#fl94mixvkmo32)" style="stroke: #A80036; stroke-width: 2.0;"/><ellipse cx="226.5" cy="54" fill="#FEFECE" filter="url(#fl94mixvkmo32)" rx="12" ry="12" style="stroke: #A80036; stroke-width: 2.0;"/><text fill="#000000" font-family="sans-serif" font-size="14" lengthAdjust="spacingAndGlyphs" textLength="66" x="317" y="82.9951">PostForm</text><path d="M332.5,42 L332.5,66 M332.5,54 L349.5,54 " fill="none" filter="url(#fl94mixvkmo32)" style="stroke: #A80036; stroke-width: 2.0;"/><ellipse cx="361.5" cy="54" fill="#FEFECE" filter="url(#fl94mixvkmo32)" rx="12" ry="12" style="stroke: #A80036; stroke-width: 2.0;"/><text fill="#000000" font-family="sans-serif" font-size="14" lengthAdjust="spacingAndGlyphs" textLength="98" x="438" y="82.9951">PostController</text><ellipse cx="490" cy="54" fill="#FEFECE" filter="url(#fl94mixvkmo32)" rx="12" ry="12" style="stroke: #A80036; stroke-width: 2.0;"/><polygon fill="#A80036" points="486,42,492,37,490,42,492,47,486,42" style="stroke: #A80036; stroke-width: 1.0;"/><text fill="#000000" font-family="sans-serif" font-size="14" lengthAdjust="spacingAndGlyphs" textLength="31" x="616.5" y="82.9951">Post</text><ellipse cx="635" cy="54" fill="#FEFECE" filter="url(#fl94mixvkmo32)" rx="12" ry="12" style="stroke: #A80036; stroke-width: 2.0;"/><line style="stroke: #A80036; stroke-width: 2.0;" x1="623" x2="647" y1="68" y2="68"/><rect fill="#FFFFFF" filter="url(#fl94mixvkmo32)" height="255.0625" style="stroke: #A80036; stroke-width: 1.0;" width="10" x="213" y="263.0938"/><rect fill="#FFFFFF" filter="url(#fl94mixvkmo32)" height="217.9297" style="stroke: #A80036; stroke-width: 1.0;" width="10" x="218" y="300.2266"/><rect fill="#FFFFFF" filter="url(#fl94mixvkmo32)" height="29.1328" style="stroke: #A80036; stroke-width: 1.0;" width="10" x="223" y="334.3594"/><rect fill="#FFFFFF" filter="url(#fl94mixvkmo32)" height="116.5313" style="stroke: #A80036; stroke-width: 1.0;" width="10" x="223" y="392.625"/><rect fill="#FFFFFF" filter="url(#fl94mixvkmo32)" height="116.5313" style="stroke: #A80036; stroke-width: 1.0;" width="10" x="348" y="117.4297"/><rect fill="#FFFFFF" filter="url(#fl94mixvkmo32)" height="87.3984" style="stroke: #A80036; stroke-width: 1.0;" width="10" x="485" y="146.5625"/><rect fill="#FFFFFF" filter="url(#fl94mixvkmo32)" height="87.3984" style="stroke: #A80036; stroke-width: 1.0;" width="10" x="485" y="421.7578"/><rect fill="#FFFFFF" filter="url(#fl94mixvkmo32)" height="29.1328" style="stroke: #A80036; stroke-width: 1.0;" width="10" x="630" y="175.6953"/><rect fill="#FFFFFF" filter="url(#fl94mixvkmo32)" height="29.1328" style="stroke: #A80036; stroke-width: 1.0;" width="10" x="630" y="450.8906"/><polygon fill="#A80036" points="336,113.4297,346,117.4297,336,121.4297,340,117.4297" style="stroke: #A80036; stroke-width: 1.0;"/><line style="stroke: #A80036; stroke-width: 1.0;" x1="27" x2="342" y1="117.4297" y2="117.4297"/><text fill="#000000" font-family="sans-serif" font-size="13" font-weight="bold" lengthAdjust="spacingAndGlyphs" textLength="9" x="34" y="112.3638">1</text><text fill="#000000" font-family="sans-serif" font-size="13" lengthAdjust="spacingAndGlyphs" textLength="95" x="47" y="112.3638">// create post()</text><polygon fill="#A80036" points="473,142.5625,483,146.5625,473,150.5625,477,146.5625" style="stroke: #A80036; stroke-width: 1.0;"/><line style="stroke: #A80036; stroke-width: 1.0;" x1="358" x2="479" y1="146.5625" y2="146.5625"/><text fill="#000000" font-family="sans-serif" font-size="13" font-weight="bold" lengthAdjust="spacingAndGlyphs" textLength="9" x="365" y="141.4966">2</text><text fill="#000000" font-family="sans-serif" font-size="13" lengthAdjust="spacingAndGlyphs" textLength="95" x="378" y="141.4966">// create post()</text><polygon fill="#A80036" points="618,171.6953,628,175.6953,618,179.6953,622,175.6953" style="stroke: #A80036; stroke-width: 1.0;"/><line style="stroke: #A80036; stroke-width: 1.0;" x1="495" x2="624" y1="175.6953" y2="175.6953"/><text fill="#000000" font-family="sans-serif" font-size="13" font-weight="bold" lengthAdjust="spacingAndGlyphs" textLength="9" x="502" y="170.6294">3</text><text fill="#000000" font-family="sans-serif" font-size="13" lengthAdjust="spacingAndGlyphs" textLength="95" x="515" y="170.6294">// create post()</text><polygon fill="#A80036" points="506,200.8281,496,204.8281,506,208.8281,502,204.8281" style="stroke: #A80036; stroke-width: 1.0;"/><line style="stroke: #A80036; stroke-width: 1.0; stroke-dasharray: 2.0,2.0;" x1="500" x2="634" y1="204.8281" y2="204.8281"/><text fill="#000000" font-family="sans-serif" font-size="13" font-weight="bold" lengthAdjust="spacingAndGlyphs" textLength="9" x="512" y="199.7622">4</text><text fill="#000000" font-family="sans-serif" font-size="13" lengthAdjust="spacingAndGlyphs" textLength="0" x="529" y="199.7622"/><polygon fill="#A80036" points="364,229.9609,354,233.9609,364,237.9609,360,233.9609" style="stroke: #A80036; stroke-width: 1.0;"/><line style="stroke: #A80036; stroke-width: 1.0; stroke-dasharray: 2.0,2.0;" x1="358" x2="489" y1="233.9609" y2="233.9609"/><text fill="#000000" font-family="sans-serif" font-size="13" font-weight="bold" lengthAdjust="spacingAndGlyphs" textLength="9" x="370" y="228.895">5</text><text fill="#000000" font-family="sans-serif" font-size="13" lengthAdjust="spacingAndGlyphs" textLength="0" x="387" y="228.895"/><polygon fill="#A80036" points="234,259.0938,224,263.0938,234,267.0938,230,263.0938" style="stroke: #A80036; stroke-width: 1.0;"/><line style="stroke: #A80036; stroke-width: 1.0;" x1="228" x2="489" y1="263.0938" y2="263.0938"/><text fill="#000000" font-family="sans-serif" font-size="13" font-weight="bold" lengthAdjust="spacingAndGlyphs" textLength="9" x="240" y="258.0278">6</text><text fill="#000000" font-family="sans-serif" font-size="13" lengthAdjust="spacingAndGlyphs" textLength="0" x="257" y="258.0278"/><line style="stroke: #A80036; stroke-width: 1.0;" x1="223" x2="270" y1="287.2266" y2="287.2266"/><line style="stroke: #A80036; stroke-width: 1.0;" x1="270" x2="270" y1="287.2266" y2="300.2266"/><line style="stroke: #A80036; stroke-width: 1.0;" x1="229" x2="270" y1="300.2266" y2="300.2266"/><polygon fill="#A80036" points="239,296.2266,229,300.2266,239,304.2266,235,300.2266" style="stroke: #A80036; stroke-width: 1.0;"/><text fill="#000000" font-family="sans-serif" font-size="13" font-weight="bold" lengthAdjust="spacingAndGlyphs" textLength="9" x="235" y="282.1606">7</text><text fill="#000000" font-family="sans-serif" font-size="13" lengthAdjust="spacingAndGlyphs" textLength="98" x="248" y="282.1606">// display post()</text><polygon fill="#A80036" points="211,330.3594,221,334.3594,211,338.3594,215,334.3594" style="stroke: #A80036; stroke-width: 1.0;"/><line style="stroke: #A80036; stroke-width: 1.0;" x1="27" x2="217" y1="334.3594" y2="334.3594"/><text fill="#000000" font-family="sans-serif" font-size="13" font-weight="bold" lengthAdjust="spacingAndGlyphs" textLength="9" x="34" y="329.2935">8</text><text fill="#000000" font-family="sans-serif" font-size="13" lengthAdjust="spacingAndGlyphs" textLength="94" x="47" y="329.2935">// delete post()</text><polygon fill="#A80036" points="38,359.4922,28,363.4922,38,367.4922,34,363.4922" style="stroke: #A80036; stroke-width: 1.0;"/><line style="stroke: #A80036; stroke-width: 1.0; stroke-dasharray: 2.0,2.0;" x1="32" x2="217" y1="363.4922" y2="363.4922"/><text fill="#000000" font-family="sans-serif" font-size="13" font-weight="bold" lengthAdjust="spacingAndGlyphs" textLength="9" x="44" y="358.4263">9</text><text fill="#000000" font-family="sans-serif" font-size="13" lengthAdjust="spacingAndGlyphs" textLength="149" x="57" y="358.4263">// ask for confirmation()</text><polygon fill="#A80036" points="211,388.625,221,392.625,211,396.625,215,392.625" style="stroke: #A80036; stroke-width: 1.0;"/><line style="stroke: #A80036; stroke-width: 1.0;" x1="27" x2="217" y1="392.625" y2="392.625"/><text fill="#000000" font-family="sans-serif" font-size="13" font-weight="bold" lengthAdjust="spacingAndGlyphs" textLength="18" x="34" y="387.5591">10</text><text fill="#000000" font-family="sans-serif" font-size="13" lengthAdjust="spacingAndGlyphs" textLength="114" x="56" y="387.5591">// confirm delete()</text><polygon fill="#A80036" points="473,417.7578,483,421.7578,473,425.7578,477,421.7578" style="stroke: #A80036; stroke-width: 1.0;"/><line style="stroke: #A80036; stroke-width: 1.0;" x1="233" x2="479" y1="421.7578" y2="421.7578"/><text fill="#000000" font-family="sans-serif" font-size="13" font-weight="bold" lengthAdjust="spacingAndGlyphs" textLength="18" x="240" y="416.6919">11</text><text fill="#000000" font-family="sans-serif" font-size="13" lengthAdjust="spacingAndGlyphs" textLength="94" x="262" y="416.6919">// delete post()</text><polygon fill="#A80036" points="618,446.8906,628,450.8906,618,454.8906,622,450.8906" style="stroke: #A80036; stroke-width: 1.0;"/><line style="stroke: #A80036; stroke-width: 1.0;" x1="495" x2="624" y1="450.8906" y2="450.8906"/><text fill="#000000" font-family="sans-serif" font-size="13" font-weight="bold" lengthAdjust="spacingAndGlyphs" textLength="18" x="502" y="445.8247">12</text><text fill="#000000" font-family="sans-serif" font-size="13" lengthAdjust="spacingAndGlyphs" textLength="94" x="524" y="445.8247">// delete post()</text><polygon fill="#A80036" points="506,476.0234,496,480.0234,506,484.0234,502,480.0234" style="stroke: #A80036; stroke-width: 1.0;"/><line style="stroke: #A80036; stroke-width: 1.0; stroke-dasharray: 2.0,2.0;" x1="500" x2="634" y1="480.0234" y2="480.0234"/><text fill="#000000" font-family="sans-serif" font-size="13" font-weight="bold" lengthAdjust="spacingAndGlyphs" textLength="18" x="512" y="474.9575">13</text><text fill="#000000" font-family="sans-serif" font-size="13" lengthAdjust="spacingAndGlyphs" textLength="0" x="538" y="474.9575"/><polygon fill="#A80036" points="239,505.1563,229,509.1563,239,513.1563,235,509.1563" style="stroke: #A80036; stroke-width: 1.0;"/><line style="stroke: #A80036; stroke-width: 1.0; stroke-dasharray: 2.0,2.0;" x1="233" x2="489" y1="509.1563" y2="509.1563"/><text fill="#000000" font-family="sans-serif" font-size="13" font-weight="bold" lengthAdjust="spacingAndGlyphs" textLength="18" x="245" y="504.0903">14</text><text fill="#000000" font-family="sans-serif" font-size="13" lengthAdjust="spacingAndGlyphs" textLength="0" x="271" y="504.0903"/><line style="stroke: #A80036; stroke-width: 2.0;" x1="209" x2="227" y1="500.1563" y2="518.1563"/><line style="stroke: #A80036; stroke-width: 2.0;" x1="209" x2="227" y1="518.1563" y2="500.1563"/><!--MD5=[d8f7feaa0a91a86c1985b54817fa7ac2]
@startuml

hide footbox
autoactivate on

actor User as user
boundary PostView as post_view
boundary PostForm as post_form
control PostController as post_ctl
entity Post as post_ent

autonumber
user -> post_form : // create post()
post_form -> post_ctl : // create post()
post_ctl -> post_ent : // create post()
post_ent - -> post_ctl
post_ctl - -> post_form
deactivate post_form
post_ctl -> post_view
post_view -> post_view : // display post()

user -> post_view : // delete post()
post_view - -> user : // ask for confirmation()
user -> post_view : // confirm delete()
post_view -> post_ctl : // delete post()
post_ctl -> post_ent : // delete post()
post_ent - -> post_ctl
post_ctl - -> post_view

destroy post_view

@enduml

PlantUML version 1.2020.02(Sun Mar 01 10:22:07 GMT 2020)
(GPL source distribution)
Java Runtime: OpenJDK Runtime Environment
JVM: OpenJDK 64-Bit Server VM
Java Version: 11.0.8+10-post-Ubuntu-0ubuntu1
Operating System: Linux
Default Encoding: ANSI_X3.4-1968
Language: en
Country: US
--></g></svg>