<?xml version="1.0" encoding="UTF-8" standalone="no"?><svg xmlns="http://www.w3.org/2000/svg" xmlns:xlink="http://www.w3.org/1999/xlink" contentScriptType="application/ecmascript" contentStyleType="text/css" height="249px" preserveAspectRatio="none" style="width:197px;height:249px;" version="1.1" viewBox="0 0 197 249" width="197px" zoomAndPan="magnify"><defs><filter height="300%" id="fdlsqnl2exp6s" width="300%" x="-1" y="-1"><feGaussianBlur result="blurOut" stdDeviation="2.0"/><feColorMatrix in="blurOut" result="blurOut2" type="matrix" values="0 0 0 0 0 0 0 0 0 0 0 0 0 0 0 0 0 0 .4 0"/><feOffset dx="4.0" dy="4.0" in="blurOut2" result="blurOut3"/><feBlend in="SourceGraphic" in2="blurOut3" mode="normal"/></filter></defs><g><ellipse cx="50" cy="20" fill="#000000" filter="url(#fdlsqnl2exp6s)" rx="10" ry="10" style="stroke: none; stroke-width: 1.0;"/><rect fill="#FEFECE" filter="url(#fdlsqnl2exp6s)" height="33.9688" rx="12.5" ry="12.5" style="stroke: #A80036; stroke-width: 1.5;" width="80" x="10" y="50"/><text fill="#000000" font-family="sans-serif" font-size="12" lengthAdjust="spacingAndGlyphs" textLength="60" x="20" y="71.1387">View post</text><polygon fill="#FEFECE" filter="url(#fdlsqnl2exp6s)" points="50,172.4609,62,184.4609,50,196.4609,38,184.4609,50,172.4609" style="stroke: #A80036; stroke-width: 1.5;"/><text fill="#000000" font-family="sans-serif" font-size="11" lengthAdjust="spacingAndGlyphs" textLength="21" x="62" y="181.8667">Edit</text><rect fill="#FEFECE" filter="url(#fdlsqnl2exp6s)" height="33.9688" rx="12.5" ry="12.5" style="stroke: #A80036; stroke-width: 1.5;" width="76" x="110" y="108.4922"/><text fill="#000000" font-family="sans-serif" font-size="12" lengthAdjust="spacingAndGlyphs" textLength="56" x="120" y="129.6309">Edit post</text><ellipse cx="50" cy="227.4609" fill="#FFFFFF" filter="url(#fdlsqnl2exp6s)" rx="11" ry="11" style="stroke: #000000; stroke-width: 1.0;"/><ellipse cx="50" cy="227.4609" fill="#000000" rx="6" ry="6" style="stroke: #7F7F7F; stroke-width: 1.0;"/><line style="stroke: #A80036; stroke-width: 1.5;" x1="50" x2="50" y1="83.9688" y2="172.4609"/><polygon fill="#A80036" points="46,162.4609,50,172.4609,54,162.4609,50,166.4609" style="stroke: #A80036; stroke-width: 1.0;"/><line style="stroke: #A80036; stroke-width: 1.5;" x1="62" x2="148" y1="184.4609" y2="184.4609"/><line style="stroke: #A80036; stroke-width: 1.5;" x1="148" x2="148" y1="142.4609" y2="184.4609"/><polygon fill="#A80036" points="144,152.4609,148,142.4609,152,152.4609,148,148.4609" style="stroke: #A80036; stroke-width: 1.0;"/><polygon fill="#A80036" points="144,98.4922,148,88.4922,152,98.4922,148,94.4922" style="stroke: #A80036; stroke-width: 1.5;"/><line style="stroke: #A80036; stroke-width: 1.5;" x1="148" x2="148" y1="66.9844" y2="108.4922"/><line style="stroke: #A80036; stroke-width: 1.5;" x1="148" x2="90" y1="66.9844" y2="66.9844"/><polygon fill="#A80036" points="100,62.9844,90,66.9844,100,70.9844,96,66.9844" style="stroke: #A80036; stroke-width: 1.0;"/><line style="stroke: #A80036; stroke-width: 1.5;" x1="50" x2="50" y1="30" y2="50"/><polygon fill="#A80036" points="46,40,50,50,54,40,50,44" style="stroke: #A80036; stroke-width: 1.0;"/><line style="stroke: #A80036; stroke-width: 1.5;" x1="50" x2="50" y1="196.4609" y2="216.4609"/><polygon fill="#A80036" points="46,206.4609,50,216.4609,54,206.4609,50,210.4609" style="stroke: #A80036; stroke-width: 1.0;"/><!--MD5=[80c48d1a201da69fdf549770e535b814]
@startuml

skinparam conditionStyle diamond

start

repeat :View post;
backward :Edit post;
repeat while (Edit)
stop

@enduml

PlantUML version 1.2020.02(Sun Mar 01 10:22:07 GMT 2020)
(GPL source distribution)
Java Runtime: OpenJDK Runtime Environment
JVM: OpenJDK 64-Bit Server VM
Java Version: 11.0.8+10-post-Ubuntu-0ubuntu1
Operating System: Linux
Default Encoding: ANSI_X3.4-1968
Language: en
Country: US
--></g></svg>