<?xml version="1.0" encoding="UTF-8" standalone="no"?><svg xmlns="http://www.w3.org/2000/svg" xmlns:xlink="http://www.w3.org/1999/xlink" contentScriptType="application/ecmascript" contentStyleType="text/css" height="244px" preserveAspectRatio="none" style="width:115px;height:244px;" version="1.1" viewBox="0 0 115 244" width="115px" zoomAndPan="magnify"><defs><filter height="300%" id="f5xszpv1yjb45" width="300%" x="-1" y="-1"><feGaussianBlur result="blurOut" stdDeviation="2.0"/><feColorMatrix in="blurOut" result="blurOut2" type="matrix" values="0 0 0 0 0 0 0 0 0 0 0 0 0 0 0 0 0 0 .4 0"/><feOffset dx="4.0" dy="4.0" in="blurOut2" result="blurOut3"/><feBlend in="SourceGraphic" in2="blurOut3" mode="normal"/></filter></defs><g><ellipse cx="57" cy="20" fill="#000000" filter="url(#f5xszpv1yjb45)" rx="10" ry="10" style="stroke: none; stroke-width: 1.0;"/><rect fill="#FEFECE" filter="url(#f5xszpv1yjb45)" height="33.9688" rx="12.5" ry="12.5" style="stroke: #A80036; stroke-width: 1.5;" width="94" x="10" y="50"/><text fill="#000000" font-family="sans-serif" font-size="12" lengthAdjust="spacingAndGlyphs" textLength="74" x="20" y="71.1387">Create post</text><rect fill="#FEFECE" filter="url(#f5xszpv1yjb45)" height="33.9688" rx="12.5" ry="12.5" style="stroke: #A80036; stroke-width: 1.5;" width="80" x="17" y="103.9688"/><text fill="#000000" font-family="sans-serif" font-size="12" lengthAdjust="spacingAndGlyphs" textLength="60" x="27" y="125.1074">View post</text><rect fill="#FEFECE" filter="url(#f5xszpv1yjb45)" height="33.9688" rx="12.5" ry="12.5" style="stroke: #A80036; stroke-width: 1.5;" width="93" x="10.5" y="157.9375"/><text fill="#000000" font-family="sans-serif" font-size="12" lengthAdjust="spacingAndGlyphs" textLength="73" x="20.5" y="179.0762">Delete post</text><ellipse cx="57" cy="222.9063" fill="#FFFFFF" filter="url(#f5xszpv1yjb45)" rx="11" ry="11" style="stroke: #000000; stroke-width: 1.0;"/><ellipse cx="57" cy="222.9063" fill="#000000" rx="6" ry="6" style="stroke: #7F7F7F; stroke-width: 1.0;"/><line style="stroke: #A80036; stroke-width: 1.5;" x1="57" x2="57" y1="30" y2="50"/><polygon fill="#A80036" points="53,40,57,50,61,40,57,44" style="stroke: #A80036; stroke-width: 1.0;"/><line style="stroke: #A80036; stroke-width: 1.5;" x1="57" x2="57" y1="83.9688" y2="103.9688"/><polygon fill="#A80036" points="53,93.9688,57,103.9688,61,93.9688,57,97.9688" style="stroke: #A80036; stroke-width: 1.0;"/><line style="stroke: #A80036; stroke-width: 1.5;" x1="57" x2="57" y1="137.9375" y2="157.9375"/><polygon fill="#A80036" points="53,147.9375,57,157.9375,61,147.9375,57,151.9375" style="stroke: #A80036; stroke-width: 1.0;"/><line style="stroke: #A80036; stroke-width: 1.5;" x1="57" x2="57" y1="191.9063" y2="211.9063"/><polygon fill="#A80036" points="53,201.9063,57,211.9063,61,201.9063,57,205.9063" style="stroke: #A80036; stroke-width: 1.0;"/><!--MD5=[279ff47e55f97cf6f8351d8e632331c9]
@startuml

start

:Create post;
:View post;
:Delete post;
stop

@enduml

PlantUML version 1.2020.02(Sun Mar 01 10:22:07 GMT 2020)
(GPL source distribution)
Java Runtime: OpenJDK Runtime Environment
JVM: OpenJDK 64-Bit Server VM
Java Version: 11.0.8+10-post-Ubuntu-0ubuntu1
Operating System: Linux
Default Encoding: ANSI_X3.4-1968
Language: en
Country: US
--></g></svg>