<?xml version="1.0" encoding="UTF-8" standalone="no"?><svg xmlns="http://www.w3.org/2000/svg" xmlns:xlink="http://www.w3.org/1999/xlink" contentScriptType="application/ecmascript" contentStyleType="text/css" height="540px" preserveAspectRatio="none" style="width:863px;height:540px;" version="1.1" viewBox="0 0 863 540" width="863px" zoomAndPan="magnify"><defs><filter height="300%" id="fclk8ol23bwfr" width="300%" x="-1" y="-1"><feGaussianBlur result="blurOut" stdDeviation="2.0"/><feColorMatrix in="blurOut" result="blurOut2" type="matrix" values="0 0 0 0 0 0 0 0 0 0 0 0 0 0 0 0 0 0 .4 0"/><feOffset dx="4.0" dy="4.0" in="blurOut2" result="blurOut3"/><feBlend in="SourceGraphic" in2="blurOut3" mode="normal"/></filter></defs><g><rect fill="#FFFFFF" filter="url(#fclk8ol23bwfr)" height="255.9297" style="stroke: #A80036; stroke-width: 1.0;" width="10" x="213" y="263.9609"/><rect fill="#FFFFFF" filter="url(#fclk8ol23bwfr)" height="218.7969" style="stroke: #A80036; stroke-width: 1.0;" width="10" x="218" y="301.0938"/><rect fill="#FFFFFF" filter="url(#fclk8ol23bwfr)" height="29.1328" style="stroke: #A80036; stroke-width: 1.0;" width="10" x="223" y="335.2266"/><rect fill="#FFFFFF" filter="url(#fclk8ol23bwfr)" height="117.3984" style="stroke: #A80036; stroke-width: 1.0;" width="10" x="223" y="393.4922"/><rect fill="#FFFFFF" filter="url(#fclk8ol23bwfr)" height="117.3984" style="stroke: #A80036; stroke-width: 1.0;" width="10" x="348" y="117.4297"/><rect fill="#FFFFFF" filter="url(#fclk8ol23bwfr)" height="88.2656" style="stroke: #A80036; stroke-width: 1.0;" width="10" x="485" y="146.5625"/><rect fill="#FFFFFF" filter="url(#fclk8ol23bwfr)" height="88.2656" style="stroke: #A80036; stroke-width: 1.0;" width="10" x="485" y="422.625"/><rect fill="#FFFFFF" filter="url(#fclk8ol23bwfr)" height="30" style="stroke: #A80036; stroke-width: 1.0;" width="10" x="803" y="175.6953"/><rect fill="#FFFFFF" filter="url(#fclk8ol23bwfr)" height="30" style="stroke: #A80036; stroke-width: 1.0;" width="10" x="803" y="451.7578"/><line style="stroke: #A80036; stroke-width: 1.0; stroke-dasharray: 5.0,5.0;" x1="27" x2="27" y1="86.2969" y2="528.8906"/><line style="stroke: #A80036; stroke-width: 1.0; stroke-dasharray: 5.0,5.0;" x1="217.5" x2="217.5" y1="86.2969" y2="528.8906"/><line style="stroke: #A80036; stroke-width: 1.0; stroke-dasharray: 5.0,5.0;" x1="353" x2="353" y1="86.2969" y2="528.8906"/><line style="stroke: #A80036; stroke-width: 1.0; stroke-dasharray: 5.0,5.0;" x1="490" x2="490" y1="86.2969" y2="528.8906"/><line style="stroke: #A80036; stroke-width: 1.0; stroke-dasharray: 5.0,5.0;" x1="808" x2="808" y1="86.2969" y2="528.8906"/><text fill="#000000" font-family="sans-serif" font-size="14" lengthAdjust="spacingAndGlyphs" textLength="32" x="8" y="82.9951">User</text><ellipse cx="27" cy="13" fill="#FEFECE" filter="url(#fclk8ol23bwfr)" rx="8" ry="8" style="stroke: #A80036; stroke-width: 2.0;"/><path d="M27,21 L27,48 M14,29 L40,29 M27,48 L14,63 M27,48 L40,63 " fill="none" filter="url(#fclk8ol23bwfr)" style="stroke: #A80036; stroke-width: 2.0;"/><text fill="#000000" font-family="sans-serif" font-size="14" lengthAdjust="spacingAndGlyphs" textLength="63" x="183.5" y="82.9951">PostView</text><path d="M197.5,42 L197.5,66 M197.5,54 L214.5,54 " fill="none" filter="url(#fclk8ol23bwfr)" style="stroke: #A80036; stroke-width: 2.0;"/><ellipse cx="226.5" cy="54" fill="#FEFECE" filter="url(#fclk8ol23bwfr)" rx="12" ry="12" style="stroke: #A80036; stroke-width: 2.0;"/><text fill="#000000" font-family="sans-serif" font-size="14" lengthAdjust="spacingAndGlyphs" textLength="66" x="317" y="82.9951">PostForm</text><path d="M332.5,42 L332.5,66 M332.5,54 L349.5,54 " fill="none" filter="url(#fclk8ol23bwfr)" style="stroke: #A80036; stroke-width: 2.0;"/><ellipse cx="361.5" cy="54" fill="#FEFECE" filter="url(#fclk8ol23bwfr)" rx="12" ry="12" style="stroke: #A80036; stroke-width: 2.0;"/><text fill="#000000" font-family="sans-serif" font-size="14" lengthAdjust="spacingAndGlyphs" textLength="98" x="438" y="82.9951">PostController</text><ellipse cx="490" cy="54" fill="#FEFECE" filter="url(#fclk8ol23bwfr)" rx="12" ry="12" style="stroke: #A80036; stroke-width: 2.0;"/><polygon fill="#A80036" points="486,42,492,37,490,42,492,47,486,42" style="stroke: #A80036; stroke-width: 1.0;"/><rect fill="#FEFECE" filter="url(#fclk8ol23bwfr)" height="46.5938" style="stroke: #A80036; stroke-width: 1.5;" width="92" x="760" y="34.7031"/><text fill="#000000" font-family="sans-serif" font-size="14" font-style="italic" lengthAdjust="spacingAndGlyphs" textLength="78" x="767" y="54.6982">«interface»</text><text fill="#000000" font-family="sans-serif" font-size="14" lengthAdjust="spacingAndGlyphs" textLength="34" x="789" y="70.9951">IPost</text><rect fill="#FFFFFF" filter="url(#fclk8ol23bwfr)" height="255.9297" style="stroke: #A80036; stroke-width: 1.0;" width="10" x="213" y="263.9609"/><rect fill="#FFFFFF" filter="url(#fclk8ol23bwfr)" height="218.7969" style="stroke: #A80036; stroke-width: 1.0;" width="10" x="218" y="301.0938"/><rect fill="#FFFFFF" filter="url(#fclk8ol23bwfr)" height="29.1328" style="stroke: #A80036; stroke-width: 1.0;" width="10" x="223" y="335.2266"/><rect fill="#FFFFFF" filter="url(#fclk8ol23bwfr)" height="117.3984" style="stroke: #A80036; stroke-width: 1.0;" width="10" x="223" y="393.4922"/><rect fill="#FFFFFF" filter="url(#fclk8ol23bwfr)" height="117.3984" style="stroke: #A80036; stroke-width: 1.0;" width="10" x="348" y="117.4297"/><rect fill="#FFFFFF" filter="url(#fclk8ol23bwfr)" height="88.2656" style="stroke: #A80036; stroke-width: 1.0;" width="10" x="485" y="146.5625"/><rect fill="#FFFFFF" filter="url(#fclk8ol23bwfr)" height="88.2656" style="stroke: #A80036; stroke-width: 1.0;" width="10" x="485" y="422.625"/><rect fill="#FFFFFF" filter="url(#fclk8ol23bwfr)" height="30" style="stroke: #A80036; stroke-width: 1.0;" width="10" x="803" y="175.6953"/><rect fill="#FFFFFF" filter="url(#fclk8ol23bwfr)" height="30" style="stroke: #A80036; stroke-width: 1.0;" width="10" x="803" y="451.7578"/><polygon fill="#A80036" points="336,113.4297,346,117.4297,336,121.4297,340,117.4297" style="stroke: #A80036; stroke-width: 1.0;"/><line style="stroke: #A80036; stroke-width: 1.0;" x1="27" x2="342" y1="117.4297" y2="117.4297"/><text fill="#000000" font-family="sans-serif" font-size="13" font-weight="bold" lengthAdjust="spacingAndGlyphs" textLength="9" x="34" y="112.3638">1</text><text fill="#000000" font-family="sans-serif" font-size="13" lengthAdjust="spacingAndGlyphs" textLength="95" x="47" y="112.3638">// create post()</text><polygon fill="#A80036" points="473,142.5625,483,146.5625,473,150.5625,477,146.5625" style="stroke: #A80036; stroke-width: 1.0;"/><line style="stroke: #A80036; stroke-width: 1.0;" x1="358" x2="479" y1="146.5625" y2="146.5625"/><text fill="#000000" font-family="sans-serif" font-size="13" font-weight="bold" lengthAdjust="spacingAndGlyphs" textLength="9" x="365" y="141.4966">2</text><text fill="#000000" font-family="sans-serif" font-size="13" lengthAdjust="spacingAndGlyphs" textLength="95" x="378" y="141.4966">// create post()</text><polygon fill="#A80036" points="791,171.6953,801,175.6953,791,179.6953,795,175.6953" style="stroke: #A80036; stroke-width: 1.0;"/><line style="stroke: #A80036; stroke-width: 1.0;" x1="495" x2="797" y1="175.6953" y2="175.6953"/><text fill="#000000" font-family="sans-serif" font-size="13" font-weight="bold" lengthAdjust="spacingAndGlyphs" textLength="9" x="502" y="170.6294">3</text><text fill="#000000" font-family="sans-serif" font-size="13" lengthAdjust="spacingAndGlyphs" textLength="276" x="515" y="170.6294">// createPost(title, content, subreddit, user)</text><polygon fill="#A80036" points="364,230.8281,354,234.8281,364,238.8281,360,234.8281" style="stroke: #A80036; stroke-width: 1.0;"/><line style="stroke: #A80036; stroke-width: 1.0; stroke-dasharray: 2.0,2.0;" x1="358" x2="489" y1="234.8281" y2="234.8281"/><text fill="#000000" font-family="sans-serif" font-size="13" font-weight="bold" lengthAdjust="spacingAndGlyphs" textLength="9" x="370" y="229.7622">4</text><text fill="#000000" font-family="sans-serif" font-size="13" lengthAdjust="spacingAndGlyphs" textLength="0" x="387" y="229.7622"/><polygon fill="#A80036" points="234,259.9609,224,263.9609,234,267.9609,230,263.9609" style="stroke: #A80036; stroke-width: 1.0;"/><line style="stroke: #A80036; stroke-width: 1.0;" x1="228" x2="489" y1="263.9609" y2="263.9609"/><text fill="#000000" font-family="sans-serif" font-size="13" font-weight="bold" lengthAdjust="spacingAndGlyphs" textLength="9" x="240" y="258.895">5</text><text fill="#000000" font-family="sans-serif" font-size="13" lengthAdjust="spacingAndGlyphs" textLength="0" x="257" y="258.895"/><line style="stroke: #A80036; stroke-width: 1.0;" x1="223" x2="270" y1="288.0938" y2="288.0938"/><line style="stroke: #A80036; stroke-width: 1.0;" x1="270" x2="270" y1="288.0938" y2="301.0938"/><line style="stroke: #A80036; stroke-width: 1.0;" x1="229" x2="270" y1="301.0938" y2="301.0938"/><polygon fill="#A80036" points="239,297.0938,229,301.0938,239,305.0938,235,301.0938" style="stroke: #A80036; stroke-width: 1.0;"/><text fill="#000000" font-family="sans-serif" font-size="13" font-weight="bold" lengthAdjust="spacingAndGlyphs" textLength="9" x="235" y="283.0278">6</text><text fill="#000000" font-family="sans-serif" font-size="13" lengthAdjust="spacingAndGlyphs" textLength="98" x="248" y="283.0278">// display post()</text><polygon fill="#A80036" points="211,331.2266,221,335.2266,211,339.2266,215,335.2266" style="stroke: #A80036; stroke-width: 1.0;"/><line style="stroke: #A80036; stroke-width: 1.0;" x1="27" x2="217" y1="335.2266" y2="335.2266"/><text fill="#000000" font-family="sans-serif" font-size="13" font-weight="bold" lengthAdjust="spacingAndGlyphs" textLength="9" x="34" y="330.1606">7</text><text fill="#000000" font-family="sans-serif" font-size="13" lengthAdjust="spacingAndGlyphs" textLength="94" x="47" y="330.1606">// delete post()</text><polygon fill="#A80036" points="38,360.3594,28,364.3594,38,368.3594,34,364.3594" style="stroke: #A80036; stroke-width: 1.0;"/><line style="stroke: #A80036; stroke-width: 1.0; stroke-dasharray: 2.0,2.0;" x1="32" x2="217" y1="364.3594" y2="364.3594"/><text fill="#000000" font-family="sans-serif" font-size="13" font-weight="bold" lengthAdjust="spacingAndGlyphs" textLength="9" x="44" y="359.2935">8</text><text fill="#000000" font-family="sans-serif" font-size="13" lengthAdjust="spacingAndGlyphs" textLength="149" x="57" y="359.2935">// ask for confirmation()</text><polygon fill="#A80036" points="211,389.4922,221,393.4922,211,397.4922,215,393.4922" style="stroke: #A80036; stroke-width: 1.0;"/><line style="stroke: #A80036; stroke-width: 1.0;" x1="27" x2="217" y1="393.4922" y2="393.4922"/><text fill="#000000" font-family="sans-serif" font-size="13" font-weight="bold" lengthAdjust="spacingAndGlyphs" textLength="9" x="34" y="388.4263">9</text><text fill="#000000" font-family="sans-serif" font-size="13" lengthAdjust="spacingAndGlyphs" textLength="114" x="47" y="388.4263">// confirm delete()</text><polygon fill="#A80036" points="473,418.625,483,422.625,473,426.625,477,422.625" style="stroke: #A80036; stroke-width: 1.0;"/><line style="stroke: #A80036; stroke-width: 1.0;" x1="233" x2="479" y1="422.625" y2="422.625"/><text fill="#000000" font-family="sans-serif" font-size="13" font-weight="bold" lengthAdjust="spacingAndGlyphs" textLength="18" x="240" y="417.5591">10</text><text fill="#000000" font-family="sans-serif" font-size="13" lengthAdjust="spacingAndGlyphs" textLength="94" x="262" y="417.5591">// delete post()</text><polygon fill="#A80036" points="791,447.7578,801,451.7578,791,455.7578,795,451.7578" style="stroke: #A80036; stroke-width: 1.0;"/><line style="stroke: #A80036; stroke-width: 1.0;" x1="495" x2="797" y1="451.7578" y2="451.7578"/><text fill="#000000" font-family="sans-serif" font-size="13" font-weight="bold" lengthAdjust="spacingAndGlyphs" textLength="18" x="502" y="446.6919">11</text><text fill="#000000" font-family="sans-serif" font-size="13" lengthAdjust="spacingAndGlyphs" textLength="90" x="524" y="446.6919">// deletePost()</text><polygon fill="#A80036" points="239,506.8906,229,510.8906,239,514.8906,235,510.8906" style="stroke: #A80036; stroke-width: 1.0;"/><line style="stroke: #A80036; stroke-width: 1.0; stroke-dasharray: 2.0,2.0;" x1="233" x2="489" y1="510.8906" y2="510.8906"/><text fill="#000000" font-family="sans-serif" font-size="13" font-weight="bold" lengthAdjust="spacingAndGlyphs" textLength="18" x="245" y="505.8247">12</text><text fill="#000000" font-family="sans-serif" font-size="13" lengthAdjust="spacingAndGlyphs" textLength="0" x="271" y="505.8247"/><line style="stroke: #A80036; stroke-width: 2.0;" x1="209" x2="227" y1="501.8906" y2="519.8906"/><line style="stroke: #A80036; stroke-width: 2.0;" x1="209" x2="227" y1="519.8906" y2="501.8906"/><!--MD5=[3885a5339edab225c0eb4995a844747e]
@startuml

hide footbox
autoactivate on

actor User as user
boundary PostView as post_view
boundary PostForm as post_form
control PostController as post_ctl

participant IPost as post_int <<interface>>

autonumber
user -> post_form : // create post()
post_form -> post_ctl : // create post()
post_ctl -> post_int : // createPost(title, content, subreddit, user)
deactivate post_int
post_ctl - -> post_form
deactivate post_form
post_ctl -> post_view
post_view -> post_view : // display post()

user -> post_view : // delete post()
post_view - -> user : // ask for confirmation()
user -> post_view : // confirm delete()
post_view -> post_ctl : // delete post()
post_ctl -> post_int : // deletePost()
deactivate post_int
post_ctl - -> post_view

destroy post_view

@enduml

PlantUML version 1.2020.02(Sun Mar 01 10:22:07 GMT 2020)
(GPL source distribution)
Java Runtime: OpenJDK Runtime Environment
JVM: OpenJDK 64-Bit Server VM
Java Version: 11.0.8+10-post-Ubuntu-0ubuntu1
Operating System: Linux
Default Encoding: ANSI_X3.4-1968
Language: en
Country: US
--></g></svg>