<?xml version="1.0" encoding="UTF-8" standalone="no"?><svg xmlns="http://www.w3.org/2000/svg" xmlns:xlink="http://www.w3.org/1999/xlink" contentScriptType="application/ecmascript" contentStyleType="text/css" height="336px" preserveAspectRatio="none" style="width:829px;height:336px;" version="1.1" viewBox="0 0 829 336" width="829px" zoomAndPan="magnify"><defs><filter height="300%" id="f19c5a76m0c0r6" width="300%" x="-1" y="-1"><feGaussianBlur result="blurOut" stdDeviation="2.0"/><feColorMatrix in="blurOut" result="blurOut2" type="matrix" values="0 0 0 0 0 0 0 0 0 0 0 0 0 0 0 0 0 0 .4 0"/><feOffset dx="4.0" dy="4.0" in="blurOut2" result="blurOut3"/><feBlend in="SourceGraphic" in2="blurOut3" mode="normal"/></filter></defs><g><rect fill="#FFFFFF" filter="url(#f19c5a76m0c0r6)" height="188.6641" style="stroke: #A80036; stroke-width: 1.0;" width="10" x="270" y="117.4297"/><rect fill="#FFFFFF" filter="url(#f19c5a76m0c0r6)" height="159.5313" style="stroke: #A80036; stroke-width: 1.0;" width="10" x="438.5" y="146.5625"/><rect fill="#FFFFFF" filter="url(#f19c5a76m0c0r6)" height="28" style="stroke: #A80036; stroke-width: 1.0;" width="10" x="443.5" y="183.6953"/><rect fill="#FFFFFF" filter="url(#f19c5a76m0c0r6)" height="29.1328" style="stroke: #A80036; stroke-width: 1.0;" width="10" x="728.5" y="247.8281"/><line style="stroke: #A80036; stroke-width: 1.0; stroke-dasharray: 5.0,5.0;" x1="27" x2="27" y1="86.2969" y2="324.0938"/><line style="stroke: #A80036; stroke-width: 1.0; stroke-dasharray: 5.0,5.0;" x1="275" x2="275" y1="86.2969" y2="324.0938"/><line style="stroke: #A80036; stroke-width: 1.0; stroke-dasharray: 5.0,5.0;" x1="443" x2="443" y1="86.2969" y2="324.0938"/><line style="stroke: #A80036; stroke-width: 1.0; stroke-dasharray: 5.0,5.0;" x1="733.5" x2="733.5" y1="86.2969" y2="324.0938"/><text fill="#000000" font-family="sans-serif" font-size="14" lengthAdjust="spacingAndGlyphs" textLength="32" x="8" y="82.9951">User</text><ellipse cx="27" cy="13" fill="#FEFECE" filter="url(#f19c5a76m0c0r6)" rx="8" ry="8" style="stroke: #A80036; stroke-width: 2.0;"/><path d="M27,21 L27,48 M14,29 L40,29 M27,48 L14,63 M27,48 L40,63 " fill="none" filter="url(#f19c5a76m0c0r6)" style="stroke: #A80036; stroke-width: 2.0;"/><text fill="#000000" font-family="sans-serif" font-size="14" lengthAdjust="spacingAndGlyphs" textLength="138" x="203" y="82.9951">CreateAccountForm</text><path d="M254.5,42 L254.5,66 M254.5,54 L271.5,54 " fill="none" filter="url(#f19c5a76m0c0r6)" style="stroke: #A80036; stroke-width: 2.0;"/><ellipse cx="283.5" cy="54" fill="#FEFECE" filter="url(#f19c5a76m0c0r6)" rx="12" ry="12" style="stroke: #A80036; stroke-width: 2.0;"/><text fill="#000000" font-family="sans-serif" font-size="14" lengthAdjust="spacingAndGlyphs" textLength="167" x="357" y="82.9951">AuthenticationController</text><ellipse cx="443.5" cy="54" fill="#FEFECE" filter="url(#f19c5a76m0c0r6)" rx="12" ry="12" style="stroke: #A80036; stroke-width: 2.0;"/><polygon fill="#A80036" points="439.5,42,445.5,37,443.5,42,445.5,47,439.5,42" style="stroke: #A80036; stroke-width: 1.0;"/><rect fill="#FEFECE" filter="url(#f19c5a76m0c0r6)" height="46.5938" style="stroke: #A80036; stroke-width: 1.5;" width="174" x="644.5" y="34.7031"/><text fill="#000000" font-family="sans-serif" font-size="14" font-style="italic" lengthAdjust="spacingAndGlyphs" textLength="135" x="664" y="54.6982">«subsystem proxy»</text><text fill="#000000" font-family="sans-serif" font-size="14" lengthAdjust="spacingAndGlyphs" textLength="160" x="651.5" y="70.9951">: AuthenticationSystem</text><rect fill="#FFFFFF" filter="url(#f19c5a76m0c0r6)" height="188.6641" style="stroke: #A80036; stroke-width: 1.0;" width="10" x="270" y="117.4297"/><rect fill="#FFFFFF" filter="url(#f19c5a76m0c0r6)" height="159.5313" style="stroke: #A80036; stroke-width: 1.0;" width="10" x="438.5" y="146.5625"/><rect fill="#FFFFFF" filter="url(#f19c5a76m0c0r6)" height="28" style="stroke: #A80036; stroke-width: 1.0;" width="10" x="443.5" y="183.6953"/><rect fill="#FFFFFF" filter="url(#f19c5a76m0c0r6)" height="29.1328" style="stroke: #A80036; stroke-width: 1.0;" width="10" x="728.5" y="247.8281"/><polygon fill="#A80036" points="258,113.4297,268,117.4297,258,121.4297,262,117.4297" style="stroke: #A80036; stroke-width: 1.0;"/><line style="stroke: #A80036; stroke-width: 1.0;" x1="27" x2="264" y1="117.4297" y2="117.4297"/><text fill="#000000" font-family="sans-serif" font-size="13" font-weight="bold" lengthAdjust="spacingAndGlyphs" textLength="9" x="34" y="112.3638">1</text><text fill="#000000" font-family="sans-serif" font-size="13" lengthAdjust="spacingAndGlyphs" textLength="211" x="47" y="112.3638">// submit account creation form()</text><polygon fill="#A80036" points="426.5,142.5625,436.5,146.5625,426.5,150.5625,430.5,146.5625" style="stroke: #A80036; stroke-width: 1.0;"/><line style="stroke: #A80036; stroke-width: 1.0;" x1="280" x2="432.5" y1="146.5625" y2="146.5625"/><text fill="#000000" font-family="sans-serif" font-size="13" font-weight="bold" lengthAdjust="spacingAndGlyphs" textLength="9" x="287" y="141.4966">2</text><text fill="#000000" font-family="sans-serif" font-size="13" lengthAdjust="spacingAndGlyphs" textLength="118" x="300" y="141.4966">// create account()</text><line style="stroke: #A80036; stroke-width: 1.0;" x1="453.5" x2="495.5" y1="175.6953" y2="175.6953"/><line style="stroke: #A80036; stroke-width: 1.0;" x1="495.5" x2="495.5" y1="175.6953" y2="188.6953"/><line style="stroke: #A80036; stroke-width: 1.0;" x1="454.5" x2="495.5" y1="188.6953" y2="188.6953"/><polygon fill="#A80036" points="464.5,184.6953,454.5,188.6953,464.5,192.6953,460.5,188.6953" style="stroke: #A80036; stroke-width: 1.0;"/><text fill="#000000" font-family="sans-serif" font-size="13" font-weight="bold" lengthAdjust="spacingAndGlyphs" textLength="9" x="460.5" y="170.6294">3</text><text fill="#000000" font-family="sans-serif" font-size="13" lengthAdjust="spacingAndGlyphs" textLength="134" x="473.5" y="170.6294">// check constraints()</text><polygon fill="#A80036" points="716.5,243.8281,726.5,247.8281,716.5,251.8281,720.5,247.8281" style="stroke: #A80036; stroke-width: 1.0;"/><line style="stroke: #A80036; stroke-width: 1.0;" x1="448.5" x2="722.5" y1="247.8281" y2="247.8281"/><text fill="#000000" font-family="sans-serif" font-size="13" font-weight="bold" lengthAdjust="spacingAndGlyphs" textLength="9" x="455.5" y="242.7622">4</text><text fill="#000000" font-family="sans-serif" font-size="13" lengthAdjust="spacingAndGlyphs" textLength="248" x="468.5" y="242.7622">// createAccount(username, password)</text><polygon fill="#A80036" points="459.5,272.9609,449.5,276.9609,459.5,280.9609,455.5,276.9609" style="stroke: #A80036; stroke-width: 1.0;"/><line style="stroke: #A80036; stroke-width: 1.0; stroke-dasharray: 2.0,2.0;" x1="453.5" x2="732.5" y1="276.9609" y2="276.9609"/><text fill="#000000" font-family="sans-serif" font-size="13" font-weight="bold" lengthAdjust="spacingAndGlyphs" textLength="9" x="465.5" y="271.895">5</text><text fill="#000000" font-family="sans-serif" font-size="13" lengthAdjust="spacingAndGlyphs" textLength="0" x="482.5" y="271.895"/><polygon fill="#A80036" points="286,302.0938,276,306.0938,286,310.0938,282,306.0938" style="stroke: #A80036; stroke-width: 1.0;"/><line style="stroke: #A80036; stroke-width: 1.0; stroke-dasharray: 2.0,2.0;" x1="280" x2="442.5" y1="306.0938" y2="306.0938"/><text fill="#000000" font-family="sans-serif" font-size="13" font-weight="bold" lengthAdjust="spacingAndGlyphs" textLength="9" x="292" y="301.0278">6</text><text fill="#000000" font-family="sans-serif" font-size="13" lengthAdjust="spacingAndGlyphs" textLength="0" x="309" y="301.0278"/><!--MD5=[fa7fc156961cf8038d2da0e4ca0db6bc]
@startuml

autoactivate on
hide footbox

actor User as user
boundary CreateAccountForm as form
control AuthenticationController as ctl

participant ": AuthenticationSystem" as subsys <<subsystem proxy>>

autonumber

user -> form : // submit account creation form()
form -> ctl : // create account()
ctl -> ctl : // check constraints()
deactivate ctl
ctl -> subsys : // createAccount(username, password)
subsys - -> ctl
ctl - -> form
deactivate form

@enduml

PlantUML version 1.2020.02(Sun Mar 01 10:22:07 GMT 2020)
(GPL source distribution)
Java Runtime: OpenJDK Runtime Environment
JVM: OpenJDK 64-Bit Server VM
Java Version: 11.0.8+10-post-Ubuntu-0ubuntu1
Operating System: Linux
Default Encoding: ANSI_X3.4-1968
Language: en
Country: US
--></g></svg>