<?xml version="1.0" encoding="UTF-8" standalone="no"?><svg xmlns="http://www.w3.org/2000/svg" xmlns:xlink="http://www.w3.org/1999/xlink" contentScriptType="application/ecmascript" contentStyleType="text/css" height="263px" preserveAspectRatio="none" style="width:617px;height:263px;" version="1.1" viewBox="0 0 617 263" width="617px" zoomAndPan="magnify"><defs><filter height="300%" id="f4t0zfhx3xguv" width="300%" x="-1" y="-1"><feGaussianBlur result="blurOut" stdDeviation="2.0"/><feColorMatrix in="blurOut" result="blurOut2" type="matrix" values="0 0 0 0 0 0 0 0 0 0 0 0 0 0 0 0 0 0 .4 0"/><feOffset dx="4.0" dy="4.0" in="blurOut2" result="blurOut3"/><feBlend in="SourceGraphic" in2="blurOut3" mode="normal"/></filter></defs><g><rect fill="#FFFFFF" filter="url(#f4t0zfhx3xguv)" height="116.5313" style="stroke: #A80036; stroke-width: 1.0;" width="10" x="193" y="117.4297"/><rect fill="#FFFFFF" filter="url(#f4t0zfhx3xguv)" height="87.3984" style="stroke: #A80036; stroke-width: 1.0;" width="10" x="328.5" y="146.5625"/><rect fill="#FFFFFF" filter="url(#f4t0zfhx3xguv)" height="29.1328" style="stroke: #A80036; stroke-width: 1.0;" width="10" x="587.5" y="175.6953"/><line style="stroke: #A80036; stroke-width: 1.0; stroke-dasharray: 5.0,5.0;" x1="27" x2="27" y1="86.2969" y2="251.9609"/><line style="stroke: #A80036; stroke-width: 1.0; stroke-dasharray: 5.0,5.0;" x1="198" x2="198" y1="86.2969" y2="251.9609"/><line style="stroke: #A80036; stroke-width: 1.0; stroke-dasharray: 5.0,5.0;" x1="333" x2="333" y1="86.2969" y2="251.9609"/><line style="stroke: #A80036; stroke-width: 1.0; stroke-dasharray: 5.0,5.0;" x1="592.5" x2="592.5" y1="86.2969" y2="251.9609"/><text fill="#000000" font-family="sans-serif" font-size="14" lengthAdjust="spacingAndGlyphs" textLength="32" x="8" y="82.9951">User</text><ellipse cx="27" cy="13" fill="#FEFECE" filter="url(#f4t0zfhx3xguv)" rx="8" ry="8" style="stroke: #A80036; stroke-width: 2.0;"/><path d="M27,21 L27,48 M14,29 L40,29 M27,48 L14,63 M27,48 L40,63 " fill="none" filter="url(#f4t0zfhx3xguv)" style="stroke: #A80036; stroke-width: 2.0;"/><text fill="#000000" font-family="sans-serif" font-size="14" lengthAdjust="spacingAndGlyphs" textLength="72" x="159" y="82.9951">LoginForm</text><path d="M177.5,42 L177.5,66 M177.5,54 L194.5,54 " fill="none" filter="url(#f4t0zfhx3xguv)" style="stroke: #A80036; stroke-width: 2.0;"/><ellipse cx="206.5" cy="54" fill="#FEFECE" filter="url(#f4t0zfhx3xguv)" rx="12" ry="12" style="stroke: #A80036; stroke-width: 2.0;"/><text fill="#000000" font-family="sans-serif" font-size="14" lengthAdjust="spacingAndGlyphs" textLength="167" x="247" y="82.9951">AuthenticationController</text><ellipse cx="333.5" cy="54" fill="#FEFECE" filter="url(#f4t0zfhx3xguv)" rx="12" ry="12" style="stroke: #A80036; stroke-width: 2.0;"/><polygon fill="#A80036" points="329.5,42,335.5,37,333.5,42,335.5,47,329.5,42" style="stroke: #A80036; stroke-width: 1.0;"/><text fill="#000000" font-family="sans-serif" font-size="14" lengthAdjust="spacingAndGlyphs" textLength="32" x="573.5" y="82.9951">User</text><ellipse cx="592.5" cy="54" fill="#FEFECE" filter="url(#f4t0zfhx3xguv)" rx="12" ry="12" style="stroke: #A80036; stroke-width: 2.0;"/><line style="stroke: #A80036; stroke-width: 2.0;" x1="580.5" x2="604.5" y1="68" y2="68"/><rect fill="#FFFFFF" filter="url(#f4t0zfhx3xguv)" height="116.5313" style="stroke: #A80036; stroke-width: 1.0;" width="10" x="193" y="117.4297"/><rect fill="#FFFFFF" filter="url(#f4t0zfhx3xguv)" height="87.3984" style="stroke: #A80036; stroke-width: 1.0;" width="10" x="328.5" y="146.5625"/><rect fill="#FFFFFF" filter="url(#f4t0zfhx3xguv)" height="29.1328" style="stroke: #A80036; stroke-width: 1.0;" width="10" x="587.5" y="175.6953"/><polygon fill="#A80036" points="181,113.4297,191,117.4297,181,121.4297,185,117.4297" style="stroke: #A80036; stroke-width: 1.0;"/><line style="stroke: #A80036; stroke-width: 1.0;" x1="27" x2="187" y1="117.4297" y2="117.4297"/><text fill="#000000" font-family="sans-serif" font-size="13" font-weight="bold" lengthAdjust="spacingAndGlyphs" textLength="9" x="34" y="112.3638">1</text><text fill="#000000" font-family="sans-serif" font-size="13" lengthAdjust="spacingAndGlyphs" textLength="134" x="47" y="112.3638">// submit login form()</text><polygon fill="#A80036" points="316.5,142.5625,326.5,146.5625,316.5,150.5625,320.5,146.5625" style="stroke: #A80036; stroke-width: 1.0;"/><line style="stroke: #A80036; stroke-width: 1.0;" x1="203" x2="322.5" y1="146.5625" y2="146.5625"/><text fill="#000000" font-family="sans-serif" font-size="13" font-weight="bold" lengthAdjust="spacingAndGlyphs" textLength="9" x="210" y="141.4966">2</text><text fill="#000000" font-family="sans-serif" font-size="13" lengthAdjust="spacingAndGlyphs" textLength="52" x="223" y="141.4966">// login()</text><polygon fill="#A80036" points="575.5,171.6953,585.5,175.6953,575.5,179.6953,579.5,175.6953" style="stroke: #A80036; stroke-width: 1.0;"/><line style="stroke: #A80036; stroke-width: 1.0;" x1="338.5" x2="581.5" y1="175.6953" y2="175.6953"/><text fill="#000000" font-family="sans-serif" font-size="13" font-weight="bold" lengthAdjust="spacingAndGlyphs" textLength="9" x="345.5" y="170.6294">3</text><text fill="#000000" font-family="sans-serif" font-size="13" lengthAdjust="spacingAndGlyphs" textLength="217" x="358.5" y="170.6294">// verify username and password()</text><polygon fill="#A80036" points="349.5,200.8281,339.5,204.8281,349.5,208.8281,345.5,204.8281" style="stroke: #A80036; stroke-width: 1.0;"/><line style="stroke: #A80036; stroke-width: 1.0; stroke-dasharray: 2.0,2.0;" x1="343.5" x2="591.5" y1="204.8281" y2="204.8281"/><text fill="#000000" font-family="sans-serif" font-size="13" font-weight="bold" lengthAdjust="spacingAndGlyphs" textLength="9" x="355.5" y="199.7622">4</text><text fill="#000000" font-family="sans-serif" font-size="13" lengthAdjust="spacingAndGlyphs" textLength="0" x="372.5" y="199.7622"/><polygon fill="#A80036" points="209,229.9609,199,233.9609,209,237.9609,205,233.9609" style="stroke: #A80036; stroke-width: 1.0;"/><line style="stroke: #A80036; stroke-width: 1.0; stroke-dasharray: 2.0,2.0;" x1="203" x2="332.5" y1="233.9609" y2="233.9609"/><text fill="#000000" font-family="sans-serif" font-size="13" font-weight="bold" lengthAdjust="spacingAndGlyphs" textLength="9" x="215" y="228.895">5</text><text fill="#000000" font-family="sans-serif" font-size="13" lengthAdjust="spacingAndGlyphs" textLength="0" x="232" y="228.895"/><!--MD5=[865649abbdfd791a459dcb2d65e5d938]
@startuml

autoactivate on
hide footbox

actor User as user
boundary LoginForm as form
control AuthenticationController as ctl
entity User as user_ent

autonumber

user -> form : // submit login form()
form -> ctl : // login()
ctl -> user_ent : // verify username and password()
user_ent - -> ctl
ctl - -> form
deactivate form

@enduml

PlantUML version 1.2020.02(Sun Mar 01 10:22:07 GMT 2020)
(GPL source distribution)
Java Runtime: OpenJDK Runtime Environment
JVM: OpenJDK 64-Bit Server VM
Java Version: 11.0.8+10-post-Ubuntu-0ubuntu1
Operating System: Linux
Default Encoding: ANSI_X3.4-1968
Language: en
Country: US
--></g></svg>