<?xml version="1.0" encoding="UTF-8" standalone="no"?><svg xmlns="http://www.w3.org/2000/svg" xmlns:xlink="http://www.w3.org/1999/xlink" contentScriptType="application/ecmascript" contentStyleType="text/css" height="684px" preserveAspectRatio="none" style="width:823px;height:684px;" version="1.1" viewBox="0 0 823 684" width="823px" zoomAndPan="magnify"><defs><filter height="300%" id="f12r8ih8y59qph" width="300%" x="-1" y="-1"><feGaussianBlur result="blurOut" stdDeviation="2.0"/><feColorMatrix in="blurOut" result="blurOut2" type="matrix" values="0 0 0 0 0 0 0 0 0 0 0 0 0 0 0 0 0 0 .4 0"/><feOffset dx="4.0" dy="4.0" in="blurOut2" result="blurOut3"/><feBlend in="SourceGraphic" in2="blurOut3" mode="normal"/></filter></defs><g><rect fill="#FFFFFF" filter="url(#f12r8ih8y59qph)" height="529.8594" style="stroke: #A80036; stroke-width: 1.0;" width="10" x="167" y="117.4297"/><rect fill="#FFFFFF" filter="url(#f12r8ih8y59qph)" height="28" style="stroke: #A80036; stroke-width: 1.0;" width="10" x="172" y="271.9609"/><rect fill="#FFFFFF" filter="url(#f12r8ih8y59qph)" height="276.0625" style="stroke: #A80036; stroke-width: 1.0;" width="10" x="172" y="336.0938"/><rect fill="#FFFFFF" filter="url(#f12r8ih8y59qph)" height="217.7969" style="stroke: #A80036; stroke-width: 1.0;" width="10" x="311" y="394.3594"/><rect fill="#FFFFFF" filter="url(#f12r8ih8y59qph)" height="151.5313" style="stroke: #A80036; stroke-width: 1.0;" width="10" x="316" y="431.4922"/><rect fill="#FFFFFF" filter="url(#f12r8ih8y59qph)" height="117.3984" style="stroke: #A80036; stroke-width: 1.0;" width="10" x="321" y="465.625"/><rect fill="#FFFFFF" filter="url(#f12r8ih8y59qph)" height="88.2656" style="stroke: #A80036; stroke-width: 1.0;" width="10" x="476" y="146.5625"/><rect fill="#FFFFFF" filter="url(#f12r8ih8y59qph)" height="217.7969" style="stroke: #A80036; stroke-width: 1.0;" width="10" x="476" y="365.2266"/><rect fill="#FFFFFF" filter="url(#f12r8ih8y59qph)" height="88.2656" style="stroke: #A80036; stroke-width: 1.0;" width="10" x="481" y="494.7578"/><rect fill="#FFFFFF" filter="url(#f12r8ih8y59qph)" height="30" style="stroke: #A80036; stroke-width: 1.0;" width="10" x="763" y="175.6953"/><rect fill="#FFFFFF" filter="url(#f12r8ih8y59qph)" height="30" style="stroke: #A80036; stroke-width: 1.0;" width="10" x="763" y="523.8906"/><line style="stroke: #A80036; stroke-width: 1.0; stroke-dasharray: 5.0,5.0;" x1="27" x2="27" y1="86.2969" y2="672.2891"/><line style="stroke: #A80036; stroke-width: 1.0; stroke-dasharray: 5.0,5.0;" x1="171.5" x2="171.5" y1="86.2969" y2="672.2891"/><line style="stroke: #A80036; stroke-width: 1.0; stroke-dasharray: 5.0,5.0;" x1="316" x2="316" y1="86.2969" y2="672.2891"/><line style="stroke: #A80036; stroke-width: 1.0; stroke-dasharray: 5.0,5.0;" x1="481" x2="481" y1="86.2969" y2="672.2891"/><line style="stroke: #A80036; stroke-width: 1.0; stroke-dasharray: 5.0,5.0;" x1="768" x2="768" y1="86.2969" y2="672.2891"/><text fill="#000000" font-family="sans-serif" font-size="14" lengthAdjust="spacingAndGlyphs" textLength="32" x="8" y="82.9951">User</text><ellipse cx="27" cy="13" fill="#FEFECE" filter="url(#f12r8ih8y59qph)" rx="8" ry="8" style="stroke: #A80036; stroke-width: 2.0;"/><path d="M27,21 L27,48 M14,29 L40,29 M27,48 L14,63 M27,48 L40,63 " fill="none" filter="url(#f12r8ih8y59qph)" style="stroke: #A80036; stroke-width: 2.0;"/><text fill="#000000" font-family="sans-serif" font-size="14" lengthAdjust="spacingAndGlyphs" textLength="63" x="137.5" y="82.9951">PostView</text><path d="M151.5,42 L151.5,66 M151.5,54 L168.5,54 " fill="none" filter="url(#f12r8ih8y59qph)" style="stroke: #A80036; stroke-width: 2.0;"/><ellipse cx="180.5" cy="54" fill="#FEFECE" filter="url(#f12r8ih8y59qph)" rx="12" ry="12" style="stroke: #A80036; stroke-width: 2.0;"/><text fill="#000000" font-family="sans-serif" font-size="14" lengthAdjust="spacingAndGlyphs" textLength="66" x="280" y="82.9951">PostForm</text><path d="M295.5,42 L295.5,66 M295.5,54 L312.5,54 " fill="none" filter="url(#f12r8ih8y59qph)" style="stroke: #A80036; stroke-width: 2.0;"/><ellipse cx="324.5" cy="54" fill="#FEFECE" filter="url(#f12r8ih8y59qph)" rx="12" ry="12" style="stroke: #A80036; stroke-width: 2.0;"/><text fill="#000000" font-family="sans-serif" font-size="14" lengthAdjust="spacingAndGlyphs" textLength="98" x="429" y="82.9951">PostController</text><ellipse cx="481" cy="54" fill="#FEFECE" filter="url(#f12r8ih8y59qph)" rx="12" ry="12" style="stroke: #A80036; stroke-width: 2.0;"/><polygon fill="#A80036" points="477,42,483,37,481,42,483,47,477,42" style="stroke: #A80036; stroke-width: 1.0;"/><rect fill="#FEFECE" filter="url(#f12r8ih8y59qph)" height="46.5938" style="stroke: #A80036; stroke-width: 1.5;" width="92" x="720" y="34.7031"/><text fill="#000000" font-family="sans-serif" font-size="14" font-style="italic" lengthAdjust="spacingAndGlyphs" textLength="78" x="727" y="54.6982">«interface»</text><text fill="#000000" font-family="sans-serif" font-size="14" lengthAdjust="spacingAndGlyphs" textLength="34" x="749" y="70.9951">IPost</text><rect fill="#FFFFFF" filter="url(#f12r8ih8y59qph)" height="529.8594" style="stroke: #A80036; stroke-width: 1.0;" width="10" x="167" y="117.4297"/><rect fill="#FFFFFF" filter="url(#f12r8ih8y59qph)" height="28" style="stroke: #A80036; stroke-width: 1.0;" width="10" x="172" y="271.9609"/><rect fill="#FFFFFF" filter="url(#f12r8ih8y59qph)" height="276.0625" style="stroke: #A80036; stroke-width: 1.0;" width="10" x="172" y="336.0938"/><rect fill="#FFFFFF" filter="url(#f12r8ih8y59qph)" height="217.7969" style="stroke: #A80036; stroke-width: 1.0;" width="10" x="311" y="394.3594"/><rect fill="#FFFFFF" filter="url(#f12r8ih8y59qph)" height="151.5313" style="stroke: #A80036; stroke-width: 1.0;" width="10" x="316" y="431.4922"/><rect fill="#FFFFFF" filter="url(#f12r8ih8y59qph)" height="117.3984" style="stroke: #A80036; stroke-width: 1.0;" width="10" x="321" y="465.625"/><rect fill="#FFFFFF" filter="url(#f12r8ih8y59qph)" height="88.2656" style="stroke: #A80036; stroke-width: 1.0;" width="10" x="476" y="146.5625"/><rect fill="#FFFFFF" filter="url(#f12r8ih8y59qph)" height="217.7969" style="stroke: #A80036; stroke-width: 1.0;" width="10" x="476" y="365.2266"/><rect fill="#FFFFFF" filter="url(#f12r8ih8y59qph)" height="88.2656" style="stroke: #A80036; stroke-width: 1.0;" width="10" x="481" y="494.7578"/><rect fill="#FFFFFF" filter="url(#f12r8ih8y59qph)" height="30" style="stroke: #A80036; stroke-width: 1.0;" width="10" x="763" y="175.6953"/><rect fill="#FFFFFF" filter="url(#f12r8ih8y59qph)" height="30" style="stroke: #A80036; stroke-width: 1.0;" width="10" x="763" y="523.8906"/><polygon fill="#A80036" points="155,113.4297,165,117.4297,155,121.4297,159,117.4297" style="stroke: #A80036; stroke-width: 1.0;"/><line style="stroke: #A80036; stroke-width: 1.0;" x1="27" x2="161" y1="117.4297" y2="117.4297"/><text fill="#000000" font-family="sans-serif" font-size="13" font-weight="bold" lengthAdjust="spacingAndGlyphs" textLength="9" x="34" y="112.3638">1</text><text fill="#000000" font-family="sans-serif" font-size="13" lengthAdjust="spacingAndGlyphs" textLength="86" x="47" y="112.3638">// open post()</text><polygon fill="#A80036" points="464,142.5625,474,146.5625,464,150.5625,468,146.5625" style="stroke: #A80036; stroke-width: 1.0;"/><line style="stroke: #A80036; stroke-width: 1.0;" x1="177" x2="470" y1="146.5625" y2="146.5625"/><text fill="#000000" font-family="sans-serif" font-size="13" font-weight="bold" lengthAdjust="spacingAndGlyphs" textLength="9" x="184" y="141.4966">2</text><text fill="#000000" font-family="sans-serif" font-size="13" lengthAdjust="spacingAndGlyphs" textLength="75" x="197" y="141.4966">// get post()</text><polygon fill="#A80036" points="751,171.6953,761,175.6953,751,179.6953,755,175.6953" style="stroke: #A80036; stroke-width: 1.0;"/><line style="stroke: #A80036; stroke-width: 1.0;" x1="486" x2="757" y1="175.6953" y2="175.6953"/><text fill="#000000" font-family="sans-serif" font-size="13" font-weight="bold" lengthAdjust="spacingAndGlyphs" textLength="9" x="493" y="170.6294">3</text><text fill="#000000" font-family="sans-serif" font-size="13" lengthAdjust="spacingAndGlyphs" textLength="95" x="506" y="170.6294">readPost(post)</text><polygon fill="#A80036" points="188,230.8281,178,234.8281,188,238.8281,184,234.8281" style="stroke: #A80036; stroke-width: 1.0;"/><line style="stroke: #A80036; stroke-width: 1.0; stroke-dasharray: 2.0,2.0;" x1="182" x2="480" y1="234.8281" y2="234.8281"/><text fill="#000000" font-family="sans-serif" font-size="13" font-weight="bold" lengthAdjust="spacingAndGlyphs" textLength="9" x="194" y="229.7622">4</text><text fill="#000000" font-family="sans-serif" font-size="13" lengthAdjust="spacingAndGlyphs" textLength="0" x="211" y="229.7622"/><line style="stroke: #A80036; stroke-width: 1.0;" x1="182" x2="224" y1="263.9609" y2="263.9609"/><line style="stroke: #A80036; stroke-width: 1.0;" x1="224" x2="224" y1="263.9609" y2="276.9609"/><line style="stroke: #A80036; stroke-width: 1.0;" x1="183" x2="224" y1="276.9609" y2="276.9609"/><polygon fill="#A80036" points="193,272.9609,183,276.9609,193,280.9609,189,276.9609" style="stroke: #A80036; stroke-width: 1.0;"/><text fill="#000000" font-family="sans-serif" font-size="13" font-weight="bold" lengthAdjust="spacingAndGlyphs" textLength="9" x="189" y="258.895">5</text><text fill="#000000" font-family="sans-serif" font-size="13" lengthAdjust="spacingAndGlyphs" textLength="98" x="202" y="258.895">// display post()</text><polygon fill="#A80036" points="160,332.0938,170,336.0938,160,340.0938,164,336.0938" style="stroke: #A80036; stroke-width: 1.0;"/><line style="stroke: #A80036; stroke-width: 1.0;" x1="27" x2="166" y1="336.0938" y2="336.0938"/><text fill="#000000" font-family="sans-serif" font-size="13" font-weight="bold" lengthAdjust="spacingAndGlyphs" textLength="9" x="34" y="331.0278">6</text><text fill="#000000" font-family="sans-serif" font-size="13" lengthAdjust="spacingAndGlyphs" textLength="103" x="47" y="331.0278">// start editing ()</text><polygon fill="#A80036" points="464,361.2266,474,365.2266,464,369.2266,468,365.2266" style="stroke: #A80036; stroke-width: 1.0;"/><line style="stroke: #A80036; stroke-width: 1.0;" x1="182" x2="470" y1="365.2266" y2="365.2266"/><text fill="#000000" font-family="sans-serif" font-size="13" font-weight="bold" lengthAdjust="spacingAndGlyphs" textLength="9" x="189" y="360.1606">7</text><text fill="#000000" font-family="sans-serif" font-size="13" lengthAdjust="spacingAndGlyphs" textLength="99" x="202" y="360.1606">// start editing()</text><polygon fill="#A80036" points="332,390.3594,322,394.3594,332,398.3594,328,394.3594" style="stroke: #A80036; stroke-width: 1.0;"/><line style="stroke: #A80036; stroke-width: 1.0;" x1="326" x2="475" y1="394.3594" y2="394.3594"/><text fill="#000000" font-family="sans-serif" font-size="13" font-weight="bold" lengthAdjust="spacingAndGlyphs" textLength="9" x="338" y="389.2935">8</text><text fill="#000000" font-family="sans-serif" font-size="13" lengthAdjust="spacingAndGlyphs" textLength="120" x="351" y="389.2935">// open post form()</text><line style="stroke: #A80036; stroke-width: 1.0;" x1="321" x2="368" y1="418.4922" y2="418.4922"/><line style="stroke: #A80036; stroke-width: 1.0;" x1="368" x2="368" y1="418.4922" y2="431.4922"/><line style="stroke: #A80036; stroke-width: 1.0;" x1="327" x2="368" y1="431.4922" y2="431.4922"/><polygon fill="#A80036" points="337,427.4922,327,431.4922,337,435.4922,333,431.4922" style="stroke: #A80036; stroke-width: 1.0;"/><text fill="#000000" font-family="sans-serif" font-size="13" font-weight="bold" lengthAdjust="spacingAndGlyphs" textLength="9" x="333" y="413.4263">9</text><text fill="#000000" font-family="sans-serif" font-size="13" lengthAdjust="spacingAndGlyphs" textLength="66" x="346" y="413.4263">// display()</text><polygon fill="#A80036" points="309,461.625,319,465.625,309,469.625,313,465.625" style="stroke: #A80036; stroke-width: 1.0;"/><line style="stroke: #A80036; stroke-width: 1.0;" x1="27" x2="315" y1="465.625" y2="465.625"/><text fill="#000000" font-family="sans-serif" font-size="13" font-weight="bold" lengthAdjust="spacingAndGlyphs" textLength="18" x="34" y="460.5591">10</text><text fill="#000000" font-family="sans-serif" font-size="13" lengthAdjust="spacingAndGlyphs" textLength="126" x="56" y="460.5591">// submit post edit()</text><polygon fill="#A80036" points="469,490.7578,479,494.7578,469,498.7578,473,494.7578" style="stroke: #A80036; stroke-width: 1.0;"/><line style="stroke: #A80036; stroke-width: 1.0;" x1="331" x2="475" y1="494.7578" y2="494.7578"/><text fill="#000000" font-family="sans-serif" font-size="13" font-weight="bold" lengthAdjust="spacingAndGlyphs" textLength="18" x="338" y="489.6919">11</text><text fill="#000000" font-family="sans-serif" font-size="13" lengthAdjust="spacingAndGlyphs" textLength="99" x="360" y="489.6919">// update post()</text><polygon fill="#A80036" points="751,519.8906,761,523.8906,751,527.8906,755,523.8906" style="stroke: #A80036; stroke-width: 1.0;"/><line style="stroke: #A80036; stroke-width: 1.0;" x1="491" x2="757" y1="523.8906" y2="523.8906"/><text fill="#000000" font-family="sans-serif" font-size="13" font-weight="bold" lengthAdjust="spacingAndGlyphs" textLength="18" x="498" y="518.8247">12</text><text fill="#000000" font-family="sans-serif" font-size="13" lengthAdjust="spacingAndGlyphs" textLength="231" x="520" y="518.8247">updatePost(post, newContent, user)</text><polygon fill="#A80036" points="332,579.0234,322,583.0234,332,587.0234,328,583.0234" style="stroke: #A80036; stroke-width: 1.0;"/><line style="stroke: #A80036; stroke-width: 1.0; stroke-dasharray: 2.0,2.0;" x1="326" x2="480" y1="583.0234" y2="583.0234"/><text fill="#000000" font-family="sans-serif" font-size="13" font-weight="bold" lengthAdjust="spacingAndGlyphs" textLength="18" x="338" y="577.9575">13</text><text fill="#000000" font-family="sans-serif" font-size="13" lengthAdjust="spacingAndGlyphs" textLength="0" x="364" y="577.9575"/><polygon fill="#A80036" points="188,608.1563,178,612.1563,188,616.1563,184,612.1563" style="stroke: #A80036; stroke-width: 1.0;"/><line style="stroke: #A80036; stroke-width: 1.0; stroke-dasharray: 2.0,2.0;" x1="182" x2="315" y1="612.1563" y2="612.1563"/><text fill="#000000" font-family="sans-serif" font-size="13" font-weight="bold" lengthAdjust="spacingAndGlyphs" textLength="18" x="194" y="607.0903">14</text><text fill="#000000" font-family="sans-serif" font-size="13" lengthAdjust="spacingAndGlyphs" textLength="0" x="220" y="607.0903"/><line style="stroke: #A80036; stroke-width: 1.0; stroke-dasharray: 2.0,2.0;" x1="177" x2="219" y1="646.2891" y2="646.2891"/><line style="stroke: #A80036; stroke-width: 1.0; stroke-dasharray: 2.0,2.0;" x1="219" x2="219" y1="646.2891" y2="659.2891"/><line style="stroke: #A80036; stroke-width: 1.0; stroke-dasharray: 2.0,2.0;" x1="172" x2="219" y1="659.2891" y2="659.2891"/><polygon fill="#A80036" points="182,655.2891,172,659.2891,182,663.2891,178,659.2891" style="stroke: #A80036; stroke-width: 1.0;"/><text fill="#000000" font-family="sans-serif" font-size="13" font-weight="bold" lengthAdjust="spacingAndGlyphs" textLength="18" x="184" y="641.2231">15</text><text fill="#000000" font-family="sans-serif" font-size="13" lengthAdjust="spacingAndGlyphs" textLength="98" x="206" y="641.2231">// display post()</text><!--MD5=[7bd3fb43bfe3048ae4a0f3106840346d]
@startuml

hide footbox
autoactivate on

actor User as user
boundary PostView as post_view
boundary PostForm as post_form
control PostController as post_ctl

participant IPost as post_int <<interface>>

autonumber

user -> post_view : // open post()
post_view -> post_ctl : // get post()
post_ctl -> post_int : readPost(post)
deactivate post_int
post_view <- - post_ctl
post_view -> post_view : // display post()

deactivate post_view
user -> post_view : // start editing ()
post_view -> post_ctl : // start editing()
post_ctl -> post_form : // open post form()
post_form -> post_form : // display()
user -> post_form : // submit post edit()
post_form -> post_ctl : // update post()
post_ctl -> post_int : updatePost(post, newContent, user)
deactivate post_int
post_form <- - post_ctl
deactivate post_ctl
deactivate post_form
deactivate post_form
post_view <- - post_form
deactivate post_view

post_view - -> post_view : // display post()


@enduml

PlantUML version 1.2020.02(Sun Mar 01 10:22:07 GMT 2020)
(GPL source distribution)
Java Runtime: OpenJDK Runtime Environment
JVM: OpenJDK 64-Bit Server VM
Java Version: 11.0.8+10-post-Ubuntu-0ubuntu1
Operating System: Linux
Default Encoding: ANSI_X3.4-1968
Language: en
Country: US
--></g></svg>