<?xml version="1.0" encoding="UTF-8" standalone="no"?><svg xmlns="http://www.w3.org/2000/svg" xmlns:xlink="http://www.w3.org/1999/xlink" contentScriptType="application/ecmascript" contentStyleType="text/css" height="327px" preserveAspectRatio="none" style="width:428px;height:327px;" version="1.1" viewBox="0 0 428 327" width="428px" zoomAndPan="magnify"><defs><filter height="300%" id="ftlclhfk16wpl" width="300%" x="-1" y="-1"><feGaussianBlur result="blurOut" stdDeviation="2.0"/><feColorMatrix in="blurOut" result="blurOut2" type="matrix" values="0 0 0 0 0 0 0 0 0 0 0 0 0 0 0 0 0 0 .4 0"/><feOffset dx="4.0" dy="4.0" in="blurOut2" result="blurOut3"/><feBlend in="SourceGraphic" in2="blurOut3" mode="normal"/></filter></defs><g><!--MD5=[6e39a85748f9d27ba97d4400548c58d3]
class Subreddit--><rect fill="#FEFECE" filter="url(#ftlclhfk16wpl)" height="66.7422" id="Subreddit" style="stroke: #A80036; stroke-width: 1.5;" width="127" x="6.5" y="27"/><ellipse cx="36.8" cy="45.9688" fill="#ADD1B2" rx="11" ry="11" style="stroke: #A80036; stroke-width: 1.0;"/><path d="M39.7688,51.6094 Q39.1906,51.9063 38.55,52.0469 Q37.9094,52.2031 37.2063,52.2031 Q34.7063,52.2031 33.3781,50.5625 Q32.0656,48.9063 32.0656,45.7813 Q32.0656,42.6563 33.3781,41 Q34.7063,39.3438 37.2063,39.3438 Q37.9094,39.3438 38.55,39.5 Q39.2063,39.6563 39.7688,39.9531 L39.7688,42.6719 Q39.1438,42.0938 38.55,41.8281 Q37.9563,41.5469 37.3313,41.5469 Q35.9875,41.5469 35.3,42.625 Q34.6125,43.6875 34.6125,45.7813 Q34.6125,47.875 35.3,48.9531 Q35.9875,50.0156 37.3313,50.0156 Q37.9563,50.0156 38.55,49.75 Q39.1438,49.4688 39.7688,48.8906 L39.7688,51.6094 Z "/><text fill="#000000" font-family="sans-serif" font-size="12" font-style="italic" lengthAdjust="spacingAndGlyphs" textLength="50" x="59.7" y="43.1387">«entity»</text><text fill="#000000" font-family="sans-serif" font-size="12" lengthAdjust="spacingAndGlyphs" textLength="61" x="54.2" y="57.1074">Subreddit</text><line style="stroke: #A80036; stroke-width: 1.5;" x1="7.5" x2="132.5" y1="64.9375" y2="64.9375"/><line style="stroke: #A80036; stroke-width: 1.5;" x1="7.5" x2="132.5" y1="72.9375" y2="72.9375"/><text fill="#000000" font-family="sans-serif" font-size="11" lengthAdjust="spacingAndGlyphs" textLength="115" x="12.5" y="87.1479">// verify moderator()</text><!--MD5=[b73d0c7815239b15f225c04fe592abb2]
class PostView--><rect fill="#FEFECE" filter="url(#ftlclhfk16wpl)" height="79.5469" id="PostView" style="stroke: #A80036; stroke-width: 1.5;" width="111" x="168.5" y="20.5"/><ellipse cx="187.55" cy="39.4688" fill="#ADD1B2" rx="11" ry="11" style="stroke: #A80036; stroke-width: 1.0;"/><path d="M190.5188,45.1094 Q189.9406,45.4063 189.3,45.5469 Q188.6594,45.7031 187.9563,45.7031 Q185.4563,45.7031 184.1281,44.0625 Q182.8156,42.4063 182.8156,39.2813 Q182.8156,36.1563 184.1281,34.5 Q185.4563,32.8438 187.9563,32.8438 Q188.6594,32.8438 189.3,33 Q189.9563,33.1563 190.5188,33.4531 L190.5188,36.1719 Q189.8938,35.5938 189.3,35.3281 Q188.7063,35.0469 188.0813,35.0469 Q186.7375,35.0469 186.05,36.125 Q185.3625,37.1875 185.3625,39.2813 Q185.3625,41.375 186.05,42.4531 Q186.7375,43.5156 188.0813,43.5156 Q188.7063,43.5156 189.3,43.25 Q189.8938,42.9688 190.5188,42.3906 L190.5188,45.1094 Z "/><text fill="#000000" font-family="sans-serif" font-size="12" font-style="italic" lengthAdjust="spacingAndGlyphs" textLength="74" x="200.45" y="36.6387">«boundary»</text><text fill="#000000" font-family="sans-serif" font-size="12" lengthAdjust="spacingAndGlyphs" textLength="56" x="209.45" y="50.6074">PostView</text><line style="stroke: #A80036; stroke-width: 1.5;" x1="169.5" x2="278.5" y1="58.4375" y2="58.4375"/><line style="stroke: #A80036; stroke-width: 1.5;" x1="169.5" x2="278.5" y1="66.4375" y2="66.4375"/><text fill="#000000" font-family="sans-serif" font-size="11" lengthAdjust="spacingAndGlyphs" textLength="89" x="174.5" y="80.6479">// display post()</text><text fill="#000000" font-family="sans-serif" font-size="11" lengthAdjust="spacingAndGlyphs" textLength="99" x="174.5" y="93.4526">// lock comment()</text><!--MD5=[7b203e851f38cacfca1250ebe6d2f33a]
class PostForm--><rect fill="#FEFECE" filter="url(#ftlclhfk16wpl)" height="105.1563" id="PostForm" style="stroke: #A80036; stroke-width: 1.5;" width="102" x="315" y="8"/><ellipse cx="330" cy="26.9688" fill="#ADD1B2" rx="11" ry="11" style="stroke: #A80036; stroke-width: 1.0;"/><path d="M332.9688,32.6094 Q332.3906,32.9063 331.75,33.0469 Q331.1094,33.2031 330.4063,33.2031 Q327.9063,33.2031 326.5781,31.5625 Q325.2656,29.9063 325.2656,26.7813 Q325.2656,23.6563 326.5781,22 Q327.9063,20.3438 330.4063,20.3438 Q331.1094,20.3438 331.75,20.5 Q332.4063,20.6563 332.9688,20.9531 L332.9688,23.6719 Q332.3438,23.0938 331.75,22.8281 Q331.1563,22.5469 330.5313,22.5469 Q329.1875,22.5469 328.5,23.625 Q327.8125,24.6875 327.8125,26.7813 Q327.8125,28.875 328.5,29.9531 Q329.1875,31.0156 330.5313,31.0156 Q331.1563,31.0156 331.75,30.75 Q332.3438,30.4688 332.9688,29.8906 L332.9688,32.6094 Z "/><text fill="#000000" font-family="sans-serif" font-size="12" font-style="italic" lengthAdjust="spacingAndGlyphs" textLength="74" x="342" y="24.1387">«boundary»</text><text fill="#000000" font-family="sans-serif" font-size="12" lengthAdjust="spacingAndGlyphs" textLength="59" x="349.5" y="38.1074">PostForm</text><line style="stroke: #A80036; stroke-width: 1.5;" x1="316" x2="416" y1="45.9375" y2="45.9375"/><line style="stroke: #A80036; stroke-width: 1.5;" x1="316" x2="416" y1="53.9375" y2="53.9375"/><text fill="#000000" font-family="sans-serif" font-size="11" lengthAdjust="spacingAndGlyphs" textLength="85" x="321" y="68.1479">// create post()</text><text fill="#000000" font-family="sans-serif" font-size="11" lengthAdjust="spacingAndGlyphs" textLength="88" x="321" y="80.9526">// update post()</text><text fill="#000000" font-family="sans-serif" font-size="11" lengthAdjust="spacingAndGlyphs" textLength="84" x="321" y="93.7573">// delete post()</text><text fill="#000000" font-family="sans-serif" font-size="11" lengthAdjust="spacingAndGlyphs" textLength="60" x="321" y="106.562">// display()</text><!--MD5=[3e002d90817961157d240122581ca1e2]
class PostController--><rect fill="#FEFECE" filter="url(#ftlclhfk16wpl)" height="143.5703" id="PostController" style="stroke: #A80036; stroke-width: 1.5;" width="128" x="6" y="173"/><ellipse cx="24.15" cy="191.9688" fill="#ADD1B2" rx="11" ry="11" style="stroke: #A80036; stroke-width: 1.0;"/><path d="M27.1188,197.6094 Q26.5406,197.9063 25.9,198.0469 Q25.2594,198.2031 24.5563,198.2031 Q22.0563,198.2031 20.7281,196.5625 Q19.4156,194.9063 19.4156,191.7813 Q19.4156,188.6563 20.7281,187 Q22.0563,185.3438 24.5563,185.3438 Q25.2594,185.3438 25.9,185.5 Q26.5563,185.6563 27.1188,185.9531 L27.1188,188.6719 Q26.4938,188.0938 25.9,187.8281 Q25.3063,187.5469 24.6813,187.5469 Q23.3375,187.5469 22.65,188.625 Q21.9625,189.6875 21.9625,191.7813 Q21.9625,193.875 22.65,194.9531 Q23.3375,196.0156 24.6813,196.0156 Q25.3063,196.0156 25.9,195.75 Q26.4938,195.4688 27.1188,194.8906 L27.1188,197.6094 Z "/><text fill="#000000" font-family="sans-serif" font-size="12" font-style="italic" lengthAdjust="spacingAndGlyphs" textLength="74" x="46.35" y="189.1387">«controller»</text><text fill="#000000" font-family="sans-serif" font-size="12" lengthAdjust="spacingAndGlyphs" textLength="89" x="38.85" y="203.1074">PostController</text><line style="stroke: #A80036; stroke-width: 1.5;" x1="7" x2="133" y1="210.9375" y2="210.9375"/><line style="stroke: #A80036; stroke-width: 1.5;" x1="7" x2="133" y1="218.9375" y2="218.9375"/><text fill="#000000" font-family="sans-serif" font-size="11" lengthAdjust="spacingAndGlyphs" textLength="67" x="12" y="233.1479">// get post()</text><text fill="#000000" font-family="sans-serif" font-size="11" lengthAdjust="spacingAndGlyphs" textLength="70" x="12" y="245.9526">// edit post()</text><text fill="#000000" font-family="sans-serif" font-size="11" lengthAdjust="spacingAndGlyphs" textLength="84" x="12" y="258.7573">// delete post()</text><text fill="#000000" font-family="sans-serif" font-size="11" lengthAdjust="spacingAndGlyphs" textLength="85" x="12" y="271.562">// create post()</text><text fill="#000000" font-family="sans-serif" font-size="11" lengthAdjust="spacingAndGlyphs" textLength="99" x="12" y="284.3667">// lock comment()</text><text fill="#000000" font-family="sans-serif" font-size="11" lengthAdjust="spacingAndGlyphs" textLength="108" x="12" y="297.1714">// open post form()</text><text fill="#000000" font-family="sans-serif" font-size="11" lengthAdjust="spacingAndGlyphs" textLength="116" x="12" y="309.9761">// check moderator()</text><!--MD5=[9bb0bdd047fba1a3c8d48282c35b4537]
class Post--><rect fill="#FEFECE" filter="url(#ftlclhfk16wpl)" height="117.9609" id="Post" style="stroke: #A80036; stroke-width: 1.5;" width="111" x="169.5" y="186"/><ellipse cx="199.35" cy="204.9688" fill="#ADD1B2" rx="11" ry="11" style="stroke: #A80036; stroke-width: 1.0;"/><path d="M202.3188,210.6094 Q201.7406,210.9063 201.1,211.0469 Q200.4594,211.2031 199.7563,211.2031 Q197.2563,211.2031 195.9281,209.5625 Q194.6156,207.9063 194.6156,204.7813 Q194.6156,201.6563 195.9281,200 Q197.2563,198.3438 199.7563,198.3438 Q200.4594,198.3438 201.1,198.5 Q201.7563,198.6563 202.3188,198.9531 L202.3188,201.6719 Q201.6938,201.0938 201.1,200.8281 Q200.5063,200.5469 199.8813,200.5469 Q198.5375,200.5469 197.85,201.625 Q197.1625,202.6875 197.1625,204.7813 Q197.1625,206.875 197.85,207.9531 Q198.5375,209.0156 199.8813,209.0156 Q200.5063,209.0156 201.1,208.75 Q201.6938,208.4688 202.3188,207.8906 L202.3188,210.6094 Z "/><text fill="#000000" font-family="sans-serif" font-size="12" font-style="italic" lengthAdjust="spacingAndGlyphs" textLength="50" x="214.65" y="202.1387">«entity»</text><text fill="#000000" font-family="sans-serif" font-size="12" lengthAdjust="spacingAndGlyphs" textLength="28" x="225.65" y="216.1074">Post</text><line style="stroke: #A80036; stroke-width: 1.5;" x1="170.5" x2="279.5" y1="223.9375" y2="223.9375"/><line style="stroke: #A80036; stroke-width: 1.5;" x1="170.5" x2="279.5" y1="231.9375" y2="231.9375"/><text fill="#000000" font-family="sans-serif" font-size="11" lengthAdjust="spacingAndGlyphs" textLength="67" x="175.5" y="246.1479">// get post()</text><text fill="#000000" font-family="sans-serif" font-size="11" lengthAdjust="spacingAndGlyphs" textLength="70" x="175.5" y="258.9526">// edit post()</text><text fill="#000000" font-family="sans-serif" font-size="11" lengthAdjust="spacingAndGlyphs" textLength="84" x="175.5" y="271.7573">// delete post()</text><text fill="#000000" font-family="sans-serif" font-size="11" lengthAdjust="spacingAndGlyphs" textLength="85" x="175.5" y="284.562">// create post()</text><text fill="#000000" font-family="sans-serif" font-size="11" lengthAdjust="spacingAndGlyphs" textLength="99" x="175.5" y="297.3667">// lock comment()</text><!--MD5=[cb39ad43d016298e2ff8f4931677e412]
link Subreddit to PostView--><!--MD5=[230accc3ca15f3ec27523705ee26b6db]
link PostView to PostForm--><!--MD5=[68b5c00a219c896990b9ab1f45ea21e0]
link Subreddit to PostController--><!--MD5=[91636eb3b55c20170c8fe10013d1d676]
link PostController to Post--><!--MD5=[b2a510affd464c4c40209069b578c4bd]
@startuml
class Subreddit <<entity>> {
  // verify moderator()
}

class PostView <<boundary>> {
  // display post()
  // lock comment()
}

class PostForm <<boundary>> {
  // create post()
  // update post()
  // delete post()
  // display()
}

class PostController <<controller>> {
  // get post()
  // edit post()
  // delete post()
  // create post()
  // lock comment()
  // open post form()
  // check moderator()
}

class Post <<entity>> {
  // get post()
  // edit post()
  // delete post()
  // create post()
  // lock comment()
}

@enduml

PlantUML version 1.2020.02(Sun Mar 01 10:22:07 GMT 2020)
(GPL source distribution)
Java Runtime: OpenJDK Runtime Environment
JVM: OpenJDK 64-Bit Server VM
Java Version: 11.0.8+10-post-Ubuntu-0ubuntu1
Operating System: Linux
Default Encoding: ANSI_X3.4-1968
Language: en
Country: US
--></g></svg>