<?xml version="1.0" encoding="UTF-8" standalone="no"?><svg xmlns="http://www.w3.org/2000/svg" xmlns:xlink="http://www.w3.org/1999/xlink" contentScriptType="application/ecmascript" contentStyleType="text/css" height="327px" preserveAspectRatio="none" style="width:780px;height:327px;" version="1.1" viewBox="0 0 780 327" width="780px" zoomAndPan="magnify"><defs><filter height="300%" id="f1wyrfdebw5jcg" width="300%" x="-1" y="-1"><feGaussianBlur result="blurOut" stdDeviation="2.0"/><feColorMatrix in="blurOut" result="blurOut2" type="matrix" values="0 0 0 0 0 0 0 0 0 0 0 0 0 0 0 0 0 0 .4 0"/><feOffset dx="4.0" dy="4.0" in="blurOut2" result="blurOut3"/><feBlend in="SourceGraphic" in2="blurOut3" mode="normal"/></filter></defs><g><!--MD5=[9892c6f77c442752088fcf6c309c0000]
cluster sub--><rect fill="#FFFFFF" filter="url(#f1wyrfdebw5jcg)" height="292" style="stroke: #000000; stroke-width: 1.5;" width="454" x="195" y="24"/><text fill="#000000" font-family="sans-serif" font-size="14" font-weight="bold" lengthAdjust="spacingAndGlyphs" textLength="77" x="383.5" y="38.9951">Subreddit</text><ellipse cx="288.3797" cy="214.1759" fill="#FEFECE" filter="url(#f1wyrfdebw5jcg)" rx="73.8797" ry="17.1759" style="stroke: #A80036; stroke-width: 1.5;"/><text fill="#000000" font-family="sans-serif" font-size="14" lengthAdjust="spacingAndGlyphs" textLength="116" x="230.3797" y="218.8244">Create subreddit</text><ellipse cx="564.2758" cy="108.0552" fill="#FEFECE" filter="url(#f1wyrfdebw5jcg)" rx="68.2758" ry="16.0552" style="stroke: #A80036; stroke-width: 1.5;"/><text fill="#000000" font-family="sans-serif" font-size="14" lengthAdjust="spacingAndGlyphs" textLength="102" x="513.2758" y="112.7036">View subreddit</text><ellipse cx="288.6068" cy="76.9214" fill="#FEFECE" filter="url(#f1wyrfdebw5jcg)" rx="77.6068" ry="17.9214" style="stroke: #A80036; stroke-width: 1.5;"/><text fill="#000000" font-family="sans-serif" font-size="14" lengthAdjust="spacingAndGlyphs" textLength="125" x="226.1068" y="81.5698">Manage subreddit</text><ellipse cx="288.6672" cy="146.1334" fill="#FEFECE" filter="url(#f1wyrfdebw5jcg)" rx="68.6672" ry="16.1334" style="stroke: #A80036; stroke-width: 1.5;"/><text fill="#000000" font-family="sans-serif" font-size="14" lengthAdjust="spacingAndGlyphs" textLength="103" x="237.1672" y="150.7819">Add moderator</text><ellipse cx="564.7007" cy="204.9401" fill="#FEFECE" filter="url(#f1wyrfdebw5jcg)" rx="65.2007" ry="15.4401" style="stroke: #A80036; stroke-width: 1.5;"/><text fill="#000000" font-family="sans-serif" font-size="14" lengthAdjust="spacingAndGlyphs" textLength="94" x="517.7007" y="209.5886">Join subreddit</text><ellipse cx="288.4465" cy="283.1893" fill="#FEFECE" filter="url(#f1wyrfdebw5jcg)" rx="71.4465" ry="16.6893" style="stroke: #A80036; stroke-width: 1.5;"/><text fill="#000000" font-family="sans-serif" font-size="14" lengthAdjust="spacingAndGlyphs" textLength="110" x="233.4465" y="287.8377">Leave subreddit</text><!--MD5=[8fc3522a43f8c7199df5e09e5bb0188e]
entity user--><ellipse cx="77" cy="220" fill="#FEFECE" filter="url(#f1wyrfdebw5jcg)" rx="8" ry="8" style="stroke: #A80036; stroke-width: 1.5;"/><path d="M77,228 L77,255 M64,236 L90,236 M77,255 L64,270 M77,255 L90,270 " fill="none" filter="url(#f1wyrfdebw5jcg)" style="stroke: #A80036; stroke-width: 1.5;"/><text fill="#000000" font-family="sans-serif" font-size="14" lengthAdjust="spacingAndGlyphs" textLength="32" x="61" y="288.4951">User</text><!--MD5=[761bb8b7a05a8485be9af9eb1119acaf]
entity mod--><ellipse cx="77" cy="104" fill="#FEFECE" filter="url(#f1wyrfdebw5jcg)" rx="8" ry="8" style="stroke: #A80036; stroke-width: 1.5;"/><path d="M77,112 L77,139 M64,120 L90,120 M77,139 L64,154 M77,139 L90,154 " fill="none" filter="url(#f1wyrfdebw5jcg)" style="stroke: #A80036; stroke-width: 1.5;"/><text fill="#000000" font-family="sans-serif" font-size="14" lengthAdjust="spacingAndGlyphs" textLength="142" x="6" y="172.4951">Subreddit Moderator</text><!--MD5=[21f481ccb9ecb7db63df63b581fb1a69]
entity su--><ellipse cx="732" cy="243" fill="#FEFECE" filter="url(#f1wyrfdebw5jcg)" rx="8" ry="8" style="stroke: #A80036; stroke-width: 1.5;"/><path d="M732,251 L732,278 M719,259 L745,259 M732,278 L719,293 M732,278 L745,293 " fill="none" filter="url(#f1wyrfdebw5jcg)" style="stroke: #A80036; stroke-width: 1.5;"/><text fill="#000000" font-family="sans-serif" font-size="14" lengthAdjust="spacingAndGlyphs" textLength="72" x="696" y="311.4951">Superuser</text><!--MD5=[3f3f72f5635791dd96f6ad4e1c57042c]
link mod to user--><path d="M77,175.55 C77,180.42 77,185.3 77,190.17 " fill="none" id="mod-&gt;user" style="stroke: #A80036; stroke-width: 1.0;"/><polygon fill="none" points="84,190.22,77,210.22,70,190.22,84,190.22" style="stroke: #A80036; stroke-width: 1.0;"/><!--MD5=[84519fefecf4c44656211ef5a2472632]
link user to sub_create--><path d="M93.07,248.34 C120.13,243.56 178.43,233.26 224.16,225.19 " fill="none" id="user-&gt;sub_create" style="stroke: #A80036; stroke-width: 1.0;"/><polygon fill="#A80036" points="229.11,224.31,219.5498,221.9429,224.1868,225.183,220.9467,229.82,229.11,224.31" style="stroke: #A80036; stroke-width: 1.0;"/><!--MD5=[1f3b4b7dd4e042eb60f3432d2a2d5367]
link user to sub_leave--><path d="M93.07,253.3 C119.9,257.4 177.41,266.19 222.97,273.14 " fill="none" id="user-&gt;sub_leave" style="stroke: #A80036; stroke-width: 1.0;"/><polygon fill="#A80036" points="228.18,273.94,219.8894,268.6234,223.2376,273.1829,218.6781,276.5312,228.18,273.94" style="stroke: #A80036; stroke-width: 1.0;"/><!--MD5=[19f5111f176ea660f8a2e51fe55217ea]
link mod to sub_manage--><path d="M148.05,115.61 C175.71,107.95 207,99.29 232.93,92.11 " fill="none" id="mod-&gt;sub_manage" style="stroke: #008000; stroke-width: 1.0;"/><polygon fill="#008000" points="238.04,90.69,228.2962,89.2552,233.2238,92.0334,230.4456,96.961,238.04,90.69" style="stroke: #008000; stroke-width: 1.0;"/><!--MD5=[aec6b5a64b03877dcdb6799d28146cae]
link mod to sub_add_mod--><path d="M148.05,138.68 C169.97,139.83 194.16,141.1 216.17,142.25 " fill="none" id="mod-&gt;sub_add_mod" style="stroke: #008000; stroke-width: 1.0;"/><polygon fill="#008000" points="221.41,142.53,212.6273,138.073,216.4166,142.2732,212.2164,146.0625,221.41,142.53" style="stroke: #008000; stroke-width: 1.0;"/><!--MD5=[339118e2d60c9b215f1c157e58084e39]
reverse link sub_manage to su--><path d="M341.6,93.36 C350.72,98.16 359.39,104.27 366,112 C398.1,149.53 359.61,185.6 396,219 C480.02,296.12 628.42,288.08 695.87,279.56 " fill="none" id="sub_manage&lt;-su" style="stroke: #0000FF; stroke-width: 1.0;"/><polygon fill="#0000FF" points="337.09,91.1,343.3413,98.7106,341.5593,93.3418,346.9281,91.5598,337.09,91.1" style="stroke: #0000FF; stroke-width: 1.0;"/><!--MD5=[211e04a3960ac635a8eefe04846b8db7]
link sub_create to sub_read--><path d="M327.02,199.48 C378.53,179.56 470.72,143.89 523.5,123.48 " fill="none" id="sub_create-&gt;sub_read" style="stroke: #A80036; stroke-width: 1.0; stroke-dasharray: 7.0,7.0;"/><polygon fill="#A80036" points="528.16,121.67,518.3237,121.1735,523.4944,123.4678,521.2001,128.6385,528.16,121.67" style="stroke: #A80036; stroke-width: 1.0;"/><text fill="#000000" font-family="sans-serif" font-size="13" lengthAdjust="spacingAndGlyphs" textLength="68" x="397" y="145.0669">«includes»</text><!--MD5=[1c53af105c4828f839a2073b2e03219b]
link sub_create to sub_join--><path d="M361.85,211.62 C402.97,210.27 454.17,208.59 494.69,207.26 " fill="none" id="sub_create-&gt;sub_join" style="stroke: #A80036; stroke-width: 1.0; stroke-dasharray: 7.0,7.0;"/><polygon fill="#A80036" points="500.09,207.08,490.9582,203.3907,495.0929,207.2513,491.2323,211.386,500.09,207.08" style="stroke: #A80036; stroke-width: 1.0;"/><text fill="#000000" font-family="sans-serif" font-size="13" lengthAdjust="spacingAndGlyphs" textLength="68" x="397" y="205.0669">«includes»</text><!--MD5=[c68a71839bd53481ed4133449c777c58]
link sub_manage to sub_read--><path d="M358.64,84.82 C401.15,89.63 455.31,95.76 497.26,100.51 " fill="none" id="sub_manage-&gt;sub_read" style="stroke: #A80036; stroke-width: 1.0; stroke-dasharray: 7.0,7.0;"/><polygon fill="#A80036" points="502.32,101.08,493.8373,96.0757,497.3529,100.5074,492.9211,104.023,502.32,101.08" style="stroke: #A80036; stroke-width: 1.0;"/><text fill="#000000" font-family="sans-serif" font-size="13" lengthAdjust="spacingAndGlyphs" textLength="68" x="397" y="86.0669">«includes»</text><!--MD5=[e29439aefdf4cd1801b2637e2d9349f7]
@startuml
skinparam packageStyle rectangle
left to right direction
actor "User" as user
actor "Subreddit Moderator" as mod
actor "Superuser" as su
mod -|> user

rectangle Subreddit as sub {
  usecase "Create subreddit" as sub_create
  usecase "View subreddit" as sub_read
  usecase "Manage subreddit" as sub_manage
  usecase "Add moderator" as sub_add_mod

  usecase "Join subreddit" as sub_join
  usecase "Leave subreddit" as sub_leave
}

user - -> sub_create
user - -> sub_leave

mod -[#green]-> sub_manage
mod -[#green]-> sub_add_mod

sub_manage    <-[#blue]- - su

sub_create ..> sub_read : <<includes>>
sub_create ..> sub_join : <<includes>>
sub_manage ..> sub_read : <<includes>>

@enduml

PlantUML version 1.2020.02(Sun Mar 01 10:22:07 GMT 2020)
(GPL source distribution)
Java Runtime: OpenJDK Runtime Environment
JVM: OpenJDK 64-Bit Server VM
Java Version: 11.0.8+10-post-Ubuntu-0ubuntu1
Operating System: Linux
Default Encoding: ANSI_X3.4-1968
Language: en
Country: US
--></g></svg>