<?xml version="1.0" encoding="UTF-8" standalone="no"?><svg xmlns="http://www.w3.org/2000/svg" xmlns:xlink="http://www.w3.org/1999/xlink" contentScriptType="application/ecmascript" contentStyleType="text/css" height="286px" preserveAspectRatio="none" style="width:707px;height:286px;" version="1.1" viewBox="0 0 707 286" width="707px" zoomAndPan="magnify"><defs><filter height="300%" id="fnpfuz3ro86ee" width="300%" x="-1" y="-1"><feGaussianBlur result="blurOut" stdDeviation="2.0"/><feColorMatrix in="blurOut" result="blurOut2" type="matrix" values="0 0 0 0 0 0 0 0 0 0 0 0 0 0 0 0 0 0 .4 0"/><feOffset dx="4.0" dy="4.0" in="blurOut2" result="blurOut3"/><feBlend in="SourceGraphic" in2="blurOut3" mode="normal"/></filter></defs><g><!--MD5=[0c4a738b3201a23a254af68352446157]
cluster auth--><rect fill="#FFFFFF" filter="url(#fnpfuz3ro86ee)" height="220" style="stroke: #000000; stroke-width: 1.5;" width="381" x="195" y="24"/><text fill="#000000" font-family="sans-serif" font-size="14" font-weight="bold" lengthAdjust="spacingAndGlyphs" textLength="115" x="328" y="38.9951">Authentication</text><ellipse cx="288.35" cy="139.87" fill="#FEFECE" filter="url(#fnpfuz3ro86ee)" rx="69.85" ry="16.37" style="stroke: #A80036; stroke-width: 1.5;"/><text fill="#000000" font-family="sans-serif" font-size="14" lengthAdjust="spacingAndGlyphs" textLength="106" x="235.35" y="144.5184">Create account</text><ellipse cx="527.9914" cy="213.0236" fill="#FEFECE" filter="url(#fnpfuz3ro86ee)" rx="31.9914" ry="14.5236" style="stroke: #A80036; stroke-width: 1.5;"/><text fill="#000000" font-family="sans-serif" font-size="14" lengthAdjust="spacingAndGlyphs" textLength="41" x="507.4914" y="217.6721">Log in</text><ellipse cx="288.2696" cy="74.0236" fill="#FEFECE" filter="url(#fnpfuz3ro86ee)" rx="39.7696" ry="14.5236" style="stroke: #A80036; stroke-width: 1.5;"/><text fill="#000000" font-family="sans-serif" font-size="14" lengthAdjust="spacingAndGlyphs" textLength="52" x="262.2696" y="78.6721">Log out</text><ellipse cx="288.6068" cy="209.9214" fill="#FEFECE" filter="url(#fnpfuz3ro86ee)" rx="77.6068" ry="17.9214" style="stroke: #A80036; stroke-width: 1.5;"/><text fill="#000000" font-family="sans-serif" font-size="14" lengthAdjust="spacingAndGlyphs" textLength="125" x="226.1068" y="214.5698">Change password</text><!--MD5=[8fc3522a43f8c7199df5e09e5bb0188e]
entity user--><ellipse cx="77" cy="152" fill="#FEFECE" filter="url(#fnpfuz3ro86ee)" rx="8" ry="8" style="stroke: #A80036; stroke-width: 1.5;"/><path d="M77,160 L77,187 M64,168 L90,168 M77,187 L64,202 M77,187 L90,202 " fill="none" filter="url(#fnpfuz3ro86ee)" style="stroke: #A80036; stroke-width: 1.5;"/><text fill="#000000" font-family="sans-serif" font-size="14" lengthAdjust="spacingAndGlyphs" textLength="32" x="61" y="220.4951">User</text><!--MD5=[761bb8b7a05a8485be9af9eb1119acaf]
entity mod--><ellipse cx="77" cy="36" fill="#FEFECE" filter="url(#fnpfuz3ro86ee)" rx="8" ry="8" style="stroke: #A80036; stroke-width: 1.5;"/><path d="M77,44 L77,71 M64,52 L90,52 M77,71 L64,86 M77,71 L90,86 " fill="none" filter="url(#fnpfuz3ro86ee)" style="stroke: #A80036; stroke-width: 1.5;"/><text fill="#000000" font-family="sans-serif" font-size="14" lengthAdjust="spacingAndGlyphs" textLength="142" x="6" y="104.4951">Subreddit Moderator</text><!--MD5=[21f481ccb9ecb7db63df63b581fb1a69]
entity su--><ellipse cx="659" cy="79" fill="#FEFECE" filter="url(#fnpfuz3ro86ee)" rx="8" ry="8" style="stroke: #A80036; stroke-width: 1.5;"/><path d="M659,87 L659,114 M646,95 L672,95 M659,114 L646,129 M659,114 L672,129 " fill="none" filter="url(#fnpfuz3ro86ee)" style="stroke: #A80036; stroke-width: 1.5;"/><text fill="#000000" font-family="sans-serif" font-size="14" lengthAdjust="spacingAndGlyphs" textLength="72" x="623" y="147.4951">Superuser</text><!--MD5=[3f3f72f5635791dd96f6ad4e1c57042c]
link mod to user--><path d="M77,107.55 C77,112.42 77,117.3 77,122.17 " fill="none" id="mod-&gt;user" style="stroke: #A80036; stroke-width: 1.0;"/><polygon fill="none" points="84,122.22,77,142.22,70,122.22,84,122.22" style="stroke: #A80036; stroke-width: 1.0;"/><!--MD5=[fcf5aa25c481337728b3f9854ab3141a]
link user to acc_create--><path d="M93.07,179.91 C121.31,174.11 183.55,161.33 230.06,151.79 " fill="none" id="user-&gt;acc_create" style="stroke: #A80036; stroke-width: 1.0;"/><polygon fill="#A80036" points="235.07,150.76,225.446,148.6673,230.1738,151.7735,227.0676,156.5013,235.07,150.76" style="stroke: #A80036; stroke-width: 1.0;"/><!--MD5=[723f75bbc208f5e0dee037db49810223]
link user to login--><path d="M93.11,195.03 C113.18,210.15 150.38,235.31 187,245 C298.22,274.42 436.18,240.85 496.44,222.88 " fill="none" id="user-&gt;login" style="stroke: #A80036; stroke-width: 1.0;"/><polygon fill="#A80036" points="501.34,221.41,491.5685,220.1782,496.5528,222.8533,493.8777,227.8377,501.34,221.41" style="stroke: #A80036; stroke-width: 1.0;"/><!--MD5=[f0507fbd7be2efa159f334bb49a37f99]
link user to logout--><path d="M93.28,169.89 C113.52,153.08 150.91,123.96 187,106 C206.63,96.23 229.89,88.6 249.08,83.25 " fill="none" id="user-&gt;logout" style="stroke: #A80036; stroke-width: 1.0;"/><polygon fill="#A80036" points="254.38,81.8,244.6402,80.3383,249.5602,83.1301,246.7684,88.0501,254.38,81.8" style="stroke: #A80036; stroke-width: 1.0;"/><!--MD5=[fc12b8ab14c9ebb71cf1fd95904b7ace]
link user to pwd_change--><path d="M93.07,184.94 C118.36,188.2 170.93,194.98 215.04,200.66 " fill="none" id="user-&gt;pwd_change" style="stroke: #A80036; stroke-width: 1.0;"/><polygon fill="#A80036" points="220.1,201.31,211.6892,196.1858,215.1415,200.667,210.6603,204.1193,220.1,201.31" style="stroke: #A80036; stroke-width: 1.0;"/><!--MD5=[bb0798ae281f299fae1e172292ca8ee5]
reverse link acc_create to su--><path d="M344.17,127.47 C360.73,124.15 379.03,120.95 396,119 C476.71,109.72 572.25,109 622.69,109.42 " fill="none" id="acc_create&lt;-su" style="stroke: #0000FF; stroke-width: 1.0;"/><polygon fill="#0000FF" points="339.09,128.51,348.7081,130.6296,343.989,127.5102,347.1084,122.7911,339.09,128.51" style="stroke: #0000FF; stroke-width: 1.0;"/><!--MD5=[55d6f1d9d46336fe6a4806d41b37cc25]
reverse link login to su--><path d="M552.5,198.94 C564.91,191.19 580.17,181.11 593,171 C603.09,163.05 613.47,153.85 622.89,145.03 " fill="none" id="login&lt;-su" style="stroke: #0000FF; stroke-width: 1.0;"/><polygon fill="#0000FF" points="548.07,201.69,557.8241,200.3268,552.314,199.0464,553.5943,193.5364,548.07,201.69" style="stroke: #0000FF; stroke-width: 1.0;"/><!--MD5=[24490ee100cdef60f0b97204fd97b2f9]
reverse link logout to su--><path d="M333.1,70.75 C392.56,67.38 502.09,64.94 593,84 C602.99,86.1 613.43,89.62 622.93,93.4 " fill="none" id="logout&lt;-su" style="stroke: #0000FF; stroke-width: 1.0;"/><polygon fill="#0000FF" points="327.86,71.06,337.0741,74.5385,332.8518,70.7739,336.6164,66.5516,327.86,71.06" style="stroke: #0000FF; stroke-width: 1.0;"/><!--MD5=[a8d6222626e813ae69df21b621ad7202]
reverse link pwd_change to su--><path d="M329.84,191.83 C349.51,183.46 373.69,173.88 396,167 C475.63,142.46 571.99,124.37 622.76,115.71 " fill="none" id="pwd_change&lt;-su" style="stroke: #0000FF; stroke-width: 1.0;"/><polygon fill="#0000FF" points="324.94,193.93,334.7876,194.0872,329.5409,191.9725,331.6556,186.7258,324.94,193.93" style="stroke: #0000FF; stroke-width: 1.0;"/><!--MD5=[9abba76de1ed8800996de7db1d5bff14]
link acc_create to login--><path d="M331.96,153.05 C379.14,167.55 454.19,190.62 496.1,203.5 " fill="none" id="acc_create-&gt;login" style="stroke: #A80036; stroke-width: 1.0; stroke-dasharray: 7.0,7.0;"/><polygon fill="#A80036" points="501.05,205.02,493.623,198.5517,496.2708,203.5506,491.2719,206.1984,501.05,205.02" style="stroke: #A80036; stroke-width: 1.0;"/><text fill="#000000" font-family="sans-serif" font-size="13" lengthAdjust="spacingAndGlyphs" textLength="68" x="397" y="171.0669">«includes»</text><!--MD5=[107a39126e3d350ebd05fe2b9eeee0c1]
@startuml
skinparam packageStyle rectangle
left to right direction
actor "User" as user
actor "Subreddit Moderator" as mod
actor "Superuser" as su
mod -|> user

rectangle "Authentication" as auth {
  usecase "Create account" as acc_create
  usecase "Log in" as login
  usecase "Log out" as logout
  usecase "Change password" as pwd_change
}

user - -> acc_create
user - -> login
user - -> logout
user - -> pwd_change

acc_create  <-[#blue]- su
login       <-[#blue]- su
logout      <-[#blue]- su
pwd_change  <-[#blue]- su

acc_create ..> login : <<includes>>

@enduml

PlantUML version 1.2020.02(Sun Mar 01 10:22:07 GMT 2020)
(GPL source distribution)
Java Runtime: OpenJDK Runtime Environment
JVM: OpenJDK 64-Bit Server VM
Java Version: 11.0.8+10-post-Ubuntu-0ubuntu1
Operating System: Linux
Default Encoding: ANSI_X3.4-1968
Language: en
Country: US
--></g></svg>