<?xml version="1.0" encoding="UTF-8" standalone="no"?><svg xmlns="http://www.w3.org/2000/svg" xmlns:xlink="http://www.w3.org/1999/xlink" contentScriptType="application/ecmascript" contentStyleType="text/css" height="242px" preserveAspectRatio="none" style="width:507px;height:242px;" version="1.1" viewBox="0 0 507 242" width="507px" zoomAndPan="magnify"><defs><filter height="300%" id="ffhhevcfiamms" width="300%" x="-1" y="-1"><feGaussianBlur result="blurOut" stdDeviation="2.0"/><feColorMatrix in="blurOut" result="blurOut2" type="matrix" values="0 0 0 0 0 0 0 0 0 0 0 0 0 0 0 0 0 0 .4 0"/><feOffset dx="4.0" dy="4.0" in="blurOut2" result="blurOut3"/><feBlend in="SourceGraphic" in2="blurOut3" mode="normal"/></filter></defs><g><!--MD5=[ec3c37ee39405f79e1c57a0120587186]
cluster cmt--><rect fill="#FFFFFF" filter="url(#ffhhevcfiamms)" height="154" style="stroke: #000000; stroke-width: 1.5;" width="187" x="192" y="77"/><text fill="#000000" font-family="sans-serif" font-size="14" font-weight="bold" lengthAdjust="spacingAndGlyphs" textLength="75" x="248" y="91.9951">Comment</text><ellipse cx="285.6068" cy="129.9214" fill="#FEFECE" filter="url(#ffhhevcfiamms)" rx="77.6068" ry="17.9214" style="stroke: #A80036; stroke-width: 1.5;"/><text fill="#000000" font-family="sans-serif" font-size="14" lengthAdjust="spacingAndGlyphs" textLength="125" x="223.1068" y="134.5698">Manage comment</text><ellipse cx="285.2758" cy="199.0552" fill="#FEFECE" filter="url(#ffhhevcfiamms)" rx="68.2758" ry="16.0552" style="stroke: #A80036; stroke-width: 1.5;"/><text fill="#000000" font-family="sans-serif" font-size="14" lengthAdjust="spacingAndGlyphs" textLength="102" x="234.2758" y="203.7036">Vote comment</text><!--MD5=[8fc3522a43f8c7199df5e09e5bb0188e]
entity user--><ellipse cx="77" cy="134" fill="#FEFECE" filter="url(#ffhhevcfiamms)" rx="8" ry="8" style="stroke: #A80036; stroke-width: 1.5;"/><path d="M77,142 L77,169 M64,150 L90,150 M77,169 L64,184 M77,169 L90,184 " fill="none" filter="url(#ffhhevcfiamms)" style="stroke: #A80036; stroke-width: 1.5;"/><text fill="#000000" font-family="sans-serif" font-size="14" lengthAdjust="spacingAndGlyphs" textLength="32" x="61" y="202.4951">User</text><!--MD5=[761bb8b7a05a8485be9af9eb1119acaf]
entity mod--><ellipse cx="77" cy="18" fill="#FEFECE" filter="url(#ffhhevcfiamms)" rx="8" ry="8" style="stroke: #A80036; stroke-width: 1.5;"/><path d="M77,26 L77,53 M64,34 L90,34 M77,53 L64,68 M77,53 L90,68 " fill="none" filter="url(#ffhhevcfiamms)" style="stroke: #A80036; stroke-width: 1.5;"/><text fill="#000000" font-family="sans-serif" font-size="14" lengthAdjust="spacingAndGlyphs" textLength="142" x="6" y="86.4951">Subreddit Moderator</text><!--MD5=[21f481ccb9ecb7db63df63b581fb1a69]
entity su--><ellipse cx="459" cy="99" fill="#FEFECE" filter="url(#ffhhevcfiamms)" rx="8" ry="8" style="stroke: #A80036; stroke-width: 1.5;"/><path d="M459,107 L459,134 M446,115 L472,115 M459,134 L446,149 M459,134 L472,149 " fill="none" filter="url(#ffhhevcfiamms)" style="stroke: #A80036; stroke-width: 1.5;"/><text fill="#000000" font-family="sans-serif" font-size="14" lengthAdjust="spacingAndGlyphs" textLength="72" x="423" y="167.4951">Superuser</text><!--MD5=[3f3f72f5635791dd96f6ad4e1c57042c]
link mod to user--><path d="M77,89.55 C77,94.42 77,99.3 77,104.17 " fill="none" id="mod-&gt;user" style="stroke: #A80036; stroke-width: 1.0;"/><polygon fill="none" points="84,104.22,77,124.22,70,104.22,84,104.22" style="stroke: #A80036; stroke-width: 1.0;"/><!--MD5=[fa5a33975eabb44fd67315adb9b5ab11]
link user to cmt_manage--><path d="M93.18,162.43 C119.01,158.05 172.99,148.9 217.04,141.43 " fill="none" id="user-&gt;cmt_manage" style="stroke: #A80036; stroke-width: 1.0;"/><polygon fill="#A80036" points="222.09,140.58,212.5514,138.1275,217.1592,141.4089,213.8777,146.0167,222.09,140.58" style="stroke: #A80036; stroke-width: 1.0;"/><!--MD5=[56f254889a93be66e63f61c4f64ea293]
link user to cmt_vote--><path d="M93.18,167.5 C120.36,171.97 178.69,181.58 223.84,189.01 " fill="none" id="user-&gt;cmt_vote" style="stroke: #A80036; stroke-width: 1.0;"/><polygon fill="#A80036" points="229,189.86,220.7699,184.4503,224.0665,189.0473,219.4695,192.3439,229,189.86" style="stroke: #A80036; stroke-width: 1.0;"/><!--MD5=[448a4cd959e85ee9d8729d3f5bcad91c]
reverse link cmt_manage to su--><path d="M368.61,130 C387.77,130 407.17,130 422.97,130 " fill="none" id="cmt_manage&lt;-su" style="stroke: #0000FF; stroke-width: 1.0;"/><polygon fill="#0000FF" points="363.22,130,372.22,134,368.22,130,372.22,126,363.22,130" style="stroke: #0000FF; stroke-width: 1.0;"/><!--MD5=[7469c4b3e28404ff430f46a20d587660]
@startuml
skinparam packageStyle rectangle
left to right direction
actor "User" as user
actor "Subreddit Moderator" as mod
actor "Superuser" as su
mod -|> user

rectangle Comment as cmt {
  usecase "Manage comment" as cmt_manage

  usecase "Vote comment" as cmt_vote
}

user - -> cmt_manage

user - -> cmt_vote

cmt_manage  <-[#blue]- su

@enduml

PlantUML version 1.2020.02(Sun Mar 01 10:22:07 GMT 2020)
(GPL source distribution)
Java Runtime: OpenJDK Runtime Environment
JVM: OpenJDK 64-Bit Server VM
Java Version: 11.0.8+10-post-Ubuntu-0ubuntu1
Operating System: Linux
Default Encoding: ANSI_X3.4-1968
Language: en
Country: US
--></g></svg>