<?xml version="1.0" encoding="UTF-8" standalone="no"?><svg xmlns="http://www.w3.org/2000/svg" xmlns:xlink="http://www.w3.org/1999/xlink" contentScriptType="application/ecmascript" contentStyleType="text/css" height="347px" preserveAspectRatio="none" style="width:357px;height:347px;" version="1.1" viewBox="0 0 357 347" width="357px" zoomAndPan="magnify"><defs><filter height="300%" id="fbwc90hngoco2" width="300%" x="-1" y="-1"><feGaussianBlur result="blurOut" stdDeviation="2.0"/><feColorMatrix in="blurOut" result="blurOut2" type="matrix" values="0 0 0 0 0 0 0 0 0 0 0 0 0 0 0 0 0 0 .4 0"/><feOffset dx="4.0" dy="4.0" in="blurOut2" result="blurOut3"/><feBlend in="SourceGraphic" in2="blurOut3" mode="normal"/></filter></defs><g><!--MD5=[a139e992f8a77546bf37c14edd197f06]
class Authentication--><rect fill="#FEFECE" filter="url(#fbwc90hngoco2)" height="86.4141" id="Authentication" style="stroke: #A80036; stroke-width: 1.5;" width="340" x="6" y="8"/><ellipse cx="125.75" cy="24" fill="#ADD1B2" rx="11" ry="11" style="stroke: #A80036; stroke-width: 1.0;"/><path d="M128.7188,29.6406 Q128.1406,29.9375 127.5,30.0781 Q126.8594,30.2344 126.1563,30.2344 Q123.6563,30.2344 122.3281,28.5938 Q121.0156,26.9375 121.0156,23.8125 Q121.0156,20.6875 122.3281,19.0313 Q123.6563,17.375 126.1563,17.375 Q126.8594,17.375 127.5,17.5313 Q128.1563,17.6875 128.7188,17.9844 L128.7188,20.7031 Q128.0938,20.125 127.5,19.8594 Q126.9063,19.5781 126.2813,19.5781 Q124.9375,19.5781 124.25,20.6563 Q123.5625,21.7188 123.5625,23.8125 Q123.5625,25.9063 124.25,26.9844 Q124.9375,28.0469 126.2813,28.0469 Q126.9063,28.0469 127.5,27.7813 Q128.0938,27.5 128.7188,26.9219 L128.7188,29.6406 Z "/><text fill="#000000" font-family="sans-serif" font-size="12" lengthAdjust="spacingAndGlyphs" textLength="92" x="146.25" y="28.1543">Authentication</text><line style="stroke: #A80036; stroke-width: 1.5;" x1="7" x2="345" y1="40" y2="40"/><line style="stroke: #A80036; stroke-width: 1.5;" x1="7" x2="345" y1="48" y2="48"/><text fill="#000000" font-family="sans-serif" font-size="11" lengthAdjust="spacingAndGlyphs" textLength="153" x="12" y="62.2104">getUser(username: String)</text><text fill="#000000" font-family="sans-serif" font-size="11" lengthAdjust="spacingAndGlyphs" textLength="153" x="12" y="75.0151">getHash(password: String)</text><text fill="#000000" font-family="sans-serif" font-size="11" lengthAdjust="spacingAndGlyphs" textLength="328" x="12" y="87.8198">createAccount(username: String, password_hash: String)</text><!--MD5=[f9a29335b499db729be669fd1bd54958]
class Account--><rect fill="#FEFECE" filter="url(#fbwc90hngoco2)" height="73.6094" id="Account" style="stroke: #A80036; stroke-width: 1.5;" width="135" x="108.5" y="154"/><ellipse cx="146.9" cy="170" fill="#ADD1B2" rx="11" ry="11" style="stroke: #A80036; stroke-width: 1.0;"/><path d="M149.8688,175.6406 Q149.2906,175.9375 148.65,176.0781 Q148.0094,176.2344 147.3063,176.2344 Q144.8063,176.2344 143.4781,174.5938 Q142.1656,172.9375 142.1656,169.8125 Q142.1656,166.6875 143.4781,165.0313 Q144.8063,163.375 147.3063,163.375 Q148.0094,163.375 148.65,163.5313 Q149.3063,163.6875 149.8688,163.9844 L149.8688,166.7031 Q149.2438,166.125 148.65,165.8594 Q148.0563,165.5781 147.4313,165.5781 Q146.0875,165.5781 145.4,166.6563 Q144.7125,167.7188 144.7125,169.8125 Q144.7125,171.9063 145.4,172.9844 Q146.0875,174.0469 147.4313,174.0469 Q148.0563,174.0469 148.65,173.7813 Q149.2438,173.5 149.8688,172.9219 L149.8688,175.6406 Z "/><text fill="#000000" font-family="sans-serif" font-size="12" lengthAdjust="spacingAndGlyphs" textLength="51" x="166.1" y="174.1543">Account</text><line style="stroke: #A80036; stroke-width: 1.5;" x1="109.5" x2="242.5" y1="186" y2="186"/><text fill="#000000" font-family="sans-serif" font-size="11" lengthAdjust="spacingAndGlyphs" textLength="96" x="114.5" y="200.2104">String username</text><text fill="#000000" font-family="sans-serif" font-size="11" lengthAdjust="spacingAndGlyphs" textLength="123" x="114.5" y="213.0151">String passwordHash</text><line style="stroke: #A80036; stroke-width: 1.5;" x1="109.5" x2="242.5" y1="219.6094" y2="219.6094"/><!--MD5=[3fd616f346a44cd59a91eb10b19e157c]
class User--><rect fill="#FEFECE" filter="url(#fbwc90hngoco2)" height="48" id="User" style="stroke: #A80036; stroke-width: 1.5;" width="61" x="88.5" y="288"/><ellipse cx="103.5" cy="304" fill="#ADD1B2" rx="11" ry="11" style="stroke: #A80036; stroke-width: 1.0;"/><path d="M106.4688,309.6406 Q105.8906,309.9375 105.25,310.0781 Q104.6094,310.2344 103.9063,310.2344 Q101.4063,310.2344 100.0781,308.5938 Q98.7656,306.9375 98.7656,303.8125 Q98.7656,300.6875 100.0781,299.0313 Q101.4063,297.375 103.9063,297.375 Q104.6094,297.375 105.25,297.5313 Q105.9063,297.6875 106.4688,297.9844 L106.4688,300.7031 Q105.8438,300.125 105.25,299.8594 Q104.6563,299.5781 104.0313,299.5781 Q102.6875,299.5781 102,300.6563 Q101.3125,301.7188 101.3125,303.8125 Q101.3125,305.9063 102,306.9844 Q102.6875,308.0469 104.0313,308.0469 Q104.6563,308.0469 105.25,307.7813 Q105.8438,307.5 106.4688,306.9219 L106.4688,309.6406 Z "/><text fill="#000000" font-family="sans-serif" font-size="12" lengthAdjust="spacingAndGlyphs" textLength="29" x="117.5" y="308.1543">User</text><line style="stroke: #A80036; stroke-width: 1.5;" x1="89.5" x2="148.5" y1="320" y2="320"/><line style="stroke: #A80036; stroke-width: 1.5;" x1="89.5" x2="148.5" y1="328" y2="328"/><!--MD5=[c655d808c408fb7bc0183267d75644d6]
class Superuser--><rect fill="#FEFECE" filter="url(#fbwc90hngoco2)" height="48" id="Superuser" style="stroke: #A80036; stroke-width: 1.5;" width="97" x="184.5" y="288"/><ellipse cx="199.5" cy="304" fill="#ADD1B2" rx="11" ry="11" style="stroke: #A80036; stroke-width: 1.0;"/><path d="M202.4688,309.6406 Q201.8906,309.9375 201.25,310.0781 Q200.6094,310.2344 199.9063,310.2344 Q197.4063,310.2344 196.0781,308.5938 Q194.7656,306.9375 194.7656,303.8125 Q194.7656,300.6875 196.0781,299.0313 Q197.4063,297.375 199.9063,297.375 Q200.6094,297.375 201.25,297.5313 Q201.9063,297.6875 202.4688,297.9844 L202.4688,300.7031 Q201.8438,300.125 201.25,299.8594 Q200.6563,299.5781 200.0313,299.5781 Q198.6875,299.5781 198,300.6563 Q197.3125,301.7188 197.3125,303.8125 Q197.3125,305.9063 198,306.9844 Q198.6875,308.0469 200.0313,308.0469 Q200.6563,308.0469 201.25,307.7813 Q201.8438,307.5 202.4688,306.9219 L202.4688,309.6406 Z "/><text fill="#000000" font-family="sans-serif" font-size="12" lengthAdjust="spacingAndGlyphs" textLength="65" x="213.5" y="308.1543">Superuser</text><line style="stroke: #A80036; stroke-width: 1.5;" x1="185.5" x2="280.5" y1="320" y2="320"/><line style="stroke: #A80036; stroke-width: 1.5;" x1="185.5" x2="280.5" y1="328" y2="328"/><!--MD5=[e20441f5911959c4837efce3dbfa6a6f]
link Authentication to Account--><path d="M176,94.15 C176,113.18 176,135.43 176,153.7 " fill="none" id="Authentication-Account" style="stroke: #A80036; stroke-width: 1.0;"/><text fill="#000000" font-family="sans-serif" font-size="13" lengthAdjust="spacingAndGlyphs" textLength="8" x="167.3375" y="114.5825">1</text><text fill="#000000" font-family="sans-serif" font-size="13" lengthAdjust="spacingAndGlyphs" textLength="23" x="150.9516" y="142.8335">0..*</text><!--MD5=[6d6ac53cbd540b0f78a5161d48dae190]
reverse link Account to User--><path d="M150.08,246.11 C143.05,260.79 135.81,275.9 130.09,287.85 " fill="none" id="Account&lt;-User" style="stroke: #A80036; stroke-width: 1.0;"/><polygon fill="none" points="143.79,243.04,158.74,228.03,156.42,249.09,143.79,243.04" style="stroke: #A80036; stroke-width: 1.0;"/><!--MD5=[3fd77df44fd25e128fa4ad0eb908dc44]
reverse link Account to Superuser--><path d="M201.92,246.11 C208.95,260.79 216.19,275.9 221.91,287.85 " fill="none" id="Account&lt;-Superuser" style="stroke: #A80036; stroke-width: 1.0;"/><polygon fill="none" points="195.58,249.09,193.26,228.03,208.21,243.04,195.58,249.09" style="stroke: #A80036; stroke-width: 1.0;"/><!--MD5=[39b01ac028feb5942c2d1040dcd177da]
@startuml

class Authentication {
    getUser(username: String)
    getHash(password: String)
    createAccount(username: String, password_hash: String)
}
class Account {
    String username
    String passwordHash
}

class User
class Superuser

Authentication "1" - - "0..*" Account
Account <|- - User
Account <|- - Superuser

@enduml

PlantUML version 1.2020.02(Sun Mar 01 10:22:07 GMT 2020)
(GPL source distribution)
Java Runtime: OpenJDK Runtime Environment
JVM: OpenJDK 64-Bit Server VM
Java Version: 11.0.8+10-post-Ubuntu-0ubuntu1
Operating System: Linux
Default Encoding: ANSI_X3.4-1968
Language: en
Country: US
--></g></svg>