<?xml version="1.0" encoding="UTF-8" standalone="no"?><svg xmlns="http://www.w3.org/2000/svg" xmlns:xlink="http://www.w3.org/1999/xlink" contentScriptType="application/ecmascript" contentStyleType="text/css" height="363px" preserveAspectRatio="none" style="width:443px;height:363px;" version="1.1" viewBox="0 0 443 363" width="443px" zoomAndPan="magnify"><defs><filter height="300%" id="f1ndhxltrqzx3l" width="300%" x="-1" y="-1"><feGaussianBlur result="blurOut" stdDeviation="2.0"/><feColorMatrix in="blurOut" result="blurOut2" type="matrix" values="0 0 0 0 0 0 0 0 0 0 0 0 0 0 0 0 0 0 .4 0"/><feOffset dx="4.0" dy="4.0" in="blurOut2" result="blurOut3"/><feBlend in="SourceGraphic" in2="blurOut3" mode="normal"/></filter></defs><g><!--MD5=[61a1ff1f2e90e4f5d52417cf735e0e13]
class Core--><rect fill="#FEFECE" filter="url(#f1ndhxltrqzx3l)" height="99.2188" id="Core" style="stroke: #A80036; stroke-width: 1.5;" width="426" x="6" y="8"/><ellipse cx="200.25" cy="24" fill="#ADD1B2" rx="11" ry="11" style="stroke: #A80036; stroke-width: 1.0;"/><path d="M203.2188,29.6406 Q202.6406,29.9375 202,30.0781 Q201.3594,30.2344 200.6563,30.2344 Q198.1563,30.2344 196.8281,28.5938 Q195.5156,26.9375 195.5156,23.8125 Q195.5156,20.6875 196.8281,19.0313 Q198.1563,17.375 200.6563,17.375 Q201.3594,17.375 202,17.5313 Q202.6563,17.6875 203.2188,17.9844 L203.2188,20.7031 Q202.5938,20.125 202,19.8594 Q201.4063,19.5781 200.7813,19.5781 Q199.4375,19.5781 198.75,20.6563 Q198.0625,21.7188 198.0625,23.8125 Q198.0625,25.9063 198.75,26.9844 Q199.4375,28.0469 200.7813,28.0469 Q201.4063,28.0469 202,27.7813 Q202.5938,27.5 203.2188,26.9219 L203.2188,29.6406 Z "/><text fill="#000000" font-family="sans-serif" font-size="12" lengthAdjust="spacingAndGlyphs" textLength="29" x="220.75" y="28.1543">Core</text><line style="stroke: #A80036; stroke-width: 1.5;" x1="7" x2="431" y1="40" y2="40"/><line style="stroke: #A80036; stroke-width: 1.5;" x1="7" x2="431" y1="48" y2="48"/><text fill="#000000" font-family="sans-serif" font-size="11" lengthAdjust="spacingAndGlyphs" textLength="128" x="12" y="62.2104">getPost(postId: String)</text><text fill="#000000" font-family="sans-serif" font-size="11" lengthAdjust="spacingAndGlyphs" textLength="248" x="12" y="75.0151">editPost(postId: String, newContent: String)</text><text fill="#000000" font-family="sans-serif" font-size="11" lengthAdjust="spacingAndGlyphs" textLength="414" x="12" y="87.8198">createPost(title: String, content: String, subreddit: String, userId: String)</text><text fill="#000000" font-family="sans-serif" font-size="11" lengthAdjust="spacingAndGlyphs" textLength="145" x="12" y="100.6245">deletePost(postId: String)</text><!--MD5=[9bb0bdd047fba1a3c8d48282c35b4537]
class Post--><rect fill="#FEFECE" filter="url(#f1ndhxltrqzx3l)" height="99.2188" id="Post" style="stroke: #A80036; stroke-width: 1.5;" width="125" x="156.5" y="167"/><ellipse cx="200.75" cy="183" fill="#ADD1B2" rx="11" ry="11" style="stroke: #A80036; stroke-width: 1.0;"/><path d="M203.7188,188.6406 Q203.1406,188.9375 202.5,189.0781 Q201.8594,189.2344 201.1563,189.2344 Q198.6563,189.2344 197.3281,187.5938 Q196.0156,185.9375 196.0156,182.8125 Q196.0156,179.6875 197.3281,178.0313 Q198.6563,176.375 201.1563,176.375 Q201.8594,176.375 202.5,176.5313 Q203.1563,176.6875 203.7188,176.9844 L203.7188,179.7031 Q203.0938,179.125 202.5,178.8594 Q201.9063,178.5781 201.2813,178.5781 Q199.9375,178.5781 199.25,179.6563 Q198.5625,180.7188 198.5625,182.8125 Q198.5625,184.9063 199.25,185.9844 Q199.9375,187.0469 201.2813,187.0469 Q201.9063,187.0469 202.5,186.7813 Q203.0938,186.5 203.7188,185.9219 L203.7188,188.6406 Z "/><text fill="#000000" font-family="sans-serif" font-size="12" lengthAdjust="spacingAndGlyphs" textLength="28" x="221.25" y="187.1543">Post</text><line style="stroke: #A80036; stroke-width: 1.5;" x1="157.5" x2="280.5" y1="199" y2="199"/><text fill="#000000" font-family="sans-serif" font-size="11" lengthAdjust="spacingAndGlyphs" textLength="59" x="162.5" y="213.2104">String title</text><text fill="#000000" font-family="sans-serif" font-size="11" lengthAdjust="spacingAndGlyphs" textLength="80" x="162.5" y="226.0151">String content</text><text fill="#000000" font-family="sans-serif" font-size="11" lengthAdjust="spacingAndGlyphs" textLength="113" x="162.5" y="238.8198">Subreddit subreddit</text><text fill="#000000" font-family="sans-serif" font-size="11" lengthAdjust="spacingAndGlyphs" textLength="66" x="162.5" y="251.6245">User owner</text><line style="stroke: #A80036; stroke-width: 1.5;" x1="157.5" x2="280.5" y1="258.2188" y2="258.2188"/><!--MD5=[042fa140da40c49659127f611bcff931]
class Comment--><rect fill="#FEFECE" filter="url(#f1ndhxltrqzx3l)" height="48" id="Comment" style="stroke: #A80036; stroke-width: 1.5;" width="91" x="316.5" y="192.5"/><ellipse cx="331.5" cy="208.5" fill="#ADD1B2" rx="11" ry="11" style="stroke: #A80036; stroke-width: 1.0;"/><path d="M334.4688,214.1406 Q333.8906,214.4375 333.25,214.5781 Q332.6094,214.7344 331.9063,214.7344 Q329.4063,214.7344 328.0781,213.0938 Q326.7656,211.4375 326.7656,208.3125 Q326.7656,205.1875 328.0781,203.5313 Q329.4063,201.875 331.9063,201.875 Q332.6094,201.875 333.25,202.0313 Q333.9063,202.1875 334.4688,202.4844 L334.4688,205.2031 Q333.8438,204.625 333.25,204.3594 Q332.6563,204.0781 332.0313,204.0781 Q330.6875,204.0781 330,205.1563 Q329.3125,206.2188 329.3125,208.3125 Q329.3125,210.4063 330,211.4844 Q330.6875,212.5469 332.0313,212.5469 Q332.6563,212.5469 333.25,212.2813 Q333.8438,212 334.4688,211.4219 L334.4688,214.1406 Z "/><text fill="#000000" font-family="sans-serif" font-size="12" lengthAdjust="spacingAndGlyphs" textLength="59" x="345.5" y="212.6543">Comment</text><line style="stroke: #A80036; stroke-width: 1.5;" x1="317.5" x2="406.5" y1="224.5" y2="224.5"/><line style="stroke: #A80036; stroke-width: 1.5;" x1="317.5" x2="406.5" y1="232.5" y2="232.5"/><path d="M297,326 L297,351.1328 A0,0 0 0 0 297,351.1328 L427,351.1328 A0,0 0 0 0 427,351.1328 L427,336 L417,326 L366,326 L362,240.64 L358,326 L297,326 A0,0 0 0 0 297,326 " fill="#FBFB77" filter="url(#f1ndhxltrqzx3l)" style="stroke: #A80036; stroke-width: 1.0;"/><path d="M417,326 L417,336 L427,336 L417,326 " fill="#FBFB77" style="stroke: #A80036; stroke-width: 1.0;"/><text fill="#000000" font-family="sans-serif" font-size="13" lengthAdjust="spacingAndGlyphs" textLength="109" x="303" y="343.0669">Not designed yet</text><!--MD5=[6e39a85748f9d27ba97d4400548c58d3]
class Subreddit--><rect fill="#FEFECE" filter="url(#f1ndhxltrqzx3l)" height="48" id="Subreddit" style="stroke: #A80036; stroke-width: 1.5;" width="93" x="28.5" y="192.5"/><ellipse cx="43.5" cy="208.5" fill="#ADD1B2" rx="11" ry="11" style="stroke: #A80036; stroke-width: 1.0;"/><path d="M46.4688,214.1406 Q45.8906,214.4375 45.25,214.5781 Q44.6094,214.7344 43.9063,214.7344 Q41.4063,214.7344 40.0781,213.0938 Q38.7656,211.4375 38.7656,208.3125 Q38.7656,205.1875 40.0781,203.5313 Q41.4063,201.875 43.9063,201.875 Q44.6094,201.875 45.25,202.0313 Q45.9063,202.1875 46.4688,202.4844 L46.4688,205.2031 Q45.8438,204.625 45.25,204.3594 Q44.6563,204.0781 44.0313,204.0781 Q42.6875,204.0781 42,205.1563 Q41.3125,206.2188 41.3125,208.3125 Q41.3125,210.4063 42,211.4844 Q42.6875,212.5469 44.0313,212.5469 Q44.6563,212.5469 45.25,212.2813 Q45.8438,212 46.4688,211.4219 L46.4688,214.1406 Z "/><text fill="#000000" font-family="sans-serif" font-size="12" lengthAdjust="spacingAndGlyphs" textLength="61" x="57.5" y="212.6543">Subreddit</text><line style="stroke: #A80036; stroke-width: 1.5;" x1="29.5" x2="120.5" y1="224.5" y2="224.5"/><line style="stroke: #A80036; stroke-width: 1.5;" x1="29.5" x2="120.5" y1="232.5" y2="232.5"/><path d="M10,326 L10,351.1328 A0,0 0 0 0 10,351.1328 L140,351.1328 A0,0 0 0 0 140,351.1328 L140,336 L130,326 L79,326 L75,240.64 L71,326 L10,326 A0,0 0 0 0 10,326 " fill="#FBFB77" filter="url(#f1ndhxltrqzx3l)" style="stroke: #A80036; stroke-width: 1.0;"/><path d="M130,326 L130,336 L140,336 L130,326 " fill="#FBFB77" style="stroke: #A80036; stroke-width: 1.0;"/><text fill="#000000" font-family="sans-serif" font-size="13" lengthAdjust="spacingAndGlyphs" textLength="109" x="16" y="343.0669">Not designed yet</text><!--MD5=[eb96257d0cd764d2f76fa671ce7c0c75]
link Core to Post--><path d="M219,107.32 C219,126.31 219,148.02 219,166.98 " fill="none" id="Core-Post" style="stroke: #A80036; stroke-width: 1.0;"/><text fill="#000000" font-family="sans-serif" font-size="13" lengthAdjust="spacingAndGlyphs" textLength="8" x="210.4375" y="127.4415">1</text><text fill="#000000" font-family="sans-serif" font-size="13" lengthAdjust="spacingAndGlyphs" textLength="23" x="194.3828" y="156.0224">0..*</text><!--MD5=[65e42cb5568afcbba8f3b58fb3575f9c]
reverse link Post to Comment--><path d="M294.64,216.5 C301.91,216.5 309.17,216.5 316.44,216.5 " fill="none" id="Post&lt;-Comment" style="stroke: #A80036; stroke-width: 1.0;"/><polygon fill="#FFFFFF" points="281.56,216.5,287.56,220.5,293.56,216.5,287.56,212.5,281.56,216.5" style="stroke: #A80036; stroke-width: 1.0;"/><text fill="#000000" font-family="sans-serif" font-size="13" lengthAdjust="spacingAndGlyphs" textLength="8" x="289.672" y="212.6476">1</text><text fill="#000000" font-family="sans-serif" font-size="13" lengthAdjust="spacingAndGlyphs" textLength="23" x="285.4159" y="212.5215">0..*</text><!--MD5=[f5e214f972e645fa54cc6d21f81be0cb]
reverse link Subreddit to Post--><path d="M134.93,216.5 C142.05,216.5 149.16,216.5 156.28,216.5 " fill="none" id="Subreddit&lt;-Post" style="stroke: #A80036; stroke-width: 1.0;"/><polygon fill="#FFFFFF" points="121.69,216.5,127.69,220.5,133.69,216.5,127.69,212.5,121.69,216.5" style="stroke: #A80036; stroke-width: 1.0;"/><text fill="#000000" font-family="sans-serif" font-size="13" lengthAdjust="spacingAndGlyphs" textLength="21" x="129.3749" y="212.568">0-1</text><text fill="#000000" font-family="sans-serif" font-size="13" lengthAdjust="spacingAndGlyphs" textLength="23" x="129.4119" y="229.8438">0..*</text><!--MD5=[2b3a0e51f4d7e810d629eebad07e9ad0]
@startuml

class Core {
    getPost(postId: String)
    editPost(postId: String, newContent: String)
    createPost(title: String, content: String, subreddit: String, userId: String)
    deletePost(postId: String)
}
class Post {
    String title
    String content
    Subreddit subreddit
    User owner
}

class Comment
note bottom of Comment : Not designed yet
class Subreddit
note bottom of Subreddit : Not designed yet

Core "1" - - "0..*" Post
Post "1" o- "0..*" Comment
Subreddit "0-1" o- "0..*" Post

@enduml

PlantUML version 1.2020.02(Sun Mar 01 10:22:07 GMT 2020)
(GPL source distribution)
Java Runtime: OpenJDK Runtime Environment
JVM: OpenJDK 64-Bit Server VM
Java Version: 11.0.8+10-post-Ubuntu-0ubuntu1
Operating System: Linux
Default Encoding: ANSI_X3.4-1968
Language: en
Country: US
--></g></svg>